<?xml version="1.0" encoding="utf-8"?>
<!-- Generator: Adobe Illustrator 16.0.4, SVG Export Plug-In . SVG Version: 6.00 Build 0)  -->
<!DOCTYPE svg PUBLIC "-//W3C//DTD SVG 1.1//EN" "http://www.w3.org/Graphics/SVG/1.1/DTD/svg11.dtd">
<svg version="1.1" xmlns="http://www.w3.org/2000/svg" xmlns:xlink="http://www.w3.org/1999/xlink" x="0px" y="0px"
	 width="665.617px" height="470.436px" viewBox="0 0 665.617 470.436" enable-background="new 0 0 665.617 470.436"
	 xml:space="preserve">
<g id="screenshot">
	<g>
		<rect y="-0.001" fill="#E8E8E8" width="665.617" height="470.437"/>
	</g>
</g>
<g id="details">
	<g>
		<rect x="65.606" y="183.164" fill="#FFFFFF" width="323.731" height="208.249"/>
		<path fill="#ADADAD" d="M388.337,184.164v206.249H66.606V184.164H388.337 M390.337,182.164h-2H66.606h-2v2v206.249v2h2h321.731h2
			v-2V184.164V182.164L390.337,182.164z"/>
	</g>
	
		<rect x="85.815" y="256.843" fill="#F4E1C9" stroke="#FFAC27" stroke-width="0.5454" stroke-miterlimit="10" width="281.193" height="123.366"/>
	<g>
		<rect x="65.606" y="101.315" fill="#FFFFFF" width="323.731" height="29.731"/>
		<path fill="#ADADAD" d="M388.337,102.315v27.731H66.606v-27.731H388.337 M390.337,100.315h-2H66.606h-2v2v27.731v2h2h321.731h2v-2
			v-27.731V100.315L390.337,100.315z"/>
	</g>
	<g>
		<rect x="65.606" y="139.283" fill="#FFFFFF" width="323.731" height="29.732"/>
		<path fill="#ADADAD" d="M388.337,140.283v27.732H66.606v-27.732H388.337 M390.337,138.283h-2H66.606h-2v2v27.732v2h2h321.731h2v-2
			v-27.732V138.283L390.337,138.283z"/>
	</g>
	<g>
		<rect x="65.606" y="405.6" fill="#FFFFFF" width="323.731" height="29.731"/>
		<path fill="#ADADAD" d="M388.337,406.6v27.731H66.606V406.6H388.337 M390.337,404.6h-2H66.606h-2v2v27.731v2h2h321.731h2v-2V406.6
			V404.6L390.337,404.6z"/>
	</g>
	<g>
		<path fill="#ADADAD" d="M388.337,184.164v27.732H66.606v-27.732H388.337 M389.428,183.073h-1.091H66.606h-1.091v1.091v27.732
			v1.091h1.091h321.731h1.091v-1.091v-27.732V183.073L389.428,183.073z"/>
	</g>
	<rect fill="#1A1A42" width="665.617" height="29.328"/>
	
		<rect x="65.182" y="55.568" fill="#F4E1C9" stroke="#FFAC27" stroke-width="2" stroke-miterlimit="10" width="30.581" height="30.579"/>
	<g>
		<rect x="66.061" y="101.77" fill="#DDDDDD" width="28.824" height="28.822"/>
		<path fill="#ADADAD" d="M94.339,102.315v27.731H66.606v-27.731H94.339 M95.43,101.225h-1.091H66.606h-1.091v1.091v27.731v1.091
			h1.091h27.733h1.091v-1.091v-27.731V101.225L95.43,101.225z"/>
	</g>
	<g>
		<rect x="66.061" y="139.738" fill="#DDDDDD" width="28.824" height="28.823"/>
		<path fill="#ADADAD" d="M94.339,140.283v27.732H66.606v-27.732H94.339 M95.43,139.192h-1.091H66.606h-1.091v1.091v27.732v1.091
			h1.091h27.733h1.091v-1.091v-27.732V139.192L95.43,139.192z"/>
	</g>
	<g>
		<rect x="66.061" y="406.055" fill="#DDDDDD" width="28.824" height="28.821"/>
		<path fill="#ADADAD" d="M94.339,406.6v27.731H66.606V406.6H94.339 M95.43,405.509h-1.091H66.606h-1.091v1.091v27.731v1.091h1.091
			h27.733h1.091v-1.091V406.6V405.509L95.43,405.509z"/>
	</g>
	<g>
		<rect x="66.061" y="183.619" fill="#DDDDDD" width="28.824" height="28.823"/>
		<path fill="#ADADAD" d="M94.339,184.164v27.732H66.606v-27.732H94.339 M95.43,183.073h-1.091H66.606h-1.091v1.091v27.732v1.091
			h1.091h27.733h1.091v-1.091v-27.732V183.073L95.43,183.073z"/>
	</g>
	
		<line fill="none" stroke="#FFAC27" stroke-width="2.1816" stroke-miterlimit="10" x1="71.435" y1="70.857" x2="89.509" y2="70.857"/>
	
		<line fill="none" stroke="#FFAC27" stroke-width="2.1816" stroke-miterlimit="10" x1="80.472" y1="61.82" x2="80.472" y2="79.895"/>
	<circle fill="#FFFFFF" stroke="#ADADAD" stroke-width="2.1816" stroke-miterlimit="10" cx="467.293" cy="103.092" r="13.866"/>
	<circle fill="#FFFFFF" stroke="#FFAC27" stroke-width="2.1816" stroke-miterlimit="10" cx="467.293" cy="147.604" r="13.866"/>
	<circle fill="#FFFFFF" stroke="#ADADAD" stroke-width="2.1816" stroke-miterlimit="10" cx="467.293" cy="193.208" r="13.866"/>
	<circle fill="#FFFFFF" stroke="#ADADAD" stroke-width="2.1816" stroke-miterlimit="10" cx="467.293" cy="237.721" r="13.866"/>
	<circle fill="#FFFFFF" stroke="#ADADAD" stroke-width="2.1816" stroke-miterlimit="10" cx="467.293" cy="282.234" r="13.866"/>
	
		<line fill="none" stroke="#ADADAD" stroke-width="5.454" stroke-miterlimit="10" x1="493.829" y1="95.738" x2="601.683" y2="95.738"/>
	
		<line fill="none" stroke="#ADADAD" stroke-width="5.454" stroke-miterlimit="10" x1="493.829" y1="109.557" x2="545.803" y2="109.557"/>
	
		<line fill="none" stroke="#ADADAD" stroke-width="12.1875" stroke-miterlimit="10" x1="454.695" y1="70.857" x2="519.579" y2="70.857"/>
	
		<line fill="none" stroke="#FFAC27" stroke-width="5.454" stroke-miterlimit="10" x1="493.829" y1="140.252" x2="601.683" y2="140.252"/>
	
		<line fill="none" stroke="#FFAC27" stroke-width="5.454" stroke-miterlimit="10" x1="493.829" y1="154.07" x2="545.803" y2="154.07"/>
	
		<line fill="none" stroke="#ADADAD" stroke-width="5.454" stroke-miterlimit="10" x1="493.829" y1="185.854" x2="601.683" y2="185.854"/>
	
		<line fill="none" stroke="#ADADAD" stroke-width="5.454" stroke-miterlimit="10" x1="493.829" y1="199.674" x2="545.803" y2="199.674"/>
	
		<line fill="none" stroke="#ADADAD" stroke-width="5.454" stroke-miterlimit="10" x1="493.829" y1="230.368" x2="601.683" y2="230.368"/>
	
		<line fill="none" stroke="#ADADAD" stroke-width="5.454" stroke-miterlimit="10" x1="493.829" y1="244.188" x2="545.803" y2="244.188"/>
	
		<line fill="none" stroke="#ADADAD" stroke-width="5.454" stroke-miterlimit="10" x1="493.829" y1="274.881" x2="601.683" y2="274.881"/>
	
		<line fill="none" stroke="#ADADAD" stroke-width="5.454" stroke-miterlimit="10" x1="493.829" y1="288.701" x2="545.803" y2="288.701"/>
	
		<line fill="none" stroke="#ADADAD" stroke-width="5.454" stroke-miterlimit="10" x1="85.815" y1="228.98" x2="193.671" y2="228.98"/>
	
		<line fill="none" stroke="#ADADAD" stroke-width="5.454" stroke-miterlimit="10" x1="107.942" y1="70.857" x2="183.389" y2="70.857"/>
	
		<line fill="none" stroke="#ADADAD" stroke-width="5.454" stroke-miterlimit="10" x1="85.815" y1="242.105" x2="193.671" y2="242.105"/>
	
		<line fill="none" stroke="#ADADAD" stroke-width="5.454" stroke-miterlimit="10" x1="259.153" y1="228.98" x2="367.008" y2="228.98"/>
	
		<line fill="none" stroke="#ADADAD" stroke-width="5.454" stroke-miterlimit="10" x1="259.153" y1="242.105" x2="339.695" y2="242.105"/>
	<circle fill="#FFAC27" cx="99.162" cy="372.895" r="4.797"/>
	<path fill="#FFAC27" d="M358.993,267.539c0,2.65-2.148,4.799-4.798,4.799s-4.798-2.148-4.798-4.799
		c0-2.646,2.148-4.795,4.798-4.795S358.993,264.893,358.993,267.539z"/>
	<path fill="none" stroke="#FFAC27" stroke-width="3.2724" stroke-miterlimit="10" d="M99.162,372.895c0,0,12.93-0.363,17.98-2.922
		c5.049-2.558,10.884-13.74,17.783-13.375c11.671,0.619,20.531,11.5,34.178,9.984c7.63-0.848,16.404-32.726,29.288-39.703
		c12.76-6.909,22.294,9.717,32.923,8.863c17.169-1.379,61.895-7.985,75.115-15.525c13.737-7.833,40.516-32.27,47.766-52.678"/>
</g>
</svg>
