<?xml version="1.0" encoding="utf-8"?>
<!-- Generator: Adobe Illustrator 16.0.4, SVG Export Plug-In . SVG Version: 6.00 Build 0)  -->
<!DOCTYPE svg PUBLIC "-//W3C//DTD SVG 1.1//EN" "http://www.w3.org/Graphics/SVG/1.1/DTD/svg11.dtd">
<svg version="1.1" id="Layer_1" xmlns="http://www.w3.org/2000/svg" xmlns:xlink="http://www.w3.org/1999/xlink" x="0px" y="0px"
	 width="1440px" height="780px" viewBox="0 0 1440 780" enable-background="new 0 0 1440 780" xml:space="preserve">
<rect x="-0.039" y="-0.111" fill="#0E2C59" width="1440" height="780"/>
<path fill="#1A3163" d="M679.109,777.87c35.148-32.019-27.148-121.981-51.109-140.06s-74.039-34.922-133.074-25.945
	s-19.574-123.152-66.27-112.564s-16.014,91.432-43.355,138.51s-4.793,46.471,65.433,48.774s153.179,22.024,145.703,57.164
	s-7.477,35.14-7.477,35.14l-82.765,1.361c22.235-19.639,25.765-37.361-159.552-47.451s-7.683-152.91,14.388-223.314
	s-44.071-128.596-99.005-114.682s-23.065,86.086-112.074,248.97S-0.04,685.982-0.04,685.982V490.434
	c121,107.545,72-106.545,258.877-151.852s168.123,56.307,225.916,176.399s201.207-0.093,254.202-66.313
	c52.994-66.221-42.995-78.779,68.006-131.93c111-53.15,71-133.85,4.504-202.814c-66.494-68.965-84.504,0.965-300.629,31.996
	C294.71,176.951,382.482-0.111,382.482-0.111h271.445c-12.033,33,30.033,46,84.665,28.182
	c54.631-17.818,119.369,14.818,168.441,73.767s117.928,40.052,230.949,75.049c113.023,34.997,75.979,89.003,66.695,159.22
	s45.283,93.783,143.4,9.943s91.883-210.36,91.883-210.36v137.8c-15,48.6-45,58.4-111.27,111.77s-24.73,45.631,44.967,151.456
	c69.699,105.825-38.697,174.175-111.57,220.15s-188.127-2.976-355.711-57.14S730.643,780.25,730.643,780.25L679.109,777.87z
	 M965.125,270.928c0,0-4.406,93.184-72.785,129.072s-24.08,93.713,12.77,99.301c36.852,5.588,50.852,31.092,11.852,42.84
	s-243.678,69.496-53.84,71.122c189.84,1.626,258.389,59.024,273.113-12.675c14.727-71.699,37.244-112.551-17.516-147.125
	c-54.758-34.574-82.824-28.229-45.291-94.401s82.621-67.919,10.076-104.546c-72.543-36.627-130.574-71.078-124.697-24.708
	S965.125,270.928,965.125,270.928z"/>
<circle fill="#FFFFFF" cx="753.069" cy="334.45" r="2.829"/>
<circle fill="#FFFFFF" cx="588.701" cy="401.315" r="2.135"/>
<circle fill="#FFFFFF" cx="639.487" cy="52.127" r="1.239"/>
<circle fill="#FFFFFF" cx="1249.931" cy="460.714" r="1.817"/>
<circle fill="#FFFFFF" cx="1096.954" cy="297.954" r="1.167"/>
<circle fill="#FFFFFF" cx="73.396" cy="89.415" r="2.828"/>
<circle fill="#FFFFFF" cx="811.466" cy="217.889" r="2.135"/>
<circle fill="#FFFFFF" cx="799.078" cy="290.742" r="1.239"/>
<circle fill="#FFFFFF" cx="1017.084" cy="93.966" r="1.818"/>
<circle fill="#FFFFFF" cx="827.798" cy="343.721" r="1.168"/>
<circle fill="#FFFFFF" cx="167.942" cy="511.363" r="2.828"/>
<circle fill="#FFFFFF" cx="418.789" cy="448.246" r="2.135"/>
<circle fill="#FFFFFF" cx="505.96" cy="107.127" r="1.239"/>
<circle fill="#FFFFFF" cx="1266.8" cy="570.421" r="1.817"/>
<circle fill="#FFFFFF" cx="1141.346" cy="621.788" r="1.168"/>
<circle fill="#FFFFFF" cx="1264.066" cy="630.906" r="2.828"/>
<circle fill="#FFFFFF" cx="600.625" cy="293.963" r="2.135"/>
<circle fill="#FFFFFF" cx="1150.418" cy="706.559" r="1.239"/>
<circle fill="#FFFFFF" cx="1198.127" cy="713.563" r="1.817"/>
<circle fill="#FFFFFF" cx="1243.511" cy="639.664" r="1.169"/>
<circle fill="#FFFFFF" cx="569.605" cy="128.283" r="2.829"/>
<circle fill="#FFFFFF" cx="1057.957" cy="682.091" r="2.134"/>
<circle fill="#FFFFFF" cx="928.229" cy="635.283" r="1.24"/>
<circle fill="#FFFFFF" cx="1121.232" cy="399.498" r="1.818"/>
<circle fill="#FFFFFF" cx="893.021" cy="243.959" r="1.168"/>
<circle fill="#FFFFFF" cx="577.344" cy="621.392" r="2.828"/>
<circle fill="#FFFFFF" cx="636.546" cy="563.042" r="1.239"/>
<circle fill="#FFFFFF" cx="620.918" cy="577.525" r="1.168"/>
<circle fill="#FFFFFF" cx="1235.444" cy="549.821" r="2.135"/>
<circle fill="#FFFFFF" cx="37.656" cy="39.417" r="1.239"/>
<circle fill="#FFFFFF" cx="57.831" cy="46.716" r="1.818"/>
<circle fill="#FFFFFF" cx="149.942" cy="440.154" r="2.135"/>
<circle fill="#FFFFFF" cx="276.961" cy="283.428" r="1.818"/>
<circle fill="#FFFFFF" cx="364.325" cy="371.313" r="2.135"/>
<circle fill="#FFFFFF" cx="467.269" cy="485.793" r="1.239"/>
<circle fill="#FFFFFF" cx="315.612" cy="435.492" r="1.818"/>
<circle fill="#FFFFFF" cx="1355.707" cy="65.563" r="2.828"/>
<circle fill="#FFFFFF" cx="1128.532" cy="467.502" r="2.134"/>
<circle fill="#FFFFFF" cx="1343.755" cy="138.987" r="1.239"/>
<circle fill="#FFFFFF" cx="896.008" cy="168.962" r="1.818"/>
<circle fill="#FFFFFF" cx="1183.754" cy="365.312" r="1.168"/>
<circle fill="#FFFFFF" cx="1107.703" cy="235.01" r="2.135"/>
<circle fill="#FFFFFF" cx="986.704" cy="302.684" r="1.817"/>
<circle fill="#FFFFFF" cx="1176.021" cy="137.309" r="2.135"/>
<circle fill="#FFFFFF" cx="1177.012" cy="505.049" r="1.239"/>
<circle fill="#FFFFFF" cx="1060.091" cy="562.011" r="1.817"/>
<circle fill="#FFFFFF" cx="98.864" cy="70.488" r="2.135"/>
<circle fill="#FFFFFF" cx="86.476" cy="143.341" r="1.239"/>
<circle fill="#FFFFFF" cx="202.531" cy="199.825" r="1.818"/>
<circle fill="#FFFFFF" cx="115.196" cy="196.32" r="1.168"/>
<circle fill="#FFFFFF" cx="1260.955" cy="517.273" r="1.168"/>
<circle fill="#FFFFFF" cx="480.844" cy="127.766" r="2.828"/>
<circle fill="#FFFFFF" cx="496.325" cy="334.449" r="2.134"/>
<circle fill="#FFFFFF" cx="505.96" cy="313.721" r="1.168"/>
<circle fill="#FFFFFF" cx="462.844" cy="56.557" r="2.135"/>
<circle fill="#FFFFFF" cx="274.103" cy="155.283" r="1.818"/>
<circle fill="#FFFFFF" cx="113.448" cy="467.569" r="2.135"/>
<circle fill="#FFFFFF" cx="1131.746" cy="633.38" r="1.239"/>
<circle fill="#FFFFFF" cx="64.735" cy="531.748" r="1.817"/>
<circle fill="#FFFFFF" cx="156.601" cy="551.006" r="2.829"/>
<circle fill="#FFFFFF" cx="92.139" cy="459.347" r="1.168"/>
<circle fill="#FFFFFF" cx="214.998" cy="434.444" r="2.135"/>
<circle fill="#FFFFFF" cx="202.609" cy="507.297" r="1.239"/>
<circle fill="#FFFFFF" cx="231.329" cy="560.276" r="1.168"/>
<circle fill="#FFFFFF" cx="144.564" cy="323.683" r="2.829"/>
<circle fill="#FFFFFF" cx="296.553" cy="460.515" r="1.168"/>
<circle fill="#FFFFFF" cx="299.54" cy="385.518" r="1.818"/>
<circle fill="#FFFFFF" cx="844.652" cy="427.811" r="2.828"/>
<circle fill="#FFFFFF" cx="815.416" cy="454.239" r="2.134"/>
<circle fill="#FFFFFF" cx="933.586" cy="638.811" r="1.239"/>
<circle fill="#FFFFFF" cx="809.933" cy="439.107" r="1.818"/>
<circle fill="#FFFFFF" cx="952.28" cy="628.586" r="1.168"/>
<circle fill="#FFFFFF" cx="640.519" cy="320.285" r="2.828"/>
<circle fill="#FFFFFF" cx="1000.118" cy="703.38" r="1.239"/>
<circle fill="#FFFFFF" cx="625.449" cy="336.781" r="1.168"/>
<circle fill="#FFFFFF" cx="707.973" cy="618.563" r="2.829"/>
<circle fill="#FFFFFF" cx="563.797" cy="562.79" r="2.828"/>
<circle fill="#FFFFFF" cx="645.31" cy="602.481" r="2.135"/>
<circle fill="#FFFFFF" cx="548.232" cy="520.091" r="1.818"/>
<circle fill="#FFFFFF" cx="1258.277" cy="131.073" r="1.24"/>
<circle fill="#FFFFFF" cx="1039.549" cy="216.925" r="2.829"/>
<circle fill="#FFFFFF" cx="1001.77" cy="205.707" r="2.135"/>
<circle fill="#FFFFFF" cx="1201.781" cy="73.415" r="1.239"/>
<path fill="#FFFFFF" d="M1013.619,192.779c0.205,0.984-0.428,1.946-1.41,2.15c-0.982,0.205-1.945-0.425-2.148-1.408
	c-0.207-0.982,0.426-1.946,1.406-2.15C1012.451,191.168,1013.414,191.798,1013.619,192.779z"/>
<circle fill="#FFFFFF" cx="1254.071" cy="155.683" r="1.169"/>
<circle fill="#FFFFFF" cx="1169.651" cy="26.95" r="2.828"/>
<path fill="#FFFFFF" d="M1012.252,170.502c0.588-0.352,1.348-0.164,1.703,0.423c0.354,0.585,0.164,1.347-0.422,1.699
	c-0.584,0.354-1.346,0.165-1.699-0.421C1011.479,171.618,1011.668,170.854,1012.252,170.502z"/>
<circle fill="#FFFFFF" cx="1050.664" cy="110.051" r="2.829"/>
<circle fill="#FFFFFF" cx="719.681" cy="452.199" r="1.818"/>
<circle fill="#FFFFFF" cx="729.885" cy="527.25" r="2.827"/>
<circle fill="#FFFFFF" cx="782.754" cy="635.321" r="2.829"/>
<circle fill="#FFFFFF" cx="800.459" cy="660.475" r="1.239"/>
<path fill="#FFFFFF" d="M815.773,648.17c-0.555-0.839-0.324-1.966,0.514-2.521c0.836-0.553,1.965-0.322,2.518,0.516
	c0.555,0.837,0.324,1.965-0.512,2.518C817.453,649.236,816.326,649.007,815.773,648.17z"/>
<circle fill="#FFFFFF" cx="779.375" cy="657.407" r="1.168"/>
<circle fill="#FFFFFF" cx="806.549" cy="478.854" r="2.135"/>
<circle fill="#FFFFFF" cx="668.56" cy="531.306" r="1.239"/>
<circle fill="#FFFFFF" cx="685.389" cy="517.998" r="1.818"/>
<circle fill="#FFFFFF" cx="202.591" cy="402.958" r="2.135"/>
<circle fill="#FFFFFF" cx="68.36" cy="449.242" r="1.818"/>
<circle fill="#FFFFFF" cx="59.74" cy="373.992" r="2.828"/>
<path fill="#FFFFFF" d="M1284.975,398.484c-1.311-0.851-1.684-2.602-0.832-3.912c0.85-1.311,2.6-1.684,3.91-0.832
	c1.312,0.85,1.684,2.601,0.834,3.911C1288.035,398.963,1286.285,399.335,1284.975,398.484z"/>
<circle fill="#FFFFFF" cx="1167.772" cy="413.861" r="1.168"/>
<circle fill="#FFFFFF" cx="121.136" cy="371.229" r="1.239"/>
<circle fill="#FFFFFF" cx="104.031" cy="384.179" r="1.818"/>
<circle fill="#FFFFFF" cx="254.156" cy="287.253" r="2.135"/>
<circle fill="#FFFFFF" cx="1258.732" cy="378.048" r="2.134"/>
<circle fill="#FFFFFF" cx="396.694" cy="254.253" r="1.168"/>
<circle fill="#FFFFFF" cx="1163.274" cy="399.498" r="1.239"/>
<circle fill="#FFFFFF" cx="894.19" cy="12.76" r="2.827"/>
<circle fill="#FFFFFF" cx="892.783" cy="73.047" r="1.239"/>
<circle fill="#FFFFFF" cx="883.747" cy="92.508" r="1.818"/>
<circle fill="#FFFFFF" cx="912.991" cy="66.295" r="1.167"/>
<circle fill="#FFFFFF" cx="1111.984" cy="344.221" r="2.828"/>
<circle fill="#FFFFFF" cx="1097.236" cy="425.727" r="1.239"/>
<circle fill="#FFFFFF" cx="28.742" cy="155.283" r="1.168"/>
<circle fill="#FFFFFF" cx="1181.743" cy="296.227" r="2.829"/>
<circle fill="#FFFFFF" cx="620.228" cy="86.627" r="2.828"/>
<circle fill="#FFFFFF" cx="573.558" cy="164.356" r="2.134"/>
<circle fill="#FFFFFF" cx="835.551" cy="53.702" r="1.818"/>
<circle fill="#FFFFFF" cx="888.187" cy="230.432" r="1.818"/>
<circle fill="#FFFFFF" cx="812.53" cy="234.032" r="2.828"/>
<circle fill="#FFFFFF" cx="813.854" cy="172.587" r="1.239"/>
<circle fill="#FFFFFF" cx="825.639" cy="190.516" r="1.819"/>
<circle fill="#FFFFFF" cx="722.868" cy="21.176" r="1.818"/>
<circle fill="#FFFFFF" cx="721.051" cy="201.643" r="2.828"/>
<circle fill="#FFFFFF" cx="1140.32" cy="248.826" r="1.168"/>
<circle fill="#FFFFFF" cx="813.562" cy="26.757" r="2.135"/>
<circle fill="#FFFFFF" cx="691.683" cy="110.052" r="1.239"/>
<circle fill="#FFFFFF" cx="704.93" cy="93.174" r="1.818"/>
<circle fill="#FFFFFF" cx="1148.325" cy="261.572" r="1.239"/>
<circle fill="#FFFFFF" cx="1307.861" cy="465.877" r="2.828"/>
<circle fill="#FFFFFF" cx="410.203" cy="57.2" r="2.135"/>
<circle fill="#FFFFFF" cx="255.195" cy="11.592" r="1.168"/>
<circle fill="#FFFFFF" cx="320.814" cy="32.281" r="2.134"/>
<circle fill="#FFFFFF" cx="255.302" cy="124.149" r="2.135"/>
<circle fill="#FFFFFF" cx="389.891" cy="49.388" r="1.239"/>
<circle fill="#FFFFFF" cx="1329.654" cy="490.842" r="2.134"/>
<circle fill="#FFFFFF" cx="264.348" cy="23.54" r="1.239"/>
<circle fill="#FFFFFF" cx="979.652" cy="511.363" r="2.134"/>
<circle fill="#FFFFFF" cx="963.943" cy="518.762" r="1.239"/>
<circle fill="#FFFFFF" cx="386.162" cy="517.487" r="2.135"/>
<circle fill="#FFFFFF" cx="350.224" cy="559.58" r="1.24"/>
<circle fill="#FFFFFF" cx="396.695" cy="663.789" r="1.817"/>
<circle fill="#FFFFFF" cx="344.288" cy="562.012" r="1.239"/>
<circle fill="#FFFFFF" cx="342.179" cy="583.215" r="1.168"/>
<circle fill="#FFFFFF" cx="376.158" cy="554.605" r="2.828"/>
<circle fill="#FFFFFF" cx="299.755" cy="587.846" r="1.24"/>
<circle fill="#FFFFFF" cx="371.045" cy="532.854" r="1.168"/>
<circle fill="#FFFFFF" cx="493.127" cy="658.211" r="2.828"/>
<circle fill="#FFFFFF" cx="470.678" cy="607.044" r="2.134"/>
<circle fill="#FFFFFF" cx="412.882" cy="586.557" r="1.239"/>
<circle fill="#FFFFFF" cx="353.419" cy="110.42" r="1.818"/>
<circle fill="#FFFFFF" cx="360.72" cy="178.425" r="2.134"/>
<circle fill="#FFFFFF" cx="399.96" cy="124.784" r="1.168"/>
<circle fill="#FFFFFF" cx="395.462" cy="110.42" r="1.239"/>
<circle fill="#FFFFFF" cx="329.423" cy="136.649" r="1.239"/>
<circle fill="#FFFFFF" cx="1357.023" cy="681.22" r="1.818"/>
<circle fill="#FFFFFF" cx="1364.324" cy="749.225" r="2.135"/>
<circle fill="#FFFFFF" cx="1403.565" cy="695.584" r="1.168"/>
<circle fill="#FFFFFF" cx="1399.067" cy="681.22" r="1.239"/>
<circle fill="#FFFFFF" cx="1333.027" cy="707.449" r="1.239"/>
<circle fill="#FFFFFF" cx="1356.701" cy="322.788" r="1.818"/>
<circle fill="#FFFFFF" cx="1385.414" cy="325.825" r="2.135"/>
<circle fill="#FFFFFF" cx="1424.655" cy="272.185" r="1.168"/>
<circle fill="#FFFFFF" cx="1420.157" cy="257.821" r="1.239"/>
<circle fill="#FFFFFF" cx="1332.705" cy="349.017" r="1.239"/>
<circle fill="#FFFFFF" cx="1321.353" cy="234.729" r="2.829"/>
<circle fill="#FFFFFF" cx="1272.678" cy="338.02" r="1.168"/>
<circle fill="#FFFFFF" cx="1280.72" cy="325.296" r="1.239"/>
<circle fill="#FFFFFF" cx="1384.548" cy="589.1" r="2.135"/>
<circle fill="#FFFFFF" cx="1393.789" cy="602.275" r="1.818"/>
<circle fill="#FFFFFF" cx="1386.684" cy="563.024" r="2.135"/>
<circle fill="#FFFFFF" cx="1003.562" cy="746.328" r="2.135"/>
<circle fill="#FFFFFF" cx="1085.117" cy="772.398" r="1.168"/>
<circle fill="#FFFFFF" cx="1088.104" cy="697.401" r="1.818"/>
<circle fill="#FFFFFF" cx="1080.282" cy="758.872" r="1.818"/>
<circle fill="#FFFFFF" cx="1004.626" cy="762.472" r="2.828"/>
<circle fill="#FFFFFF" cx="1005.95" cy="701.026" r="1.239"/>
<circle fill="#FFFFFF" cx="1017.734" cy="718.955" r="1.819"/>
<path fill="#FFFFFF" d="M915.736,731.218c-0.627,1.431-2.295,2.082-3.727,1.455c-1.43-0.627-2.082-2.294-1.453-3.726
	c0.625-1.431,2.293-2.082,3.725-1.455C915.711,728.119,916.363,729.786,915.736,731.218z"/>
<g>
	<defs>
		<rect id="SVGID_1_" x="-0.039" y="511.363" width="1067.271" height="268.082"/>
	</defs>
	<clipPath id="SVGID_2_">
		<use xlink:href="#SVGID_1_"  overflow="visible"/>
	</clipPath>
	<path clip-path="url(#SVGID_2_)" fill="#B2B2B2" d="M-0.039,779.445l-0.007-237.305c0,0,413.779,1.775,1046.271,238.109
		L-0.039,779.445z"/>
	<path clip-path="url(#SVGID_2_)" fill="#A3A3A3" d="M50.119,545.375c0,0,8.759,35.983,55.951,36.538s32.018-4.927,43.882-5.968
		s36.432,5.553,50.75,10.309s17.743,7.184,32.398,5.984s9.917-8.132,18.243-7.855s9.214,3.855,17.886,7.254
		s64.486,13.475,74.118,13.027s-24.261-9.505-16.317-10.545s40.036,5.549,66.123,0.918c6.434-1.143-100.006-21.269-100.006-21.269
		s-76.06-12.576-135.782-19.421l-13.157-8.973H50.119z"/>
	<path clip-path="url(#SVGID_2_)" fill="#A8A8A8" d="M362.19,780.25c-38.412-8.937-29.931-66.701-29.931-66.701
		c-8.628-24.278-65.985-28.84-83.896-28.84s-7.463,14.925-46.269,11.94s-91.044-53.731-91.044-53.731s124.276,32.836,149.452,0
		s11.363-8.302,42.383-8.741s61.544,17.526,93.81,10.148s55.156-15.129,95.903,11.107s78.041,4.542,93.695,9.917
		s17.878-7.972,31.766,0.47s18.021,14.305,29.387,6.896s87.084-33.466,116.088-1.502c20.104,22.154,25.844,31.162,49.82,46.008
		c24.439,15.132-39.197,19.09-27.771,33.118c20.227,24.831,69.457,28.522,69.457,28.522L362.19,780.25z"/>
	<path clip-path="url(#SVGID_2_)" fill="#A8A8A8" d="M1.898,766.795c0,0,17.705-52.227,65.667-46.261s36.195-17.364-2.697-50.476
		s-63.64-24.514-63.64-24.514L1.898,766.795z"/>
	
		<ellipse transform="matrix(0.9949 0.1013 -0.1013 0.9949 64.078 -13.1073)" clip-path="url(#SVGID_2_)" fill="#727272" cx="161.065" cy="624.22" rx="92.948" ry="21.237"/>
	<path clip-path="url(#SVGID_2_)" fill="#999999" d="M253.535,633.638c-1.188,11.669-38.668,16.588-83.882,12.804
		c-68.894-5.766-80.767-17.783-79.578-29.452c1.188-11.669,38.743-17.401,83.882-12.804
		C219.095,608.783,254.723,621.969,253.535,633.638z"/>
	
		<ellipse transform="matrix(0.9795 0.2016 -0.2016 0.9795 147.448 -42.1779)" clip-path="url(#SVGID_2_)" fill="#727272" cx="280.773" cy="702.727" rx="41.912" ry="12.616"/>
	<path clip-path="url(#SVGID_2_)" fill="#999999" d="M321.824,711.177c-1.405,6.824-18.348,8.363-38.14,5.029
		c-27.199-4.581-34.458-12.86-33.053-19.685s18.48-9.075,38.14-5.028C308.431,695.54,323.229,704.353,321.824,711.177z"/>
	<path clip-path="url(#SVGID_2_)" fill="#727272" d="M481.12,656.559c-2.112,9.719-31.73,11.531-66.154,4.049
		c-34.423-7.48-60.619-21.423-58.507-31.141c2.113-9.721,31.731-11.531,66.156-4.051
		C457.039,632.897,483.233,646.841,481.12,656.559z"/>
	<path clip-path="url(#SVGID_2_)" fill="#999999" d="M481.12,656.559c-2.112,9.719-28.2,11.812-58.487,5.716
		c-39.056-7.862-52.951-19.757-50.839-29.475c2.113-9.721,41.533-9.518,73.069-1.7C465.061,636.106,483.233,646.841,481.12,656.559z
		"/>
	
		<ellipse transform="matrix(0.9804 0.1969 -0.1969 0.9804 141.6915 -103.6962)" clip-path="url(#SVGID_2_)" fill="#727272" cx="592.277" cy="660.641" rx="26.296" ry="8.866"/>
	<path clip-path="url(#SVGID_2_)" fill="#999999" d="M618.058,665.819c-0.963,4.801-11.447,6.706-23.433,4.337
		c-22.502-4.448-24.909-9.115-19.772-14.773c3.349-3.688,17.424-3.767,23.264-2.616
		C610.104,655.128,619.023,661.016,618.058,665.819z"/>
	<path opacity="0.7" clip-path="url(#SVGID_2_)" fill="#727272" d="M255.875,628.25c0,0,18.604,22.479-51.948,22.479
		c-61.23,0-67.347-4.55-67.347-4.55s44.088,23.941,99.974,26.169c47.536,1.895,67.407-3.916,67.407-8.904
		c0-5.512-22.453-13.811-32.101-19.363C262.198,638.52,255.875,628.25,255.875,628.25z"/>
	<path clip-path="url(#SVGID_2_)" fill="#DDDDDD" d="M64.735,618.311c0,0-9.328-12.02,21.996-16.35
		c19.289-2.666,19.339-2.272,19.339-2.272s-29.619,1.33-45.216,5.346c-10.947,2.818-19.537,6.755-19.527,9.678
		C41.339,618.607,62.403,619.076,64.735,618.311z"/>
	<path clip-path="url(#SVGID_2_)" fill="#727272" d="M259.104,637.083c0,0,4.611,13.088-48.382,15.355
		c-13.361,0.571-34.981-0.892-34.981-0.892s20.424,5.769,44.53,7.383c22.063,1.478,42.344-0.183,47.049-6.305
		C270.113,648.992,265.039,646.022,259.104,637.083z"/>
	<polygon clip-path="url(#SVGID_2_)" fill="#A3A3A3" points="144.208,545.375 167.942,561.562 126.935,565.934 	"/>
	<polygon clip-path="url(#SVGID_2_)" fill="#B2B2B2" points="623.779,633.062 604.043,642.736 626.275,653.811 	"/>
	<polygon clip-path="url(#SVGID_2_)" fill="#A8A8A8" points="763.533,671.213 777.596,696.638 736.033,685.359 	"/>
	<path opacity="0.7" clip-path="url(#SVGID_2_)" fill="#727272" d="M484.997,654.412c0,0,7.298,17.526-40.55,14.02
		c-28.819-2.112-39.853-6.461-39.853-6.461s23.881,21.368,48.478,28.139c26.151,7.198,53.614,7.047,59.28-1.244
		c5.088-7.446-10.229-12.854-17.687-18.654C488.446,665.375,484.997,654.412,484.997,654.412z"/>
	<path clip-path="url(#SVGID_2_)" fill="#727272" d="M485.318,662.375c0,0-3.067,10.078-30.672,8.764s-33.739-3.505-33.739-3.505
		s33.191,14.245,62.659,9.64c14.021-2.191,7.174-6.797,4.833-9.488C486.723,665.857,485.318,662.375,485.318,662.375z"/>
	<path clip-path="url(#SVGID_2_)" fill="#DDDDDD" d="M374.987,618.329c0,0-23.486,2.368-22.998,11.387
		c0.447,8.264,9.824,13.397,9.824,13.397s-26.123-1.338-27.909-9.376S354.222,619.669,374.987,618.329z"/>
	<path clip-path="url(#SVGID_2_)" fill="#DDDDDD" d="M243.243,685.239c0,0-1.855,0.201-5.307,2.517
		c-2.69,1.805-6.646,5.66-9.527,6.713c-4.09,1.494-15.553,3.012-12.139,5.256s20.373,3.847,22.876,3.291
		C239.146,703.016,227.439,691.598,243.243,685.239z"/>
	<path opacity="0.7" clip-path="url(#SVGID_2_)" fill="#727272" d="M329.825,709.139c0,0,4.242,17.047-39.47,12.711
		c0,0,21.453,23.073,56.289,23.627c35.838,0.569,31.708-7.864,26.878-11.076c-2.971-1.976-20.507-5.435-32.251-12.551
		C333.803,717.324,329.825,709.139,329.825,709.139z"/>
	<path clip-path="url(#SVGID_2_)" fill="#727272" d="M330.909,714.12c0,0,1.793,12.691-31.153,10.612c0,0,21.188,6.711,33.753,1.521
		c3.771-1.558,4.011-3.274,0-7.787C332.389,717.206,330.909,714.12,330.909,714.12z"/>
	<path clip-path="url(#SVGID_2_)" fill="#DDDDDD" d="M569.614,650.282c0,0-13.505,3.081-2.988,11.36c0,0-14.192,8.243-17.474,2.856
		s7.731-9.55,11.773-11.498C563.75,651.64,569.614,650.282,569.614,650.282z"/>
	<path opacity="0.7" clip-path="url(#SVGID_2_)" fill="#727272" d="M620.323,664.543c0,0,6.72,10.533-24.965,7.984
		c0,0,11.113,20.038,36.587,21.566s13.825-6.117,13.364-7.812s1.625-3.736-2.048-6.114S627.892,672.524,620.323,664.543z"/>
	<path clip-path="url(#SVGID_2_)" fill="#727272" d="M621.861,668.207c0,0,1.422,7.799-20.146,6.652c0,0,11.741,3.732,18.608,3.331
		s6.749-3.947,5.789-4.977S621.861,668.207,621.861,668.207z"/>
	<path clip-path="url(#SVGID_2_)" fill="#DDDDDD" d="M625.453,632.321c0,0-17.648,8.907-20.535,8.162s-14.435,3.536,2.411,11.629
		c6.822,3.277,20.671-8.676,20.671-8.676L625.453,632.321z"/>
	<path opacity="0.7" clip-path="url(#SVGID_2_)" fill="#727272" d="M762.432,669.659c0,0,26.479,31.804,35.109,38.023
		c15.812,11.395,14.01,27.699-41.654,22.081c-37.356-3.771-48.741-51.543-48.741-51.543L762.432,669.659z"/>
	
		<ellipse transform="matrix(0.9648 0.2631 -0.2631 0.9648 197.0308 -159.0592)" clip-path="url(#SVGID_2_)" fill="#B2B2B2" cx="692.51" cy="656.267" rx="74.665" ry="17.602"/>
	
		<ellipse transform="matrix(0.9648 0.2631 -0.2631 0.9648 197.0323 -159.0601)" clip-path="url(#SVGID_2_)" fill="#727272" cx="692.51" cy="656.267" rx="63.786" ry="15.038"/>
	<path clip-path="url(#SVGID_2_)" fill="#999999" d="M754.049,673.047c-2.184,8.013-26.527,7.599-54.782,0.649
		c-40.341-9.922-54.983-21.444-48.671-30.26c5.81-8.115,39.123-3.424,56.584,1.244C735.287,652.194,756.234,665.034,754.049,673.047
		z"/>
	<path clip-path="url(#SVGID_2_)" fill="#727272" d="M766.576,676.646c0,0-0.242,15.743-52.692,5.586
		c0,0,10.596,13.565,48.547,20.644s14.471-12.751,11.725-16C770.406,682.441,766.576,676.646,766.576,676.646z"/>
	<path clip-path="url(#SVGID_2_)" fill="#DDDDDD" d="M477.777,741.385c0,0-36.27-0.434-54.696,11.871
		c-17.893,11.948,26.704,22.574,26.704,22.574L477.777,741.385z"/>
	
		<ellipse transform="matrix(0.9839 0.1786 -0.1786 0.9839 145.8619 -78.772)" clip-path="url(#SVGID_2_)" fill="#B2B2B2" cx="510.343" cy="770.569" rx="72.571" ry="27.153"/>
	
		<ellipse transform="matrix(0.9839 0.1786 -0.1786 0.9839 145.8615 -78.7718)" clip-path="url(#SVGID_2_)" fill="#727272" cx="510.343" cy="770.569" rx="63.786" ry="23.866"/>
	
		<ellipse transform="matrix(0.9839 0.1786 -0.1786 0.9839 146.2856 -80.3036)" clip-path="url(#SVGID_2_)" fill="#999999" cx="519.057" cy="772.151" rx="54.929" ry="23.866"/>
	<path clip-path="url(#SVGID_2_)" fill="#DDDDDD" d="M817.154,736.945c0,0-14.395,1.771-17.934,5.758
		c-3.541,3.986,11.953,7.259,11.953,7.259L817.154,736.945z"/>
	<path opacity="0.7" clip-path="url(#SVGID_2_)" fill="#727272" d="M848.766,753.022c0,0,3.432,5.802,6.273,7.909
		s11.188,8.034,0,9.638c-18.129,2.599-23.896-8.773-23.896-8.773L848.766,753.022z"/>
	
		<ellipse transform="matrix(0.917 0.3988 -0.3988 0.917 367.8862 -268.3835)" clip-path="url(#SVGID_2_)" fill="#B2B2B2" cx="828.965" cy="749.971" rx="22.184" ry="10.464"/>
	
		<ellipse transform="matrix(0.917 0.3988 -0.3988 0.917 367.8951 -268.3877)" clip-path="url(#SVGID_2_)" fill="#727272" cx="828.966" cy="749.971" rx="17.966" ry="8.475"/>
	
		<ellipse transform="matrix(0.917 0.3988 -0.3988 0.917 368.5181 -269.2949)" clip-path="url(#SVGID_2_)" fill="#999999" cx="831.501" cy="751.074" rx="15.202" ry="8.475"/>
	<path clip-path="url(#SVGID_2_)" fill="#727272" d="M850.594,758.751c0,0-0.355,6.864-13.861,5.31c0,0,10.662,3.906,15.461,1.887
		S850.594,758.751,850.594,758.751z"/>
	<path clip-path="url(#SVGID_2_)" fill="#DDDDDD" d="M923.094,736.177c0,0-17.332-0.218-22.193,4.907
		c-4.859,5.125,8.176,10.906,21.709,9.99L923.094,736.177z"/>
	<path opacity="0.7" clip-path="url(#SVGID_2_)" fill="#727272" d="M1007.496,765.915c0,0,19.529,12.802,10.24,16.447
		c-9.291,3.646-38.891-10.914-38.891-10.914L1007.496,765.915z"/>
	
		<ellipse transform="matrix(0.9541 0.2996 -0.2996 0.9541 270.2872 -253.1188)" clip-path="url(#SVGID_2_)" fill="#B2B2B2" cx="960.584" cy="754.869" rx="50.452" ry="11.545"/>
	
		<ellipse transform="matrix(0.9541 0.2996 -0.2996 0.9541 270.2931 -253.1228)" clip-path="url(#SVGID_2_)" fill="#727272" cx="960.584" cy="754.869" rx="41.912" ry="9.59"/>
	
		<ellipse transform="matrix(0.9541 0.2996 -0.2996 0.9541 271.2021 -254.9769)" clip-path="url(#SVGID_2_)" fill="#999999" cx="967.091" cy="756.912" rx="35.092" ry="9.59"/>
	<path clip-path="url(#SVGID_2_)" fill="#727272" d="M1009.93,768.499c0,0,3.25,9.315-20.133,5.933c0,0,17.281,6.075,22.141,4.43
		C1019.17,776.412,1009.93,768.499,1009.93,768.499z"/>
	<path clip-path="url(#SVGID_2_)" fill="#DDDDDD" d="M108.418,735.978c0,0-49.415-9.358-67.438,1.495
		c-23.906,14.396,15.583,38.512,15.583,38.512L108.418,735.978z"/>
	<path opacity="0.7" clip-path="url(#SVGID_2_)" fill="#727272" d="M136.254,750.339c0,0,39.269,43.602,25.598,48.044
		s-60.494-10.38-60.494-10.38L136.254,750.339z"/>
	
		<ellipse transform="matrix(0.9961 0.0885 -0.0885 0.9961 67.7047 -5.3094)" clip-path="url(#SVGID_2_)" fill="#B2B2B2" cx="93.726" cy="760.84" rx="48.777" ry="26.949"/>
	
		<ellipse transform="matrix(0.9961 0.0885 -0.0885 0.9961 67.7076 -5.3095)" clip-path="url(#SVGID_2_)" fill="#727272" cx="93.726" cy="760.84" rx="41.912" ry="23.156"/>
	<path clip-path="url(#SVGID_2_)" fill="#999999" d="M133.757,768.271c-0.949,10.684-17.974,17.651-38.071,16.113
		c-31.896-2.441-35.582-11.893-34.633-22.573c0.949-10.685,17.995-17.899,38.071-16.115
		C119.202,747.48,134.706,757.587,133.757,768.271z"/>
	<path clip-path="url(#SVGID_2_)" fill="#727272" d="M144.764,765.01c0,0,4.899,13.092-19.937,22.092c0,0,18.911,2.05,24.266-1.367
		S148.751,769.576,144.764,765.01z"/>
	<path opacity="0.7" clip-path="url(#SVGID_2_)" fill="#727272" d="M143.244,544.595c0,0,16.901,12.752,23.309,13.596
		c4.554,0.6,42.319,12.754-11.021,15.578c-40.877,2.164-84.597-17.751-84.597-17.751L143.244,544.595z"/>
	
		<ellipse transform="matrix(0.9974 0.0719 -0.0719 0.9974 39.1228 -3.0947)" clip-path="url(#SVGID_2_)" fill="#B2B2B2" cx="62.568" cy="542.141" rx="83.299" ry="13.324"/>
	
		<ellipse transform="matrix(0.9974 0.0719 -0.0719 0.9974 39.1203 -3.0946)" clip-path="url(#SVGID_2_)" fill="#727272" cx="62.568" cy="542.141" rx="71.781" ry="11.481"/>
	
		<ellipse transform="matrix(0.9974 0.0719 -0.0719 0.9974 39.1958 -3.8002)" clip-path="url(#SVGID_2_)" fill="#999999" cx="72.414" cy="542.85" rx="61.909" ry="11.48"/>
	<path clip-path="url(#SVGID_2_)" fill="#727272" d="M147.438,549.567c0,0-2.296,10.608-47.049,9.115c0,0,33.759,7.538,48.839,4.275
		S147.438,549.567,147.438,549.567z"/>
</g>
</svg>
