<?xml version="1.0" encoding="utf-8"?>
<!-- Generator: Adobe Illustrator 16.0.4, SVG Export Plug-In . SVG Version: 6.00 Build 0)  -->
<!DOCTYPE svg PUBLIC "-//W3C//DTD SVG 1.1//EN" "http://www.w3.org/Graphics/SVG/1.1/DTD/svg11.dtd">
<svg version="1.1" id="Layer_1" xmlns="http://www.w3.org/2000/svg" xmlns:xlink="http://www.w3.org/1999/xlink" x="0px" y="0px"
	 width="425px" height="320px" viewBox="0 0 425 320" enable-background="new 0 0 425 320" xml:space="preserve">
<radialGradient id="SVGID_1_" cx="527.1387" cy="141.082" r="66.8757" gradientTransform="matrix(0.9597 -0.2811 0.2249 0.7678 -451.0636 234.2374)" gradientUnits="userSpaceOnUse">
	<stop  offset="0" style="stop-color:#FFFF5C;stop-opacity:0.7"/>
	<stop  offset="0.1668" style="stop-color:#D7D75C;stop-opacity:0.4962"/>
	<stop  offset="0.337" style="stop-color:#B6B65C;stop-opacity:0.2881"/>
	<stop  offset="0.4785" style="stop-color:#A1A15C;stop-opacity:0.1151"/>
	<stop  offset="0.5728" style="stop-color:#9A9A5C;stop-opacity:0"/>
</radialGradient>
<path fill="url(#SVGID_1_)" d="M155.701,174.122c9.513,32.475-13.732,67.869-51.92,79.054
	c-38.187,11.186-76.854-6.072-86.368-38.548c-9.512-32.475,13.734-67.868,51.921-79.053
	C107.521,124.389,146.188,141.647,155.701,174.122z"/>
<radialGradient id="SVGID_2_" cx="516.1973" cy="141.082" r="66.8757" gradientTransform="matrix(0.9597 -0.2811 0.2249 0.7678 -451.0636 234.2374)" gradientUnits="userSpaceOnUse">
	<stop  offset="0" style="stop-color:#FFFF5C;stop-opacity:0.7"/>
	<stop  offset="0.1668" style="stop-color:#D7D75C;stop-opacity:0.4962"/>
	<stop  offset="0.337" style="stop-color:#B6B65C;stop-opacity:0.2881"/>
	<stop  offset="0.4785" style="stop-color:#A1A15C;stop-opacity:0.1151"/>
	<stop  offset="0.5728" style="stop-color:#9A9A5C;stop-opacity:0"/>
</radialGradient>
<path fill="url(#SVGID_2_)" d="M145.2,177.198c9.513,32.474-13.732,67.868-51.92,79.053c-38.187,11.187-76.854-6.072-86.367-38.547
	c-9.513-32.476,13.734-67.868,51.92-79.054C97.021,127.465,135.688,144.723,145.2,177.198z"/>
<radialGradient id="SVGID_3_" cx="540.4248" cy="134.0479" r="66.8756" gradientTransform="matrix(0.9597 -0.2811 0.2249 0.7678 -451.459 232.8872)" gradientUnits="userSpaceOnUse">
	<stop  offset="0" style="stop-color:#FFFF5C;stop-opacity:0.7"/>
	<stop  offset="0.1668" style="stop-color:#D7D75C;stop-opacity:0.4962"/>
	<stop  offset="0.337" style="stop-color:#B6B65C;stop-opacity:0.2881"/>
	<stop  offset="0.4785" style="stop-color:#A1A15C;stop-opacity:0.1151"/>
	<stop  offset="0.5728" style="stop-color:#9A9A5C;stop-opacity:0"/>
</radialGradient>
<path fill="url(#SVGID_3_)" d="M166.474,163.637c9.513,32.476-13.732,67.869-51.92,79.055
	c-38.187,11.186-76.854-6.073-86.366-38.549c-9.513-32.475,13.732-67.868,51.919-79.054
	C118.294,113.904,156.962,131.162,166.474,163.637z"/>
<radialGradient id="SVGID_4_" cx="536.5166" cy="148.8975" r="66.8766" gradientTransform="matrix(0.9597 -0.2811 0.2249 0.7678 -450.6242 235.7375)" gradientUnits="userSpaceOnUse">
	<stop  offset="0" style="stop-color:#FFFF5C;stop-opacity:0.7"/>
	<stop  offset="0.1668" style="stop-color:#D7D75C;stop-opacity:0.4962"/>
	<stop  offset="0.337" style="stop-color:#B6B65C;stop-opacity:0.2881"/>
	<stop  offset="0.4785" style="stop-color:#A1A15C;stop-opacity:0.1151"/>
	<stop  offset="0.5728" style="stop-color:#9A9A5C;stop-opacity:0"/>
</radialGradient>
<path fill="url(#SVGID_4_)" d="M166.898,178.985c9.512,32.476-13.732,67.869-51.92,79.055
	c-38.187,11.186-76.854-6.073-86.368-38.549c-9.512-32.474,13.734-67.867,51.921-79.053
	C118.719,129.253,157.386,146.512,166.898,178.985z"/>
<path fill="none" stroke="#FFFFFF" stroke-width="3.1262" stroke-miterlimit="10" d="M272.606,7.94L272.606,7.94
	c-14.754,4.322-27.859,13.371-36.902,25.479c-9.348,12.517-13.896,27.263-13.153,42.646c0.208,4.309,0.842,8.603,1.884,12.76
	l0.047,0.188l0.072,0.184l0.027,0.069c3.058,7.872,14.946,12.229,24.381,14.499c12.681,3.051,28.906,4.281,45.686,3.467
	c14.65-0.71,28.537-2.885,40.16-6.289c9.973-2.921,26.884-9.401,28.162-19.992c0.508-3.874,0.672-7.804,0.485-11.678
	c-0.87-18.083-9.034-34.722-22.988-46.851c-13.915-12.096-31.93-18.259-50.722-17.353C283.911,5.354,278.146,6.318,272.606,7.94
	L272.606,7.94z"/>
<path fill="none" stroke="#FFFFFF" stroke-width="3.1262" stroke-miterlimit="10" d="M87.714,198.491
	c-10.438-35.634-6.764-58.634,1.117-75.293c5.778-12.214,16.518-23.395,25.366-25.986c7.552-2.212,20.922-6.128,109.857-32.179
	c102.996-30.169,188.188,14.04,194.761,36.474c6.57,22.434-41.307,105.622-144.302,135.791
	c-88.936,26.051-102.307,29.967-109.857,32.179c-8.849,2.592-23.652-0.103-35.107-7.269
	C113.925,252.434,98.151,234.125,87.714,198.491z"/>
<circle fill="none" stroke="#FFFFFF" stroke-width="3.1262" stroke-miterlimit="10" cx="384.283" cy="73.541" r="1.487"/>
<circle fill="none" stroke="#FFFFFF" stroke-width="3.1262" stroke-miterlimit="10" cx="404.894" cy="143.905" r="1.487"/>
<path fill="none" stroke="#FFFFFF" stroke-width="3.1262" stroke-miterlimit="10" d="M126.086,107.021c0,0,0.292,1.838,4.953,2.056
	c5.843,0.272,23.86-2.704,39.409-7.259c15.55-4.555,37.119-12.111,40.314-15.245c2.398-2.35,1.438-4.776,1.438-4.776
	S174.37,18.683,123.655,15.96c-39.543-2.125-29.67,19.105-29.67,19.105L126.086,107.021z"/>
<path fill="none" stroke="#FFFFFF" stroke-width="3.1262" stroke-miterlimit="10" d="M161.136,247.004c0,0-0.171-2.447,3.758-4.729
	c4.925-2.86,21.451-8.221,37-12.776c15.55-4.554,38.444-11.025,42.656-10.69c3.159,0.254,2.701,2.972,2.701,2.972
	s-12.771,56.767-55.366,81.781c-35.903,21.083-34.487,2.658-34.487,2.658L161.136,247.004z"/>
<path fill="#E2E2E1" d="M87.714,198.491c-10.438-35.634-6.764-58.634,1.117-75.293c5.778-12.214,16.518-23.395,25.366-25.986
	c7.552-2.212,20.922-6.128,109.857-32.179c102.996-30.169,188.188,14.04,194.761,36.474c6.57,22.434-41.307,105.622-144.302,135.791
	c-88.936,26.051-102.307,29.967-109.857,32.179c-8.849,2.592-23.652-0.103-35.107-7.269
	C113.925,252.434,98.151,234.125,87.714,198.491z"/>
<path fill="#231F20" d="M147.547,87.443c-20.856,6.109-29.169,8.544-33.35,9.769c-8.849,2.592-19.588,13.772-25.366,25.986
	c-7.881,16.659-11.555,39.659-1.117,75.293s26.211,53.942,41.835,63.717c11.455,7.166,26.259,9.86,35.107,7.269
	c4.181-1.225,12.492-3.659,33.35-9.769c-8.848,2.591-24.577,0.169-36.034-6.998c-15.623-9.774-31.396-28.082-41.834-63.717
	c-10.438-35.633-7.035-59.56,0.847-76.218C126.763,100.562,138.7,90.034,147.547,87.443z"/>
<path fill="#E7C81D" d="M144.284,237.25c0,0,3.237,21.82,10.614,33.133l0,0c3.646,0.196,6.992-0.097,9.758-0.906
	c1.263-0.371,2.907-0.853,5.16-1.513c-5.787-4.949-8.767-15.842-8.767-15.842l0,0C155.377,248.45,149.703,243.633,144.284,237.25
	L144.284,237.25z"/>
<path fill="#E7C81D" d="M122.181,256.923c-7.166-5.849-14.18-13.807-20.504-24.739l0,0c-4.688-36.407,13.446-65.292,13.446-65.292
	l0,0c1.055,6.82,2.692,14.172,5.015,22.102c0.12,0.409,0.242,0.815,0.363,1.221l0,0
	C120.501,190.214,107.877,217.491,122.181,256.923z"/>
<path fill="#E7C81D" d="M128.374,101.472c0,0-30.666,13.254-45.777,41.41l0,0c-1.703,9.707-1.888,21.107,0.316,34.759l0,0
	c6.075-33.651,35.219-57.922,35.219-57.922l0,0c0.859-2.446,1.817-4.759,2.853-6.943
	C122.888,108.749,125.463,104.907,128.374,101.472L128.374,101.472z"/>
<path fill="#C32126" d="M382.021,72.401c21.045,9.418,34.352,20.766,36.795,29.105c2.441,8.338-2.636,25.062-15.268,44.342l0,0
	c-8.545-4.006-17.474-16.79-22.318-33.332c-4.826-16.474-4.233-31.995,0.744-40.008L382.021,72.401z"/>
<circle fill="#B7B7B7" cx="384.283" cy="73.541" r="1.487"/>
<circle fill="#B7B7B7" cx="404.894" cy="143.905" r="1.487"/>
<circle fill="#B7B7B7" cx="381.43" cy="83.652" r="1.487"/>
<circle fill="#B7B7B7" cx="397.043" cy="136.022" r="1.487"/>
<circle fill="#B7B7B7" cx="391.256" cy="126.844" r="1.487"/>
<circle fill="#B7B7B7" cx="386.52" cy="115.964" r="1.487"/>
<circle fill="#B7B7B7" cx="383.717" cy="106.397" r="1.487"/>
<circle fill="#B7B7B7" cx="381.852" cy="94.737" r="1.487"/>
<path fill="#595A5A" d="M359.908,79.369c0.578,11.884-28.712,22.962-65.412,24.741c-36.707,1.781-66.928-6.408-67.504-18.295
	c-0.576-11.885,28.711-22.965,65.418-24.744C329.11,59.293,359.333,67.483,359.908,79.369z"/>
<g>
	<path opacity="0.1" fill="#ADD4DA" d="M359.866,80.562c-1.354,11.425-29.9,21.828-65.37,23.548
		c-34.264,1.663-62.878-5.362-67.002-15.974l-0.026-0.071c-0.981-3.913-1.592-7.975-1.794-12.149
		c-1.719-35.608,27.035-65.93,64.221-67.722c37.185-1.793,68.724,25.62,70.438,61.229C360.514,73.205,360.345,76.927,359.866,80.562
		L359.866,80.562z"/>
</g>
<path fill="none" stroke="#FFFFFF" stroke-width="3.1262" stroke-miterlimit="10" d="M342.261,117.884
	c0.951-0.552,1.657-1.484,1.924-2.964c0.413-2.298-0.152-5.323-2.229-6.909c-0.21-0.161-0.49-0.338-0.826-0.533l-0.008-0.005
	c-3.006-1.289-6.456-1.394-6.456-1.394c-3.463-0.104-8.216-0.898-15.846-6.51c0,0-6.004-5.371-10.507-5.504
	c0,0,9.08,19.992,27.402,21.785c0,0,1.06,0.071,1.808-0.016"/>
<path fill="none" stroke="#FFFFFF" stroke-width="3.1262" stroke-miterlimit="10" d="M308.162,93.867c0,0,1.761-0.989,6.953,2.393
	c3.5,2.284,4.163,2.953,5.188,3.643c0,0-2.84,6.298-2.503,8.206C317.8,108.108,309.043,100.301,308.162,93.867z"/>
<path fill="none" stroke="#FFFFFF" stroke-width="3.1262" stroke-miterlimit="10" d="M307.766,92.198c0,0-0.874,1.175-1.852,1.993
	c0,0,1.339,6.151-0.107,10.961c0,0-4.421-3.804-6.481-8.554c0,0-3.512,0.217-5.639-0.275l-0.173,1.611
	c0,0-1.094,23.296-0.135,30.376l2.099,8.309l1.694,13.78c0,0,7.012,0.398,17.798-2.762l-0.689-13.849l5.844,12.341
	c0,0,9.244-2.707,14.279-6.08l-5.833-12.677l-3.005-7.597c0,0-3.703-10.74-16.83-25.854L307.766,92.198z"/>
<path fill="none" stroke="#FFFFFF" stroke-width="3.1262" stroke-miterlimit="10" d="M326.154,120.212c0,0-6.657,3.846-14.514,6.146
	c-7.855,2.301-18.011,2.298-18.011,2.298s-0.64,0.592,0.328,3.897c0.969,3.305,1.426,3.643,1.426,3.643s10.153,0.005,18.01-2.296
	c7.855-2.302,15.596-6.708,15.596-6.708s0.432-1.101-0.935-4.098C326.688,120.1,326.154,120.212,326.154,120.212z"/>
<path fill="none" stroke="#FFFFFF" stroke-width="3.1262" stroke-miterlimit="10" d="M294.206,98.099
	c0,0-12.408,15.963-5.593,33.062c5.587,14.024,10.874,7.08,10.066,2.342c0,0,0.087-1.387,0.968-1.321
	c0.876,0.065,3.777-0.293,0.416-3.706c-3.362-3.412-5.904-4.888-5.057-19.345"/>
<path fill="none" stroke="#FFFFFF" stroke-width="3.1262" stroke-miterlimit="10" d="M295.272,114.596c0,0-4.574-2.675-7.824-2.728
	c0,0,1.969-8.801,6.727-13.875c0,0,2.3,0.524,1.639,7.41C295.155,112.288,295.272,114.596,295.272,114.596z"/>
<path fill="none" stroke="#FFFFFF" stroke-width="3.1262" stroke-miterlimit="10" d="M342.261,117.884
	c-0.337,0.215-0.941,0.441-0.941,0.441s-3.361,0.874-3.797-2.49c-0.434-3.362,3.551-5.82,3.872-5.953
	c0.318-0.13,0.334-0.334,0.334-0.334"/>
<path fill="none" stroke="#FFFFFF" stroke-width="3.1262" stroke-miterlimit="10" d="M322.334,66.326
	c3.423-0.72,6.802-3.796,6.802-3.796c-4.963-1.365-8.101-7.293-8.101-7.293c3.098-1.24,5.542-7.158,5.542-7.158
	c-5.104,1.737-8.059-1.433-8.059-1.433s6.922-11.264,4.912-18.126c0,0-7.133,3.964-15.392,3.438"/>
<path fill="none" stroke="#FFFFFF" stroke-width="3.1262" stroke-miterlimit="10" d="M314.353,42.483c0,0-6.65,1.447-11.316,0.597
	c0,0,1.896,1.865,4.475,2.952c0,0-18.877,6.597-41.633,5.367l6.148,8.178c0,0,3.982,4.941,7.393,5.938c0,0-3.114,2.485-5.284,1.548
	c0,0,3.578,8.681,7.833,12.061c0,0-4.797,1.205-8.301-1.132c0,0,0.128,1.634,1.589,3.098c0,0-8.302-0.563-15.479-5.425
	c0,0-1.714,2.037,1.478,6.479c3.19,4.442,8.952,4.176,8.952,4.176c5.246,4.896,14.935,6.626,19.764,7.578
	c0,0,0.823,0.203,1.201,0.337l-2.418,3.229c0,0-1.222-2.305-8.634-3.14c-8.982-1.012-16.467-7.106-16.467-7.106
	c-5.886-3.859-8.471-9.297-8.471-9.297c-17.497-31.053,16.615-49.83,33.341-50.694"/>
<path fill="none" stroke="#FFFFFF" stroke-width="3.1262" stroke-miterlimit="10" d="M259.776,75.665c0,0-5.467,4.368,0.073,8.397
	c3.471,2.525,9.287,3.253,10.356,2.257"/>
<path fill="none" stroke="#FFFFFF" stroke-width="3.1262" stroke-miterlimit="10" d="M308.039,31.959L308.039,31.959
	c0,0,0.961-12.055-5.812-19.838c0,0-12.788,17.795-24.28,21.83"/>
<path id="_x3C_Path_x3E__3_" fill="none" stroke="#FFFFFF" stroke-width="3.1262" stroke-linejoin="round" stroke-miterlimit="10" d="
	M307.783,85.096c0,0-2.593,2.759-1.23,6.314c0,0,0.08,0.521,0.753,1.294c16.632,20.143,29.65,39.327,8.174,45.617
	c-27.912,8.177-21.141-12.284-21.333-41.001c-0.01-1.447-0.102-2.246-0.102-2.246c-1.939-3.709-11.382-3.265-11.382-3.265
	L307.783,85.096z"/>
<path id="_x3C_Path_x3E__2_" fill="none" stroke="#FFFFFF" stroke-width="3.1262" stroke-miterlimit="10" d="M283.103,93.311
	L283.103,93.311c-14.312-0.696-26.648-8.86-30.358-21.529c-4.892-16.7,7.061-34.9,26.696-40.651
	c6.352-1.861,12.729-2.191,18.616-1.221l0.521,0.104c14.482,3.182,21.546,25.24,21.546,25.24c6.173,12.71-2.205,22.605-2.205,22.605
	l0,0c-4.262,5.423-10.273,9.907-17.507,12.653c0,0-9.606,3.403-17.082,2.813L283.103,93.311z"/>
<path id="bottom_hair_2_" fill="#6B1818" d="M322.334,66.326c3.423-0.72,6.802-3.796,6.802-3.796
	c-4.963-1.365-8.101-7.293-8.101-7.293c3.098-1.24,5.542-7.158,5.542-7.158c-5.104,1.737-8.059-1.433-8.059-1.433
	s6.922-11.264,4.912-18.126c0,0-7.133,3.964-15.392,3.438"/>
<path id="base_5_" fill="#F1D3C5" d="M307.783,85.096c0,0-2.593,2.759-1.23,6.314c0,0,0.08,0.521,0.753,1.294
	c16.632,20.143,29.65,39.327,8.174,45.617c-27.912,8.177-21.141-12.284-21.333-41.001c-0.01-1.447-0.102-2.246-0.102-2.246
	c-1.939-3.709-11.382-3.265-11.382-3.265L307.783,85.096z"/>
<path id="neck_2_" fill="#D5BAB2" d="M286.665,91.868c0,0,5.85,0.669,7.322,3.229l0.1,1.916c0,0,9.525,11.02,13.518,9.812
	c1.947-0.589-1.168-11.771-0.117-13.738c0,0-3.355-3.416,0.183-7.931c0,0-3.204,2.358-7.778,3.902
	C299.892,89.059,295.277,91.052,286.665,91.868"/>
<path id="base_2_" fill="#F1D3C5" d="M283.103,93.311L283.103,93.311c-14.312-0.696-26.648-8.86-30.358-21.529
	c-4.892-16.7,7.061-34.9,26.696-40.651c6.352-1.861,12.729-2.191,18.616-1.221l0.521,0.104c14.482,3.182,21.546,25.24,21.546,25.24
	c6.173,12.71-2.205,22.605-2.205,22.605h0.002c-4.264,5.423-10.275,9.907-17.509,12.653c0,0-9.606,3.403-17.082,2.813
	L283.103,93.311z"/>
<g>
	<path fill="#867D7D" d="M282.245,63.004c4.146-3.42,9.894-5.234,9.951-5.253l-0.324-1.039c-0.243,0.076-6.011,1.897-10.318,5.452
		L282.245,63.004z"/>
</g>
<g>
	<path fill="#867D7D" d="M313.557,52.263l0.593-0.913c-0.903-0.588-3.922,0.051-5.177,0.354l0.255,1.06
		C311.174,52.293,313.197,52.062,313.557,52.263z"/>
</g>
<g>
	
		<linearGradient id="SVGID_5_" gradientUnits="userSpaceOnUse" x1="-341.2788" y1="78.8745" x2="-341.2788" y2="69.4414" gradientTransform="matrix(-0.9597 0.2811 0.2811 0.9597 -34.915 82.7916)">
		<stop  offset="0.1394" style="stop-color:#0B80B9"/>
		<stop  offset="1" style="stop-color:#025073"/>
	</linearGradient>
	<path fill="url(#SVGID_5_)" d="M313.694,53.679c0,0-1.582-0.207-2.824,0.192c0,0,1.949,9.257,3.708,8.741
		C316.384,62.084,313.694,53.679,313.694,53.679z"/>
</g>
<g>
	<path fill="#F8B7B6" d="M311.095,70.593c0,0-4.768,3.027-12.916,3.782l1.931,3.437c0,0,5.477-1.951,6.67-1.953l0.258-1.304"/>
	<path fill="#F17171" d="M307.021,76.15l-0.24,0.001c-0.938,0.003-5.063,1.399-6.572,1.937l-0.234,0.083l-2.272-4.046l0.45-0.041
		c7.975-0.741,12.738-3.71,12.784-3.738l0.315,0.494c-0.048,0.03-4.741,2.962-12.598,3.784l1.59,2.83
		c1.008-0.354,4.902-1.702,6.29-1.871l0.216-1.085l0.573,0.114L307.021,76.15z"/>
</g>
<linearGradient id="SVGID_6_" gradientUnits="userSpaceOnUse" x1="-317.6167" y1="80.1846" x2="-317.6167" y2="69.4243" gradientTransform="matrix(-0.9597 0.2811 0.2811 0.9597 -34.915 82.7916)">
	<stop  offset="0.1394" style="stop-color:#0B80B9"/>
	<stop  offset="1" style="stop-color:#025073"/>
</linearGradient>
<path fill="url(#SVGID_6_)" d="M287.463,61.601c1.9-1.656,4.155-2.091,4.155-2.091s3.566,9.586,0.82,10.933
	C289.688,71.79,287.463,61.601,287.463,61.601z"/>
<path fill="#FFFFFF" d="M288.708,65.948c0,0,0.475,1.342,0.813,2.011l1.261-1.494L288.708,65.948z"/>
<path fill="#FFFFFF" d="M312.265,59.048c0,0,0.248,0.795,0.526,1.415l0.855-1.034L312.265,59.048z"/>
<path fill="#6B1818" d="M314.353,42.483c0,0-6.65,1.447-11.316,0.597c0,0,1.896,1.865,4.475,2.952c0,0-18.877,6.597-41.633,5.367
	l6.148,8.178c0,0,3.982,4.941,7.393,5.938c0,0-3.114,2.485-5.284,1.548c0,0,3.578,8.681,7.833,12.061c0,0-4.797,1.205-8.301-1.132
	c0,0,0.128,1.634,1.589,3.098c0,0-8.302-0.563-15.479-5.425c0,0-1.714,2.037,1.478,6.479c3.19,4.442,8.952,4.176,8.952,4.176
	c5.246,4.896,15.93,5.606,20.758,6.559c0,0,0.443,0.18,0.978,0.427l-3.188,4.159c0,0-1.222-2.305-8.634-3.14
	c-8.982-1.012-16.467-7.106-16.467-7.106c-5.886-3.859-8.471-9.297-8.471-9.297c-17.497-31.053,16.615-49.83,33.341-50.694"/>
<path fill="#F1D3C5" d="M259.776,75.665c0,0-5.467,4.368,0.073,8.397c3.471,2.525,9.287,3.253,10.356,2.257"/>
<path fill="#6B1818" d="M313.372,42.282c5.327-0.664,10.059-13.762,10.059-13.762s-7.133,3.964-15.392,3.438l0,0
	c0,0,0.961-12.055-5.812-19.838c0,0-12.788,17.795-24.28,21.83"/>
<path id="right_arm_12_" fill="#E9CBC0" d="M342.261,117.884c0.951-0.552,1.657-1.484,1.924-2.964
	c0.413-2.298-0.152-5.323-2.229-6.909c-0.21-0.161-0.49-0.338-0.826-0.533l-0.008-0.005c-3.006-1.289-6.456-1.394-6.456-1.394
	c-3.463-0.104-8.216-0.898-15.846-6.51c0,0-6.004-5.371-10.507-5.504c0,0,9.08,19.992,27.402,21.785c0,0,1.06,0.071,1.808-0.016"/>
<path id="right_shoulder_12_" fill="#2B347B" d="M308.162,93.867c0,0,1.761-0.989,6.953,2.393c3.5,2.284,4.163,2.953,5.188,3.643
	c0,0-2.84,6.298-2.503,8.206C317.8,108.108,309.043,100.301,308.162,93.867z"/>
<path id="tunic_1_" fill="#333A96" d="M307.766,92.198c0,0-0.874,1.175-1.852,1.993c0,0,1.339,6.151-0.107,10.961
	c0,0-4.421-3.804-6.481-8.554c0,0-3.512,0.217-5.639-0.275l-0.173,1.611c0,0-1.094,23.296-0.135,30.376l2.099,8.309l1.694,13.78
	c0,0,7.34,0.305,18.125-2.855l-1.017-13.755l5.844,12.341c0,0,9.244-2.707,14.279-6.08l-5.833-12.677l-3.005-7.597
	c0,0-3.703-10.74-16.83-25.854L307.766,92.198z"/>
<path id="belt_4_" fill="#753326" d="M326.154,120.212c0,0-6.657,3.846-14.514,6.146c-7.855,2.301-18.011,2.298-18.011,2.298
	s-0.64,0.592,0.328,3.897c0.969,3.305,1.426,3.643,1.426,3.643s10.153,0.005,18.01-2.296c7.855-2.302,15.596-6.708,15.596-6.708
	s0.432-1.101-0.935-4.098C326.688,120.1,326.154,120.212,326.154,120.212z"/>
<path fill="#E9B735" d="M321.122,131.805c0.24,0.817-0.228,1.673-1.043,1.912l-9.681,2.836c-0.816,0.239-1.673-0.229-1.912-1.046
	l-2.399-8.192c-0.239-0.817,0.229-1.674,1.047-1.913l9.679-2.835c0.815-0.239,1.671,0.229,1.91,1.047L321.122,131.805z"/>
<path fill="#80382F" d="M318.401,131.287c0.079,0.272,0.029,0.49-0.264,0.576l-7.272,2.13c-0.294,0.086-0.423-0.08-0.503-0.351
	l-1.733-5.919c-0.079-0.271-0.017-0.332,0.277-0.419l7.271-2.13c0.294-0.086,0.409-0.077,0.489,0.195L318.401,131.287z"/>
<circle fill="#561D15" cx="315.382" cy="128.958" r="1.025"/>
<path fill="#F7D032" d="M314.593,129.188c0.148,0.508,0.679,0.798,1.185,0.649l1.675-0.49c0.505-0.148,0.796-0.679,0.647-1.186
	c-0.147-0.505-0.68-0.796-1.186-0.648l-1.674,0.49C314.734,128.152,314.444,128.684,314.593,129.188
	C314.593,129.188,314.444,128.684,314.593,129.188z"/>
<path id="left_arm_13_" fill="#F1D3C5" d="M294.206,98.099c0,0-12.408,15.963-5.593,33.062c5.587,14.024,10.874,7.08,10.066,2.342
	c0,0,0.087-1.387,0.968-1.321c0.876,0.065,3.777-0.293,0.416-3.706c-3.362-3.412-5.904-4.888-5.057-19.345"/>
<path id="left_shoulder_11_" fill="#4551A2" d="M295.272,114.596c0,0-4.574-2.675-7.824-2.728c0,0,1.969-8.801,6.727-13.875
	c0,0,2.3,0.524,1.639,7.41C295.155,112.288,295.272,114.596,295.272,114.596z"/>
<path id="fingers" fill="#E9CBC0" d="M342.261,117.884c-0.337,0.215-0.941,0.441-0.941,0.441s-3.361,0.874-3.797-2.49
	c-0.434-3.362,3.551-5.82,3.872-5.953c0.318-0.13,0.334-0.334,0.334-0.334"/>
<path id="thumb" fill="#E9CBC0" d="M337.706,107.667c0,0,0.031,0.486,0.257,0.725c0.222,0.238,4.96,1.414,4.45,4.428
	c-0.463,2.755-5.577,1.16-6.438,0.767"/>
<path fill="#E2E2E1" d="M259.356,102.589c10.26,1.55,22.303,2.145,35.14,1.521c23.421-1.135,43.822-6.058,55.371-12.559
	l-0.001-0.003l10.858,53.894l-74.333,23.867l-27.033-66.72L259.356,102.589z"/>
<path fill="#ADD3D9" d="M273.483,10.941c5.221-1.529,10.718-2.473,16.411-2.747c37.185-1.793,68.724,25.62,70.438,61.229
	c0.181,3.782,0.012,7.504-0.467,11.14c-0.787,6.639-10.76,12.937-25.938,17.382c-10.938,3.204-24.577,5.446-39.433,6.166
	c-34.264,1.663-62.878-5.362-67.002-15.974l-0.026-0.071c-0.981-3.913-1.592-7.975-1.794-12.149
	C224.218,45.761,244.618,19.397,273.483,10.941 M272.606,7.94L272.606,7.94c-14.754,4.322-27.859,13.371-36.902,25.479
	c-9.348,12.517-13.896,27.263-13.153,42.646c0.208,4.309,0.842,8.603,1.884,12.76l0.047,0.188l0.072,0.184l0.027,0.069
	c3.058,7.872,14.946,12.229,24.381,14.499c12.681,3.051,28.906,4.281,45.686,3.467c14.65-0.71,28.537-2.885,40.16-6.289
	c9.973-2.921,26.884-9.401,28.162-19.992c0.508-3.874,0.672-7.804,0.485-11.678c-0.87-18.083-9.034-34.722-22.988-46.851
	c-13.915-12.096-31.93-18.259-50.722-17.353C283.911,5.354,278.146,6.318,272.606,7.94L272.606,7.94z"/>
<path fill="#C32126" d="M126.086,107.021c0,0,0.292,1.838,4.953,2.056c5.843,0.272,23.86-2.704,39.409-7.259
	c15.55-4.555,37.119-12.111,40.314-15.245c2.398-2.35,1.438-4.776,1.438-4.776S174.37,18.683,123.655,15.96
	c-39.543-2.125-29.67,19.105-29.67,19.105L126.086,107.021z"/>
<path fill="#C32126" d="M161.136,247.004c0,0-0.171-2.447,3.758-4.729c4.925-2.86,21.451-8.221,37-12.776
	c15.55-4.554,38.444-11.025,42.656-10.69c3.159,0.254,2.701,2.972,2.701,2.972s-12.771,56.767-55.366,81.781
	c-35.903,21.083-34.487,2.658-34.487,2.658L161.136,247.004z"/>
<circle fill="#B7B7B7" cx="167.311" cy="244.215" r="1.487"/>
<circle fill="#B7B7B7" cx="176.675" cy="240.439" r="1.487"/>
<circle fill="#B7B7B7" cx="186.398" cy="237.075" r="1.487"/>
<circle fill="#B7B7B7" cx="196.959" cy="233.981" r="1.487"/>
<circle fill="#B7B7B7" cx="207.996" cy="230.749" r="1.487"/>
<circle fill="#B7B7B7" cx="218.365" cy="227.711" r="1.487"/>
<circle fill="#B7B7B7" cx="229.542" cy="224.954" r="1.486"/>
<circle fill="#B7B7B7" cx="239.958" cy="222.425" r="1.487"/>
<circle fill="#B7B7B7" cx="132.529" cy="105.231" r="1.487"/>
<circle fill="#B7B7B7" cx="142.671" cy="104.109" r="1.487"/>
<circle fill="#B7B7B7" cx="152.672" cy="101.694" r="1.487"/>
<circle fill="#B7B7B7" cx="163.452" cy="99.352" r="1.486"/>
<circle fill="#B7B7B7" cx="174.489" cy="96.118" r="1.487"/>
<circle fill="#B7B7B7" cx="184.639" cy="92.331" r="1.487"/>
<circle fill="#B7B7B7" cx="195.537" cy="88.624" r="1.487"/>
<circle fill="#B7B7B7" cx="205.451" cy="84.382" r="1.487"/>
</svg>
