<?xml version="1.0" encoding="utf-8"?>
<!-- Generator: Adobe Illustrator 16.0.4, SVG Export Plug-In . SVG Version: 6.00 Build 0)  -->
<!DOCTYPE svg PUBLIC "-//W3C//DTD SVG 1.1//EN" "http://www.w3.org/Graphics/SVG/1.1/DTD/svg11.dtd">
<svg version="1.1" id="Layer_1" xmlns="http://www.w3.org/2000/svg" xmlns:xlink="http://www.w3.org/1999/xlink" x="0px" y="0px"
	 width="177px" height="269px" viewBox="0 0 177 269" enable-background="new 0 0 177 269" xml:space="preserve">
<ellipse id="shadow_34_" fill-opacity="0.5" cx="92.261" cy="258.411" rx="42.024" ry="9.352"/>
<path id="shadow_helmet_8_" fill="none" stroke="#000000" stroke-width="6" stroke-miterlimit="10" d="M141.15,72.885
	c0,0,4.922,33.727,6.721,41.904l-20.191,1.523"/>
<path id="body_32_" fill="none" stroke="#000000" stroke-width="6" stroke-miterlimit="10" d="M107.418,126.55
	c0,0-5.15,3.028-4.664,9.021c0,0-0.109,0.821,0.566,2.292c16.248,37.877,27.454,72.7-7.855,72.7
	c-45.895,0-26.564-27.978-14.119-71.548c0.628-2.195,0.842-3.444,0.842-3.444c-1.292-6.479-15.787-9.994-15.787-9.994l0,0
	c-21.362-7.399-36.42-25.234-36.42-46.062c0-27.458,26.172-49.716,58.457-49.716c10.443,0,20.246,2.329,28.732,6.408l0.74,0.391
	c20.52,11.241,21.43,47.777,21.43,47.777c3.709,21.981-13.363,33.251-13.363,33.251v0.001c-8.857,6.318-19.951,10.443-32.125,11.394
	"/>
<path id="legs_13_" fill="none" stroke="#000000" stroke-width="6" stroke-miterlimit="10" d="M118.706,187.858
	c0,0,5.813,30.193-2.125,61.47c0,0,6.255,5.414,6.614,7.098h-19.367c0,0,1.39-25.589-8.179-35.97c0,0-14.196,10.588-17.202,32.482
	l3.74,5.533h-19.74l3.489-6.616c0,0-0.574-49.264,0.675-61.924"/>
<path id="right_arm_14_" fill="none" stroke="#000000" stroke-width="6" stroke-miterlimit="10" d="M103.92,139.265
	c0,0,22.359,13.845,25.32,51.209c1.287,16.252-13.795,10.551-12.914,1.031"/>
<path id="right_hand_11_" fill="none" stroke="#000000" stroke-width="6" stroke-miterlimit="10" d="M115.712,171.151
	c0,0,6.853-1.639,11.092,0c0,0,9.237,28.524-1.552,30.562c-8.553,1.615-10.547-8.961-10.547-8.961"/>
<polygon id="sword_hilt_7_" fill="none" stroke="#000000" stroke-width="6" stroke-miterlimit="10" points="132.389,183.955 
	127.463,182.05 117.363,208.101 122.182,209.679 "/>
<polygon id="sword_top_7_" fill="none" stroke="#000000" stroke-width="6" stroke-miterlimit="10" points="124.359,197.065 
	156.807,236.139 171.735,238.044 166.494,222.479 126.205,193.025 124.359,194.587 "/>
<path id="hair_8_" fill="none" stroke="#000000" stroke-width="6" stroke-miterlimit="10" d="M103.92,27.918
	c-6.426,9.712-85.509,6.68-72.787,61.461c0,0,1.263,7.547,8.298,17.245c0,0,8.893,13.555,22.004,19.166
	c9.161,3.922,10.817,8.443,10.817,8.443l5.955-3.678c-0.512-0.367-1.668-1.043-1.668-1.043
	c-6.889-3.582-20.791-10.497-26.565-20.239c0,0-8.84-2.152-11.703-10.295c-2.864-8.143,0.636-10.468,0.636-10.468
	c8.712,10.545,21.033,15.082,21.033,15.082c-1.562-2.867-1.031-5.396-1.031-5.396c4.268,5.093,12.067,5.396,12.067,5.396
	c-4.945-7.005-6.512-21.737-6.512-21.737c2.868,2.386,8.688,0,8.688,0c-4.723-3.021-8.56-12.27-8.56-12.27l-5.685-15.11
	C92.821,66.43,124.33,64.814,124.33,64.814c-3.422-2.792-5.465-6.457-5.465-6.457c6.689,3.358,17.4,4.115,17.4,4.115"/>
<path id="bottom_armor_9_" fill="none" stroke="#000000" stroke-width="6" stroke-miterlimit="10" d="M66.521,191.286
	c-4.074,9.446-5.383,28.245-5.383,28.245c4.307,2.275,23.061,3.634,23.061,3.634s1.599-17.828,12.616-17.874
	c7.104-0.03,9.903,16.17,9.903,16.17c9.514,0.31,17.915-3.067,17.915-3.067c1.447-5.481-5.604-28.61-5.604-28.61L66.521,191.286z"/>
<path id="feather_7_" fill="none" stroke="#000000" stroke-width="6" stroke-miterlimit="10" d="M60.765,28.758
	c0,0,4.185-31.24-29.019-24.043c-33.201,7.198-16.027,36.8-16.027,36.8s6.869,19.301-6.706,10.469c0,0-2.603-2.84-3.925-9.323
	c0,0-3.6,10.141,2.289,15.865c5.888,5.725,19.953,4.906,16.684-11.776c-3.272-16.681,2.682-19.79,5.92-18.972
	s12.549,6.537,23.799,3.934"/>
<polyline id="helmet_top_7_" fill="none" stroke="#000000" stroke-width="6" stroke-miterlimit="10" points="66.696,30.246 
	63.084,27.777 51.863,32.521 51.863,37.63 "/>
<path id="helmet_24_" fill="none" stroke="#000000" stroke-width="6" stroke-miterlimit="10" d="M103.908,26.022
	c0,0-52.045-6.915-71.545,34.577c-4.615,9.822-10.103,59.579-10.103,59.579s28.622-2.624,36.472,0c0,0-2.091-25.378,4.352-46.214"/>
<path id="helmet_23_" fill="none" stroke="#000000" stroke-width="6" stroke-miterlimit="10" d="M143.055,43.667
	c0,0-19.799-15.417-28.386-27.086c0,0-18.739,21.009-75.341,46.37l-10.689-3.607v11.447l-7.851,11.613l13.085,2.348l6.87,6.58
	l4.251-9.253c0,0,70.166-36.474,95.732-11.45c0,0,1.605,4.906-0.859,10.795c0,0,4.945-4.768,5.764-8.856
	C146.448,68.479,145.345,58.06,143.055,43.667z"/>
<path id="body_armor_13_" fill="none" stroke="#000000" stroke-width="6" stroke-miterlimit="10" d="M66.521,191.286
	c31.441,4.021,52.509-1.503,52.509-1.503s0.019-15.339-0.81-20.613c-0.826-5.273-14.301-31.746-14.301-31.746
	s-6.277,2.895-8.242,2.999c-1.965,0.104-14.695-2.999-14.695-2.999l-3.645,3.001L66.521,191.286z"/>
<path id="right_shoulder_9_" fill="none" stroke="#000000" stroke-width="6" stroke-miterlimit="10" d="M106.383,139.093
	c0,0,1.895-0.071,3.026,0.3c5.804,1.895,13.555,10.966,13.481,15.318c-0.062,3.591-12.623,2.2-14.164-0.066
	C106.965,152.057,103.062,143.411,106.383,139.093z"/>
<path id="right_hair_8_" fill="none" stroke="#000000" stroke-width="6" stroke-miterlimit="10" d="M137.043,67.635
	c2.109,9.244,2.297,16.739,2.297,16.739c1.184,7.009,0.254,12.933-1.564,17.744h0.344c5.502,0.429,11.642-2.729,11.642-2.729
	c-6.911-4.269-9.034-14.637-9.034-14.637c5.242-0.503,11.568-8.382,11.568-8.382c-8.5,0.368-11.568-5.741-11.568-5.741"/>
<path id="left_arm_10_" fill="none" stroke="#000000" stroke-width="6" stroke-miterlimit="10" d="M80.982,139.265
	c0,0-25.869,18.666-23.135,47.584c2.241,23.714,13.328,15.544,14.205,8.01c0,0,0.748-2.061,2.05-1.571
	c1.3,0.486,5.852,1.23,2.276-5.429c-3.578-6.656-6.775-10.018,0.921-31.534"/>
<path id="left_hand_7_" fill="none" stroke="#000000" stroke-width="6" stroke-miterlimit="10" d="M74.064,171.755
	c0,0-12.055-1.758-16.42,0.726c0,0,0.012,0.515-0.186,1.375c-1.387,6.069-2.777,28.077,7.506,29.751
	c6.072,0.99,8.066-7.962,8.066-7.962s-0.104-1.138,1.033-0.932c1.137,0.207,7.586,0.525,3.206-7.182
	C72.89,179.825,73.031,176.203,74.064,171.755z"/>
<path id="left_shoulder_8_" fill="none" stroke="#000000" stroke-width="6" stroke-miterlimit="10" d="M75.926,139.265
	c0,0-19.813,2.382-19.854,19.047c-0.016,5.792,26.115,1.241,26.989-2.585C83.631,153.236,80.684,142.242,75.926,139.265z"/>
<g id="shield_12_">
	<g>
		<defs>
			<path id="SVGID_1_" d="M44.074,207.603c0,0,8.533,9.933,22.403,10.383c6.737,0.217,11.892,0.113,24.613-7.485
				c0,0-6.212-15.218-3.714-28.229l-0.027-0.067c-10.369-5.48-17.009-20.449-17.009-20.449
				c-12.831,7.35-15.999,12.111-19.901,18.554c-8.033,13.262-6.395,27.229-6.395,27.229L44.074,207.603z"/>
		</defs>
		<clipPath id="SVGID_2_">
			<use xlink:href="#SVGID_1_"  overflow="visible"/>
		</clipPath>
		
			<rect x="41.977" y="164.429" clip-path="url(#SVGID_2_)" fill="none" stroke="#000000" stroke-width="6" stroke-miterlimit="10" width="48" height="54"/>
		<path clip-path="url(#SVGID_2_)" fill="none" stroke="#000000" stroke-width="6" stroke-miterlimit="10" d="M54.793,169.257
			c-5.709,3.339-9.656,9.234-11.421,16.065c-1.767,6.829-1.351,14.594,1.664,21.678c1.507,3.541,3.175,6.575,5.525,9.032
			c1.178,1.229,2.415,2.312,3.415,3.241v-0.845h24v0.755c0-0.494,1.645-1.023,2.244-1.589c1.199-1.13,2.46-2.393,3.422-3.765
			c1.92-2.745,3.438-5.927,4.321-9.343c1.766-6.83,1.394-14.595-1.621-21.678C80.313,168.645,66.212,162.576,54.793,169.257z"/>
		<path clip-path="url(#SVGID_2_)" fill="none" stroke="#000000" stroke-width="6" stroke-miterlimit="10" d="M54.871,169.441
			c-5.666,3.316-9.586,9.169-11.34,15.951c-1.752,6.778-1.34,14.489,1.654,21.521c1.496,3.515,3.109,6.528,5.444,8.966
			c1.168,1.221,2.347,2.297,3.347,3.219v-0.669h24v0.58c0-0.491,1.588-1.018,2.182-1.579c1.193-1.12,2.423-2.375,3.377-3.735
			c1.907-2.726,3.402-5.884,4.278-9.276c1.753-6.779,1.379-14.491-1.616-21.521C80.213,168.833,66.209,162.81,54.871,169.441z"/>
		<path clip-path="url(#SVGID_2_)" fill="none" stroke="#000000" stroke-width="6" stroke-miterlimit="10" d="M54.951,169.626
			c-5.627,3.292-9.518,9.102-11.258,15.834c-1.74,6.73-1.33,14.386,1.641,21.365c1.486,3.492,3.044,6.481,5.363,8.902
			c1.159,1.21,2.279,2.278,3.279,3.195v-0.494h24v0.405c0-0.487,1.531-1.011,2.123-1.568c1.182-1.111,2.382-2.357,3.328-3.709
			c1.894-2.704,3.366-5.841,4.235-9.206c1.742-6.731,1.365-14.386-1.607-21.368C80.114,169.023,66.205,163.044,54.951,169.626z"/>
		<path clip-path="url(#SVGID_2_)" fill="none" stroke="#000000" stroke-width="6" stroke-miterlimit="10" d="M55.029,169.812
			c-5.585,3.267-9.446,9.035-11.175,15.716c-1.728,6.684-1.321,14.281,1.629,21.21c1.476,3.465,2.979,6.436,5.28,8.837
			c1.15,1.202,2.213,2.262,3.213,3.171v-0.317h24v0.231c0-0.484,1.475-1.005,2.062-1.558c1.174-1.103,2.341-2.341,3.282-3.682
			c1.879-2.687,3.329-5.8,4.193-9.14c1.727-6.685,1.347-14.281-1.601-21.209C80.013,169.213,66.201,163.277,55.029,169.812z"/>
		<path clip-path="url(#SVGID_2_)" fill="none" stroke="#000000" stroke-width="6" stroke-miterlimit="10" d="M55.107,169.997
			c-5.544,3.243-9.377,8.967-11.092,15.6c-1.714,6.635-1.311,14.177,1.617,21.054c1.465,3.439,2.913,6.387,5.198,8.772
			c1.142,1.192,2.146,2.245,3.146,3.147v-0.142h24v0.055c0-0.481,1.418-0.995,2-1.546c1.166-1.095,2.304-2.32,3.236-3.655
			c1.865-2.665,3.294-5.754,4.151-9.07c1.715-6.634,1.333-14.175-1.594-21.054C79.913,169.401,66.197,163.509,55.107,169.997z"/>
		<path clip-path="url(#SVGID_2_)" fill="none" stroke="#000000" stroke-width="6" stroke-miterlimit="10" d="M55.188,170.182
			c-5.504,3.22-9.308,8.901-11.01,15.485c-1.703,6.584-1.302,14.069,1.604,20.896c1.452,3.414,2.848,6.34,5.115,8.707
			c1.134,1.184,2.079,2.229,3.079,3.125v0.034h23v0.565c0-0.221,0.791-0.448,1.108-0.686c0.633-0.479,1.308-0.988,1.886-1.532
			c1.158-1.089,2.236-2.308,3.161-3.632c1.853-2.644,3.247-5.711,4.095-9.003c1.703-6.583,1.311-14.07-1.595-20.894
			C79.818,169.591,66.193,163.743,55.188,170.182z"/>
		<path clip-path="url(#SVGID_2_)" fill="none" stroke="#000000" stroke-width="6" stroke-miterlimit="10" d="M55.266,170.367
			c-5.462,3.195-9.237,8.835-10.927,15.37c-1.688,6.532-1.293,13.964,1.593,20.739c1.441,3.389,3.369,6.291,5.619,8.641
			c1.127,1.177,1.273,2.213,2.542,3.103c0.632,0.444,0.884,0.853,0.884,1.222v-1.013h20v1.014c12-6.39,15.694-22.556,9.925-36.109
			C79.133,169.781,66.19,163.976,55.266,170.367z"/>
		<path clip-path="url(#SVGID_2_)" fill="none" stroke="#000000" stroke-width="6" stroke-miterlimit="10" d="M55.346,170.553
			c-5.422,3.17-9.17,8.769-10.846,15.254c-1.677,6.483-1.281,13.858,1.58,20.582c1.432,3.363,3.345,6.244,5.578,8.576
			c1.117,1.166,1.222,2.196,2.481,3.078c0.628,0.442,0.837,0.846,0.837,1.214v-0.828h20v0.828c12-6.343,15.54-22.388,9.814-35.836
			C79.066,169.971,66.188,164.209,55.346,170.553z"/>
		<path clip-path="url(#SVGID_2_)" fill="none" stroke="#000000" stroke-width="6" stroke-miterlimit="10" d="M55.424,170.737
			c-5.38,3.147-9.099,8.701-10.762,15.139c-1.664,6.435-1.273,13.752,1.567,20.427c1.421,3.336,3.319,6.195,5.535,8.512
			c1.109,1.155,1.173,2.176,2.422,3.054c0.623,0.437,0.79,0.838,0.79,1.203v-0.643h20v0.644c12-6.295,15.388-22.217,9.706-35.564
			C79,170.16,66.184,164.442,55.424,170.737z"/>
		<path clip-path="url(#SVGID_2_)" fill="none" stroke="#000000" stroke-width="6" stroke-miterlimit="10" d="M55.503,170.922
			c-5.339,3.123-9.029,8.635-10.681,15.021c-1.651,6.386-1.263,13.647,1.557,20.271c1.41,3.312,3.294,6.15,5.493,8.446
			c1.1,1.147,1.624,2.162,2.862,3.032c0.618,0.434,0.242,0.833,1.242,1.194v-0.458h19v0.458c11-6.247,15.234-22.047,9.598-35.292
			C78.934,170.351,66.18,164.677,55.503,170.922z"/>
		<path clip-path="url(#SVGID_2_)" fill="none" stroke="#000000" stroke-width="6" stroke-miterlimit="10" d="M55.58,171.107
			c-5.297,3.1-8.959,8.568-10.597,14.905c-1.638,6.339-1.253,13.543,1.544,20.113c1.399,3.288,3.27,6.103,5.451,8.382
			c1.092,1.14,1.573,2.146,2.801,3.009c0.614,0.431,0.197,0.825,1.197,1.186v-0.273h18v0.273c12-6.198,15.581-21.876,9.987-35.02
			C78.367,170.539,66.176,164.91,55.58,171.107z"/>
		<path clip-path="url(#SVGID_2_)" fill="none" stroke="#000000" stroke-width="6" stroke-miterlimit="10" d="M55.66,171.293
			c-10.513,6.15-14.726,21.707-9.175,34.746c2.777,6.521,6.491,11.177,12.491,13.437v-1.047h15v0.088
			c12-6.15,15.428-21.706,9.877-34.747C78.301,170.729,66.173,165.145,55.66,171.293z"/>
		<path clip-path="url(#SVGID_2_)" fill="none" stroke="#000000" stroke-width="6" stroke-miterlimit="10" d="M55.738,171.479
			c-10.43,6.101-14.637,21.536-9.129,34.474c2.753,6.47,6.367,11.09,12.367,13.329v-0.853h12v0.909c1-0.288,2.694-0.624,3.346-1.006
			c10.431-6.102,15.102-21.538,9.593-34.475C78.406,170.918,66.17,165.377,55.738,171.479z"/>
		<path clip-path="url(#SVGID_2_)" fill="none" stroke="#000000" stroke-width="6" stroke-miterlimit="10" d="M55.817,171.663
			c-10.348,6.054-14.547,21.367-9.083,34.201c2.732,6.419,6.242,11.002,12.242,13.225v-0.66h12v0.719c1-0.29,2.65-0.622,3.299-1.001
			c10.347-6.053,14.972-21.366,9.507-34.202C78.318,171.107,66.164,165.608,55.817,171.663z"/>
		<path clip-path="url(#SVGID_2_)" fill="none" stroke="#000000" stroke-width="6" stroke-miterlimit="10" d="M55.896,171.849
			c-10.266,6.004-14.459,21.196-9.039,33.929c2.711,6.367,6.119,10.914,12.119,13.12v-0.469h12v0.525
			c1-0.287,2.608-0.618,3.251-0.993c10.266-6.004,14.841-21.195,9.421-33.931C78.228,171.298,66.162,165.842,55.896,171.849z"/>
		<path clip-path="url(#SVGID_2_)" fill="none" stroke="#000000" stroke-width="6" stroke-miterlimit="10" d="M55.976,172.031
			c-10.183,5.958-14.37,21.027-8.992,33.66c2.687,6.316,5.993,10.826,11.993,13.014v-0.276h11v1.056c1-0.396,3.42-0.964,4.693-1.709
			c10.183-5.955,14.469-21.025,9.09-33.656C78.383,171.486,66.157,166.075,55.976,172.031z"/>
		<path clip-path="url(#SVGID_2_)" fill="none" stroke="#000000" stroke-width="6" stroke-miterlimit="10" d="M56.054,172.218
			c-10.1,5.909-14.28,20.857-8.947,33.386c2.667,6.265,6.87,10.738,11.87,12.907v-0.082h11v0.858c1-0.395,3.376-0.957,4.639-1.696
			c10.1-5.908,14.34-20.854,9.008-33.386C78.289,171.676,66.154,166.309,56.054,172.218z"/>
		<path clip-path="url(#SVGID_2_)" fill="none" stroke="#000000" stroke-width="6" stroke-miterlimit="10" d="M56.133,172.402
			c-10.018,5.861-13.851,20.688-8.561,33.114c2.645,6.214,6.803,10.65,11.818,12.803c1.254,0.536,2.586,0.933,3.586,1.176v-1.066h7
			v0.659c1-0.391,3.331-0.95,4.582-1.683c10.02-5.86,14.218-20.686,8.927-33.112C78.195,171.866,66.15,166.542,56.133,172.402z"/>
		<path clip-path="url(#SVGID_2_)" fill="none" stroke="#000000" stroke-width="6" stroke-miterlimit="10" d="M56.211,172.59
			c-9.936,5.812-13.736,20.514-8.49,32.84c2.625,6.161,6.736,10.562,11.71,12.696c1.243,0.534,2.546,0.926,3.546,1.168v-0.865h3
			v1.135c3-0.13,6.008-0.889,8.491-2.342c9.938-5.812,14.108-20.517,8.861-32.841C78.084,172.056,66.148,166.776,56.211,172.59z"/>
		<path clip-path="url(#SVGID_2_)" fill="none" stroke="#000000" stroke-width="6" stroke-miterlimit="10" d="M56.29,172.773
			c-9.853,5.765-13.622,20.346-8.418,32.567c2.601,6.112,6.953,10.476,11.887,12.594c2.466,1.058,5.079,1.555,7.689,1.425
			c2.61-0.129,5.222-0.882,7.685-2.322c9.854-5.767,13.623-20.346,8.42-32.567C78.35,172.246,66.144,167.01,56.29,172.773z"/>
		<path clip-path="url(#SVGID_2_)" fill="none" stroke="#000000" stroke-width="6" stroke-miterlimit="10" d="M56.369,172.959
			c-9.771,5.715-13.51,20.174-8.35,32.295c2.58,6.061,6.896,10.39,11.789,12.487c2.445,1.049,5.035,1.541,7.625,1.414
			c2.59-0.129,5.178-0.875,7.619-2.305c9.771-5.715,13.51-20.175,8.351-32.296C78.244,172.435,66.141,167.243,56.369,172.959z"/>
		<path clip-path="url(#SVGID_2_)" fill="none" stroke="#000000" stroke-width="6" stroke-miterlimit="10" d="M56.449,173.145
			c-9.691,5.667-13.396,20.005-8.279,32.021c2.558,6.01,6.837,10.302,11.688,12.383c2.425,1.041,4.993,1.527,7.562,1.4
			c2.566-0.126,5.133-0.866,7.555-2.283c9.689-5.668,13.396-20.006,8.279-32.022C78.139,172.625,66.137,167.477,56.449,173.145z"/>
		<path clip-path="url(#SVGID_2_)" fill="none" stroke="#000000" stroke-width="6" stroke-miterlimit="10" d="M56.527,173.33
			c-9.605,5.618-13.281,19.834-8.209,31.749c2.537,5.957,6.779,10.213,11.59,12.277c4.809,2.063,10.186,1.933,14.988-0.875
			c9.605-5.62,13.28-19.837,8.209-31.752C78.031,172.814,66.133,167.709,56.527,173.33z"/>
		<path clip-path="url(#SVGID_2_)" fill="none" stroke="#000000" stroke-width="6" stroke-miterlimit="10" d="M56.606,173.514
			c-9.524,5.571-13.167,19.664-8.138,31.479c2.514,5.905,6.721,10.124,11.488,12.17c4.769,2.045,10.1,1.918,14.861-0.868
			c9.523-5.571,13.166-19.664,8.137-31.478C77.926,173.003,66.129,167.942,56.606,173.514z"/>
		<path clip-path="url(#SVGID_2_)" fill="none" stroke="#000000" stroke-width="6" stroke-miterlimit="10" d="M56.685,173.698
			c-9.441,5.523-13.054,19.494-8.067,31.206c2.492,5.856,6.663,10.037,11.389,12.066c4.729,2.028,10.013,1.901,14.732-0.859
			c9.441-5.524,13.054-19.495,8.068-31.206C77.82,173.193,66.125,168.176,56.685,173.698z"/>
		<path clip-path="url(#SVGID_2_)" fill="none" stroke="#000000" stroke-width="6" stroke-miterlimit="10" d="M56.764,173.885
			c-9.359,5.474-12.939,19.324-7.998,30.934c2.473,5.805,6.605,9.949,11.291,11.959c4.687,2.011,9.924,1.886,14.604-0.852
			c9.358-5.476,12.938-19.325,7.997-30.935C77.715,173.383,66.123,168.41,56.764,173.885z"/>
		<path clip-path="url(#SVGID_2_)" fill="none" stroke="#000000" stroke-width="6" stroke-miterlimit="10" d="M56.842,174.068
			c-9.276,5.426-12.824,19.154-7.926,30.662c2.449,5.754,6.546,9.864,11.19,11.854c4.646,1.992,9.837,1.869,14.475-0.845
			c9.276-5.426,12.825-19.153,7.926-30.66C77.609,173.571,66.118,168.643,56.842,174.068z"/>
		<path clip-path="url(#SVGID_2_)" fill="none" stroke="#000000" stroke-width="6" stroke-miterlimit="10" d="M56.92,174.254
			c-9.193,5.38-12.711,18.983-7.855,30.39c2.428,5.702,6.489,9.774,11.093,11.75c4.603,1.973,9.749,1.851,14.346-0.838
			c9.193-5.38,12.71-18.983,7.855-30.39C77.504,173.759,66.114,168.876,56.92,174.254z"/>
		<path clip-path="url(#SVGID_2_)" fill="none" stroke="#000000" stroke-width="6" stroke-miterlimit="10" d="M57,174.441
			c-9.112,5.328-12.598,18.812-7.785,30.114c2.405,5.649,6.43,9.687,10.992,11.644c4.562,1.959,9.661,1.836,14.217-0.828
			c9.111-5.333,12.597-18.814,7.786-30.118C77.396,173.951,66.111,169.109,57,174.441z"/>
		<path clip-path="url(#SVGID_2_)" fill="none" stroke="#000000" stroke-width="6" stroke-miterlimit="10" d="M57.078,174.623
			c-9.028,5.283-12.482,18.645-7.715,29.846c2.383,5.601,6.372,9.599,10.893,11.538c4.521,1.94,9.575,1.819,14.09-0.821
			c9.028-5.283,12.482-18.645,7.715-29.846C77.292,174.14,66.107,169.343,57.078,174.623z"/>
		<path clip-path="url(#SVGID_2_)" fill="none" stroke="#000000" stroke-width="6" stroke-miterlimit="10" d="M57.158,174.809
			c-8.947,5.236-12.371,18.475-7.646,29.573c2.362,5.548,6.314,9.511,10.793,11.434c4.479,1.922,9.487,1.802,13.961-0.814
			c8.946-5.235,12.369-18.474,7.646-29.572C77.187,174.331,66.104,169.575,57.158,174.809z"/>
		<path clip-path="url(#SVGID_2_)" fill="none" stroke="#000000" stroke-width="6" stroke-miterlimit="10" d="M57.235,174.994
			c-8.863,5.186-12.255,18.304-7.573,29.299c2.34,5.498,6.256,9.427,10.693,11.328c4.438,1.904,9.4,1.785,13.832-0.807
			c8.865-5.186,12.255-18.304,7.574-29.299C77.08,174.52,66.1,169.809,57.235,174.994z"/>
		<path clip-path="url(#SVGID_2_)" fill="none" stroke="#000000" stroke-width="6" stroke-miterlimit="10" d="M57.314,175.18
			c-8.781,5.138-12.141,18.133-7.504,29.026c2.319,5.448,6.199,9.338,10.596,11.222c4.396,1.889,9.312,1.771,13.702-0.797
			c8.781-5.139,12.142-18.135,7.503-29.026C76.975,174.709,66.097,170.043,57.314,175.18z"/>
		<path clip-path="url(#SVGID_2_)" fill="none" stroke="#000000" stroke-width="6" stroke-miterlimit="10" d="M57.393,175.365
			c-8.698,5.088-12.026,17.962-7.433,28.753c4.595,10.794,15.37,15.416,24.069,10.326c8.7-5.088,12.027-17.963,7.434-28.753
			C76.869,174.898,66.093,170.275,57.393,175.365z"/>
		<path clip-path="url(#SVGID_2_)" fill="none" stroke="#000000" stroke-width="6" stroke-miterlimit="10" d="M57.473,175.549
			c-8.617,5.043-11.914,17.793-7.363,28.483C54.66,214.722,65.334,219.3,73.95,214.26c8.617-5.041,11.915-17.793,7.364-28.481
			C76.764,175.088,66.088,170.51,57.473,175.549z"/>
		<path clip-path="url(#SVGID_2_)" fill="none" stroke="#000000" stroke-width="6" stroke-miterlimit="10" d="M57.551,175.734
			c-8.534,4.993-11.799,17.624-7.292,28.211s15.079,15.121,23.614,10.129s11.799-17.623,7.293-28.211
			C76.658,175.279,66.086,170.742,57.551,175.734z"/>
		<path clip-path="url(#SVGID_2_)" fill="none" stroke="#000000" stroke-width="6" stroke-miterlimit="10" d="M57.63,175.921
			c-8.452,4.945-11.687,17.451-7.223,27.937c4.464,10.483,14.934,14.977,23.386,10.032c8.453-4.945,11.687-17.453,7.223-27.938
			C76.553,175.468,66.082,170.978,57.63,175.921z"/>
		<path clip-path="url(#SVGID_2_)" fill="none" stroke="#000000" stroke-width="6" stroke-miterlimit="10" d="M57.709,176.106
			c-8.37,4.896-11.57,17.28-7.152,27.663c4.42,10.384,14.789,14.83,23.158,9.936c8.369-4.896,11.572-17.282,7.151-27.666
			C76.446,175.655,66.078,171.209,57.709,176.106z"/>
		<path clip-path="url(#SVGID_2_)" fill="none" stroke="#000000" stroke-width="6" stroke-miterlimit="10" d="M57.787,176.289
			c-8.286,4.851-11.457,17.114-7.082,27.394c4.377,10.28,14.643,14.684,22.93,9.838c8.288-4.851,11.459-17.113,7.082-27.395
			C76.341,175.846,66.074,171.443,57.787,176.289z"/>
		<path clip-path="url(#SVGID_2_)" fill="none" stroke="#000000" stroke-width="6" stroke-miterlimit="10" d="M57.865,176.475
			c-8.204,4.801-11.342,16.941-7.01,27.121c4.332,10.178,14.496,14.537,22.701,9.738c8.205-4.801,11.344-16.941,7.012-27.119
			C76.234,176.035,66.072,171.675,57.865,176.475z"/>
		<path clip-path="url(#SVGID_2_)" fill="none" stroke="#000000" stroke-width="6" stroke-miterlimit="10" d="M57.945,176.661
			c-8.123,4.751-11.229,16.771-6.94,26.847c4.29,10.075,14.351,14.393,22.474,9.641c8.122-4.753,11.229-16.771,6.941-26.848
			C76.129,176.226,66.067,171.908,57.945,176.661z"/>
		<path clip-path="url(#SVGID_2_)" fill="none" stroke="#000000" stroke-width="6" stroke-miterlimit="10" d="M58.023,176.847
			c-8.039,4.702-11.115,16.602-6.869,26.574c4.245,9.973,14.205,14.246,22.244,9.542c8.041-4.702,11.117-16.601,6.871-26.574
			S66.064,172.143,58.023,176.847z"/>
		<path clip-path="url(#SVGID_2_)" fill="none" stroke="#000000" stroke-width="6" stroke-miterlimit="10" d="M58.104,177.031
			c-7.958,4.655-11.002,16.432-6.801,26.303c4.203,9.87,14.061,14.101,22.018,9.443c7.957-4.655,11.003-16.43,6.801-26.304
			C75.918,176.604,66.061,172.377,58.104,177.031z"/>
		<path clip-path="url(#SVGID_2_)" fill="none" stroke="#000000" stroke-width="6" stroke-miterlimit="10" d="M58.182,177.216
			c-7.875,4.606-10.887,16.262-6.729,26.03c4.159,9.77,13.915,13.953,21.79,9.348c7.875-4.606,10.887-16.261,6.729-26.03
			C75.812,176.795,66.057,172.609,58.182,177.216z"/>
		<path clip-path="url(#SVGID_2_)" fill="none" stroke="#000000" stroke-width="6" stroke-miterlimit="10" d="M58.261,177.401
			c-7.793,4.56-10.774,16.092-6.659,25.757c4.115,9.667,13.768,13.809,21.562,9.25c7.792-4.56,10.774-16.09,6.659-25.758
			C75.707,176.984,66.053,172.844,58.261,177.401z"/>
		<path clip-path="url(#SVGID_2_)" fill="none" stroke="#000000" stroke-width="6" stroke-miterlimit="10" d="M58.34,177.587
			c-7.711,4.509-10.66,15.922-6.59,25.485c4.072,9.564,13.623,13.66,21.334,9.15s10.66-15.92,6.59-25.485
			C75.602,177.173,66.051,173.077,58.34,177.587z"/>
		<path clip-path="url(#SVGID_2_)" fill="none" stroke="#000000" stroke-width="6" stroke-miterlimit="10" d="M58.418,177.772
			c-7.629,4.463-10.545,15.75-6.518,25.212c4.027,9.463,13.477,13.515,21.104,9.055c7.628-4.465,10.546-15.751,6.519-25.214
			C75.496,177.363,66.045,173.31,58.418,177.772z"/>
		<path clip-path="url(#SVGID_2_)" fill="none" stroke="#000000" stroke-width="6" stroke-miterlimit="10" d="M58.497,177.956
			c-7.546,4.414-10.433,15.581-6.448,24.94c3.986,9.36,13.332,13.369,20.877,8.957c7.547-4.414,10.434-15.58,6.449-24.941
			C75.391,177.552,66.043,173.543,58.497,177.956z"/>
		<path clip-path="url(#SVGID_2_)" fill="none" stroke="#000000" stroke-width="6" stroke-miterlimit="10" d="M58.576,178.142
			c-7.464,4.366-10.318,15.411-6.377,24.668c3.94,9.258,13.186,13.224,20.648,8.857S83.166,196.258,79.225,187
			C75.285,177.742,66.039,173.776,58.576,178.142z"/>
		<path clip-path="url(#SVGID_2_)" fill="none" stroke="#000000" stroke-width="6" stroke-miterlimit="10" d="M58.654,178.327
			c-7.38,4.317-10.204,15.24-6.307,24.396c3.897,9.156,13.041,13.078,20.422,8.759c7.38-4.318,10.204-15.238,6.307-24.396
			C75.179,177.93,66.035,174.01,58.654,178.327z"/>
		<path clip-path="url(#SVGID_2_)" fill="none" stroke="#000000" stroke-width="6" stroke-miterlimit="10" d="M58.733,178.512
			c-7.298,4.271-10.09,15.07-6.235,24.124c3.854,9.052,12.894,12.932,20.192,8.661c7.298-4.269,10.091-15.069,6.235-24.123
			C75.072,178.121,66.031,174.241,58.733,178.512z"/>
		<path clip-path="url(#SVGID_2_)" fill="none" stroke="#000000" stroke-width="6" stroke-miterlimit="10" d="M58.812,178.697
			c-7.217,4.22-9.977,14.9-6.166,23.851c3.811,8.951,12.749,12.786,19.965,8.565c7.216-4.222,9.977-14.9,6.166-23.852
			S66.027,174.475,58.812,178.697z"/>
		<path clip-path="url(#SVGID_2_)" fill="none" stroke="#000000" stroke-width="6" stroke-miterlimit="10" d="M58.891,178.882
			c-7.133,4.173-9.862,14.731-6.096,23.579c3.768,8.847,12.604,12.64,19.737,8.466c7.134-4.173,9.863-14.729,6.096-23.577
			C74.861,178.499,66.025,174.709,58.891,178.882z"/>
		<path clip-path="url(#SVGID_2_)" fill="none" stroke="#000000" stroke-width="6" stroke-miterlimit="10" d="M58.971,179.067
			c-7.053,4.126-9.749,14.559-6.025,23.307c3.723,8.746,12.457,12.494,19.509,8.367c7.052-4.125,9.749-14.558,6.024-23.304
			C74.756,178.689,66.02,174.941,58.971,179.067z"/>
		<path clip-path="url(#SVGID_2_)" fill="none" stroke="#000000" stroke-width="6" stroke-miterlimit="10" d="M59.048,179.253
			c-6.968,4.076-9.634,14.39-5.954,23.034c3.681,8.644,12.313,12.347,19.281,8.27c6.969-4.076,9.635-14.389,5.955-23.033
			C74.65,178.877,66.018,175.176,59.048,179.253z"/>
		<path clip-path="url(#SVGID_2_)" fill="none" stroke="#000000" stroke-width="6" stroke-miterlimit="10" d="M59.127,179.438
			c-6.887,4.028-9.52,14.218-5.883,22.761c3.635,8.541,12.166,12.201,19.051,8.173c6.887-4.027,9.522-14.221,5.885-22.763
			C74.544,179.069,66.014,175.409,59.127,179.438z"/>
		<path clip-path="url(#SVGID_2_)" fill="none" stroke="#000000" stroke-width="6" stroke-miterlimit="10" d="M59.206,179.623
			c-6.804,3.98-9.406,14.048-5.813,22.488c3.593,8.439,12.021,12.056,18.824,8.075c6.805-3.979,9.408-14.048,5.814-22.489
			C74.438,179.259,66.009,175.643,59.206,179.623z"/>
		<path clip-path="url(#SVGID_2_)" fill="none" stroke="#000000" stroke-width="6" stroke-miterlimit="10" d="M59.285,179.808
			c-6.722,3.934-9.293,13.879-5.744,22.218c3.549,8.336,11.875,11.908,18.598,7.976c6.721-3.93,9.293-13.878,5.744-22.215
			C74.332,179.448,66.006,175.876,59.285,179.808z"/>
		<path clip-path="url(#SVGID_2_)" fill="none" stroke="#000000" stroke-width="6" stroke-miterlimit="10" d="M59.364,179.993
			c-6.64,3.884-9.179,13.707-5.674,21.943s11.729,11.763,18.37,7.88c6.638-3.885,9.179-13.709,5.672-21.943
			C74.227,179.638,66.003,176.109,59.364,179.993z"/>
		<path clip-path="url(#SVGID_2_)" fill="none" stroke="#000000" stroke-width="6" stroke-miterlimit="10" d="M59.442,180.178
			c-6.557,3.836-9.065,13.538-5.602,21.671c3.461,8.135,11.583,11.618,18.141,7.782c6.556-3.834,9.064-13.537,5.603-21.671
			C74.121,179.825,66,176.343,59.442,180.178z"/>
		<path clip-path="url(#SVGID_2_)" fill="none" stroke="#000000" stroke-width="6" stroke-miterlimit="10" d="M59.521,180.363
			c-6.475,3.787-8.951,13.369-5.533,21.398c3.419,8.033,11.439,11.473,17.914,7.685c6.474-3.787,8.951-13.369,5.532-21.399
			C74.016,180.016,65.995,176.575,59.521,180.363z"/>
		<path clip-path="url(#SVGID_2_)" fill="none" stroke="#000000" stroke-width="6" stroke-miterlimit="10" d="M59.6,180.549
			c-6.393,3.739-8.836,13.197-5.461,21.126c3.374,7.929,11.293,11.325,17.685,7.586s8.838-13.198,5.462-21.126
			C73.91,180.206,65.992,176.809,59.6,180.549z"/>
		<path clip-path="url(#SVGID_2_)" fill="none" stroke="#000000" stroke-width="6" stroke-miterlimit="10" d="M59.679,180.734
			c-6.31,3.69-8.724,13.026-5.391,20.853c3.331,7.828,11.146,11.181,17.455,7.488c6.311-3.69,8.724-13.028,5.392-20.854
			C73.804,180.394,65.988,177.044,59.679,180.734z"/>
		<path clip-path="url(#SVGID_2_)" fill="none" stroke="#000000" stroke-width="6" stroke-miterlimit="10" d="M59.758,180.919
			c-6.227,3.642-8.609,12.856-5.32,20.582c3.287,7.724,11.001,11.032,17.227,7.39c6.229-3.641,8.61-12.856,5.322-20.58
			C73.697,180.586,65.984,177.275,59.758,180.919z"/>
		<path clip-path="url(#SVGID_2_)" fill="none" stroke="#000000" stroke-width="6" stroke-miterlimit="10" d="M59.836,181.104
			c-6.144,3.594-8.494,12.687-5.249,20.309c3.243,7.622,10.856,10.888,17.001,7.293c6.143-3.594,8.494-12.689,5.249-20.311
			C73.592,180.773,65.981,177.509,59.836,181.104z"/>
		<path clip-path="url(#SVGID_2_)" fill="none" stroke="#000000" stroke-width="6" stroke-miterlimit="10" d="M59.916,181.289
			c-6.062,3.545-8.382,12.518-5.181,20.037s10.711,10.74,16.772,7.194c6.062-3.547,8.382-12.517,5.18-20.038
			C73.486,180.965,65.978,177.743,59.916,181.289z"/>
		<path clip-path="url(#SVGID_2_)" fill="none" stroke="#000000" stroke-width="6" stroke-miterlimit="10" d="M59.994,181.474
			c-5.98,3.497-8.268,12.347-5.109,19.766c3.157,7.417,10.564,10.595,16.545,7.097c5.979-3.498,8.267-12.347,5.109-19.766
			C73.381,181.153,65.974,177.976,59.994,181.474z"/>
		<path clip-path="url(#SVGID_2_)" fill="none" stroke="#000000" stroke-width="6" stroke-miterlimit="10" d="M60.074,181.659
			c-5.898,3.45-8.156,12.177-5.041,19.491c3.115,7.316,10.42,10.45,16.318,6.999c5.896-3.45,8.152-12.176,5.038-19.491
			C73.275,181.342,65.971,178.209,60.074,181.659z"/>
		<path clip-path="url(#SVGID_2_)" fill="none" stroke="#000000" stroke-width="6" stroke-miterlimit="10" d="M60.151,181.845
			c-5.815,3.4-8.038,12.005-4.968,19.22c3.07,7.213,10.273,10.302,16.088,6.9c5.814-3.4,8.039-12.005,4.97-19.219
			C73.169,181.532,65.967,178.442,60.151,181.845z"/>
		<path clip-path="url(#SVGID_2_)" fill="none" stroke="#000000" stroke-width="6" stroke-miterlimit="10" d="M60.23,182.03
			c-5.732,3.353-7.926,11.836-4.897,18.946c3.026,7.11,10.127,10.158,15.859,6.804s7.927-11.837,4.898-18.947
			C73.063,181.723,65.963,178.675,60.23,182.03z"/>
		<path clip-path="url(#SVGID_2_)" fill="none" stroke="#000000" stroke-width="6" stroke-miterlimit="10" d="M60.309,182.215
			c-5.648,3.305-7.811,11.665-4.827,18.674c2.983,7.01,9.983,10.012,15.632,6.706c5.65-3.305,7.812-11.667,4.828-18.673
			C72.957,181.91,65.959,178.909,60.309,182.215z"/>
		<path clip-path="url(#SVGID_2_)" fill="none" stroke="#000000" stroke-width="6" stroke-miterlimit="10" d="M60.389,182.4
			c-5.568,3.257-7.699,11.495-4.758,18.401c2.939,6.906,9.838,9.865,15.404,6.609c5.568-3.258,7.697-11.498,4.758-18.404
			C72.853,182.101,65.955,179.144,60.389,182.4z"/>
		<path clip-path="url(#SVGID_2_)" fill="none" stroke="#000000" stroke-width="6" stroke-miterlimit="10" d="M60.467,182.584
			c-5.485,3.208-7.584,11.325-4.688,18.131c2.896,6.805,9.691,9.719,15.178,6.51c5.484-3.208,7.584-11.325,4.686-18.129
			C72.747,182.291,65.952,179.377,60.467,182.584z"/>
		<path clip-path="url(#SVGID_2_)" fill="none" stroke="#000000" stroke-width="6" stroke-miterlimit="10" d="M60.545,182.771
			c-5.402,3.16-7.469,11.154-4.615,17.855c2.853,6.704,9.545,9.575,14.947,6.415c5.404-3.161,7.47-11.158,4.617-17.86
			C72.641,182.481,65.947,179.609,60.545,182.771z"/>
		<path clip-path="url(#SVGID_2_)" fill="none" stroke="#000000" stroke-width="6" stroke-miterlimit="10" d="M60.625,182.955
			c-5.321,3.11-7.356,10.983-4.547,17.586c2.811,6.6,9.4,9.426,14.721,6.314c5.32-3.113,7.355-10.986,4.547-17.587
			C72.535,182.67,65.945,179.843,60.625,182.955z"/>
		<path clip-path="url(#SVGID_2_)" fill="none" stroke="#000000" stroke-width="6" stroke-miterlimit="10" d="M60.703,183.141
			c-5.238,3.062-7.242,10.813-4.476,17.312c2.767,6.497,9.255,9.281,14.492,6.216c5.239-3.063,7.242-10.813,4.477-17.312
			C72.43,182.859,65.941,180.074,60.703,183.141z"/>
		<path clip-path="url(#SVGID_2_)" fill="none" stroke="#000000" stroke-width="6" stroke-miterlimit="10" d="M60.782,183.324
			c-5.155,3.019-7.129,10.645-4.407,17.042c2.725,6.396,9.111,9.135,14.266,6.118c5.156-3.016,7.129-10.645,4.406-17.042
			C72.324,183.05,65.938,180.309,60.782,183.324z"/>
		<path clip-path="url(#SVGID_2_)" fill="none" stroke="#000000" stroke-width="6" stroke-miterlimit="10" d="M60.86,183.511
			c-5.073,2.967-7.013,10.474-4.335,16.768c2.68,6.293,8.965,8.99,14.037,6.021c5.072-2.968,7.016-10.476,4.335-16.769
			C72.217,183.239,65.934,180.541,60.86,183.511z"/>
		<path clip-path="url(#SVGID_2_)" fill="none" stroke="#000000" stroke-width="6" stroke-miterlimit="10" d="M60.939,183.695
			c-4.99,2.919-6.899,10.305-4.265,16.496c2.636,6.191,8.818,8.844,13.808,5.924c4.991-2.92,6.902-10.305,4.266-16.497
			C72.113,183.427,65.93,180.774,60.939,183.695z"/>
		<path clip-path="url(#SVGID_2_)" fill="none" stroke="#000000" stroke-width="6" stroke-miterlimit="10" d="M61.019,183.879
			c-4.909,2.873-6.785,10.136-4.194,16.225c2.592,6.088,8.672,8.697,13.58,5.826c4.908-2.872,6.787-10.136,4.195-16.225
			C72.008,183.617,65.926,181.009,61.019,183.879z"/>
		<path clip-path="url(#SVGID_2_)" fill="none" stroke="#000000" stroke-width="6" stroke-miterlimit="10" d="M61.097,184.066
			c-4.825,2.823-6.671,9.963-4.124,15.949c2.549,5.987,8.527,8.552,13.354,5.729c4.825-2.822,6.671-9.965,4.122-15.95
			C71.902,183.807,65.924,181.243,61.097,184.066z"/>
		<path clip-path="url(#SVGID_2_)" fill="none" stroke="#000000" stroke-width="6" stroke-miterlimit="10" d="M61.177,184.251
			c-4.745,2.774-6.559,9.793-4.054,15.677c2.505,5.887,8.381,8.406,13.125,5.632c4.742-2.775,6.558-9.795,4.053-15.678
			C71.796,183.996,65.92,181.476,61.177,184.251z"/>
		<path clip-path="url(#SVGID_2_)" fill="none" stroke="#000000" stroke-width="6" stroke-miterlimit="10" d="M61.256,184.435
			c-4.661,2.729-6.444,9.624-3.983,15.406c2.462,5.783,8.234,8.26,12.896,5.533c4.662-2.727,6.445-9.624,3.982-15.407
			C71.689,184.186,65.916,181.708,61.256,184.435z"/>
		<path clip-path="url(#SVGID_2_)" fill="none" stroke="#000000" stroke-width="6" stroke-miterlimit="10" d="M61.333,184.62
			c-4.579,2.678-6.33,9.455-3.911,15.135c2.418,5.68,8.089,8.112,12.668,5.435c4.578-2.679,6.33-9.455,3.912-15.135
			C71.584,184.376,65.912,181.942,61.333,184.62z"/>
		<path clip-path="url(#SVGID_2_)" fill="none" stroke="#000000" stroke-width="6" stroke-miterlimit="10" d="M61.412,184.805
			c-4.495,2.63-6.216,9.285-3.842,14.862c2.374,5.579,7.944,7.968,12.44,5.337c4.495-2.63,6.218-9.282,3.842-14.861
			C71.479,184.565,65.908,182.175,61.412,184.805z"/>
		<path clip-path="url(#SVGID_2_)" fill="none" stroke="#000000" stroke-width="6" stroke-miterlimit="10" d="M61.492,184.99
			c-4.415,2.582-6.103,9.114-3.773,14.589c2.332,5.478,7.8,7.821,12.214,5.24c4.413-2.583,6.102-9.113,3.771-14.59
			C71.373,184.754,65.906,182.409,61.492,184.99z"/>
		<path clip-path="url(#SVGID_2_)" fill="none" stroke="#000000" stroke-width="6" stroke-miterlimit="10" d="M61.57,185.175
			c-4.332,2.536-5.988,8.946-3.701,14.317c2.288,5.374,7.652,7.677,11.984,5.142c4.331-2.536,5.988-8.943,3.701-14.317
			C71.266,184.943,65.901,182.642,61.57,185.175z"/>
		<path clip-path="url(#SVGID_2_)" fill="none" stroke="#000000" stroke-width="6" stroke-miterlimit="10" d="M61.648,185.361
			c-4.248,2.486-5.875,8.773-3.631,14.044c2.244,5.272,7.508,7.529,11.758,5.044c4.248-2.486,5.875-8.773,3.63-14.045
			C71.161,185.133,65.898,182.877,61.648,185.361z"/>
		<path clip-path="url(#SVGID_2_)" fill="none" stroke="#000000" stroke-width="6" stroke-miterlimit="10" d="M61.729,185.546
			c-4.168,2.438-5.761,8.604-3.561,13.771c2.199,5.169,7.361,7.384,11.527,4.945c4.168-2.437,5.762-8.601,3.561-13.771
			C71.056,185.323,65.895,183.109,61.729,185.546z"/>
		<path clip-path="url(#SVGID_2_)" fill="none" stroke="#000000" stroke-width="6" stroke-miterlimit="10" d="M61.807,185.73
			c-4.084,2.39-5.646,8.435-3.49,13.5c2.156,5.067,7.216,7.237,11.301,4.849c4.084-2.391,5.646-8.435,3.49-13.501
			C70.95,185.514,65.892,183.344,61.807,185.73z"/>
		<path clip-path="url(#SVGID_2_)" fill="none" stroke="#000000" stroke-width="6" stroke-miterlimit="10" d="M61.885,185.915
			c-4.001,2.343-5.531,8.265-3.419,13.229c2.114,4.964,7.07,7.09,11.071,4.749c4.003-2.342,5.533-8.262,3.42-13.225
			C70.845,185.702,65.887,183.575,61.885,185.915z"/>
		<path clip-path="url(#SVGID_2_)" fill="none" stroke="#000000" stroke-width="6" stroke-miterlimit="10" d="M61.964,186.102
			c-3.919,2.292-5.418,8.095-3.349,12.955c2.068,4.862,6.925,6.944,10.844,4.651c3.92-2.293,5.42-8.092,3.35-12.956
			C70.738,185.891,65.884,183.808,61.964,186.102z"/>
		<path clip-path="url(#SVGID_2_)" fill="none" stroke="#000000" stroke-width="6" stroke-miterlimit="10" d="M62.043,186.286
			c-3.836,2.243-5.305,7.924-3.279,12.684c2.026,4.759,6.779,6.797,10.616,4.554c3.837-2.246,5.306-7.922,3.279-12.684
			C70.633,186.08,65.88,184.042,62.043,186.286z"/>
		<path clip-path="url(#SVGID_2_)" fill="none" stroke="#000000" stroke-width="6" stroke-miterlimit="10" d="M62.121,186.472
			c-3.754,2.195-5.19,7.753-3.207,12.409c1.982,4.658,6.634,6.654,10.388,4.457c3.754-2.196,5.19-7.753,3.208-12.41
			S65.876,184.274,62.121,186.472z"/>
		<path clip-path="url(#SVGID_2_)" fill="none" stroke="#000000" stroke-width="6" stroke-miterlimit="10" d="M62.201,186.655
			c-3.674,2.151-5.078,7.584-3.138,12.14c1.938,4.554,6.487,6.506,10.159,4.358s5.077-7.582,3.137-12.139
			C70.422,186.46,65.873,184.509,62.201,186.655z"/>
		<path clip-path="url(#SVGID_2_)" fill="none" stroke="#000000" stroke-width="6" stroke-miterlimit="10" d="M62.28,186.841
			c-3.591,2.101-4.964,7.413-3.068,11.866s6.343,6.36,9.933,4.26c3.59-2.099,4.963-7.411,3.067-11.864
			C70.315,186.649,65.869,184.742,62.28,186.841z"/>
		<path clip-path="url(#SVGID_2_)" fill="none" stroke="#000000" stroke-width="6" stroke-miterlimit="10" d="M62.357,187.026
			c-3.508,2.054-4.848,7.243-2.996,11.593c1.852,4.351,6.197,6.214,9.704,4.163c3.508-2.05,4.85-7.241,2.996-11.593
			C70.211,186.839,65.865,184.975,62.357,187.026z"/>
		<path clip-path="url(#SVGID_2_)" fill="none" stroke="#000000" stroke-width="6" stroke-miterlimit="10" d="M62.437,187.212
			c-3.424,2.004-4.734,7.073-2.927,11.32c1.81,4.249,6.053,6.067,9.477,4.065s4.735-7.07,2.927-11.319
			C70.105,187.027,65.862,185.209,62.437,187.212z"/>
		<path clip-path="url(#SVGID_2_)" fill="none" stroke="#000000" stroke-width="6" stroke-miterlimit="10" d="M62.516,187.396
			c-3.344,1.956-4.621,6.902-2.855,11.048c1.765,4.146,5.905,5.923,9.247,3.968c3.343-1.955,4.622-6.901,2.856-11.048
			C69.999,187.219,65.857,185.441,62.516,187.396z"/>
		<path clip-path="url(#SVGID_2_)" fill="none" stroke="#000000" stroke-width="6" stroke-miterlimit="10" d="M62.594,187.583
			c-3.26,1.906-4.506,6.73-2.784,10.774c1.72,4.045,5.759,5.777,9.021,3.87c3.258-1.908,4.506-6.732,2.785-10.774
			C69.893,187.407,65.854,185.676,62.594,187.583z"/>
		<path clip-path="url(#SVGID_2_)" fill="none" stroke="#000000" stroke-width="6" stroke-miterlimit="10" d="M62.673,187.767
			c-3.177,1.859-4.394,6.562-2.716,10.503c1.68,3.943,5.615,5.633,8.794,3.771c3.177-1.858,4.392-6.561,2.714-10.501
			C69.787,187.598,65.852,185.908,62.673,187.767z"/>
		<path clip-path="url(#SVGID_2_)" fill="none" stroke="#000000" stroke-width="6" stroke-miterlimit="10" d="M62.752,187.953
			c-3.096,1.81-4.279,6.391-2.645,10.232c1.635,3.838,5.469,5.482,8.564,3.672c3.094-1.812,4.279-6.391,2.644-10.231
			C69.682,187.786,65.848,186.143,62.752,187.953z"/>
		<path clip-path="url(#SVGID_2_)" fill="none" stroke="#000000" stroke-width="6" stroke-miterlimit="10" d="M62.831,188.137
			c-3.013,1.764-4.165,6.223-2.575,9.96c1.592,3.736,5.324,5.339,8.336,3.575c3.014-1.763,4.166-6.222,2.574-9.959
			C69.576,187.977,65.842,186.374,62.831,188.137z"/>
		<path clip-path="url(#SVGID_2_)" fill="none" stroke="#000000" stroke-width="6" stroke-miterlimit="10" d="M62.909,188.322
			c-2.931,1.715-4.052,6.052-2.503,9.688c1.547,3.635,5.176,5.191,8.107,3.478s4.051-6.052,2.504-9.688
			C69.471,188.166,65.84,186.608,62.909,188.322z"/>
		<path clip-path="url(#SVGID_2_)" fill="none" stroke="#000000" stroke-width="6" stroke-miterlimit="10" d="M62.988,188.508
			c-2.848,1.666-3.938,5.882-2.433,9.414c1.503,3.532,5.032,5.045,7.88,3.379s3.937-5.88,2.432-9.412
			C69.365,188.354,65.836,186.841,62.988,188.508z"/>
		<path clip-path="url(#SVGID_2_)" fill="none" stroke="#000000" stroke-width="6" stroke-miterlimit="10" d="M63.067,188.693
			c-2.766,1.617-3.823,5.709-2.362,9.141c1.46,3.432,4.885,4.9,7.651,3.282c2.766-1.616,3.823-5.711,2.362-9.143
			C69.258,188.544,65.833,187.074,63.067,188.693z"/>
		<path clip-path="url(#SVGID_2_)" fill="none" stroke="#000000" stroke-width="6" stroke-miterlimit="10" d="M63.146,188.878
			c-2.684,1.57-3.711,5.54-2.293,8.868c1.417,3.328,4.74,4.755,7.424,3.186c2.682-1.57,3.709-5.542,2.293-8.868
			C69.152,188.733,65.828,187.309,63.146,188.878z"/>
		<path clip-path="url(#SVGID_2_)" fill="none" stroke="#000000" stroke-width="6" stroke-miterlimit="10" d="M63.225,189.062
			c-2.602,1.521-3.596,5.37-2.223,8.596c1.374,3.228,4.596,4.609,7.197,3.089c2.6-1.522,3.594-5.371,2.223-8.597
			C69.047,188.923,65.826,187.541,63.225,189.062z"/>
		<path clip-path="url(#SVGID_2_)" fill="none" stroke="#000000" stroke-width="6" stroke-miterlimit="10" d="M63.305,189.246
			c-2.52,1.476-3.482,5.201-2.152,8.325c1.329,3.124,4.449,4.463,6.969,2.99c2.518-1.475,3.479-5.201,2.15-8.323
			C68.941,189.113,65.822,187.775,63.305,189.246z"/>
		<path clip-path="url(#SVGID_2_)" fill="none" stroke="#000000" stroke-width="6" stroke-miterlimit="10" d="M63.383,189.434
			c-2.436,1.424-3.368,5.029-2.082,8.05c1.287,3.022,4.305,4.318,6.74,2.893s3.367-5.029,2.082-8.053
			C68.836,189.303,65.818,188.009,63.383,189.434z"/>
		<path clip-path="url(#SVGID_2_)" fill="none" stroke="#000000" stroke-width="6" stroke-miterlimit="10" d="M63.461,189.618
			c-2.354,1.377-3.253,4.86-2.01,7.78c1.241,2.918,4.156,4.169,6.512,2.793c2.353-1.377,3.252-4.86,2.01-7.78
			C68.73,189.493,65.814,188.242,63.461,189.618z"/>
		<path clip-path="url(#SVGID_2_)" fill="none" stroke="#000000" stroke-width="6" stroke-miterlimit="10" d="M63.539,189.805
			c-2.27,1.327-3.139,4.688-1.939,7.506s4.012,4.025,6.283,2.696s3.141-4.69,1.941-7.508S65.811,188.476,63.539,189.805z"/>
		<path clip-path="url(#SVGID_2_)" fill="none" stroke="#000000" stroke-width="6" stroke-miterlimit="10" d="M63.619,189.987
			c-2.189,1.281-3.026,4.521-1.871,7.235c1.156,2.716,3.867,3.879,6.056,2.598c2.19-1.279,3.026-4.52,1.87-7.234
			C68.519,189.87,65.809,188.709,63.619,189.987z"/>
		<path clip-path="url(#SVGID_2_)" fill="none" stroke="#000000" stroke-width="6" stroke-miterlimit="10" d="M63.699,190.174
			c-2.107,1.234-2.914,4.349-1.801,6.962c1.111,2.613,3.721,3.732,5.827,2.499c2.106-1.23,2.913-4.349,1.8-6.961
			C68.412,190.061,65.805,188.941,63.699,190.174z"/>
		<path clip-path="url(#SVGID_2_)" fill="none" stroke="#000000" stroke-width="6" stroke-miterlimit="10" d="M63.776,190.358
			c-2.023,1.185-2.798,4.179-1.729,6.689s3.576,3.587,5.6,2.402c2.023-1.183,2.799-4.18,1.73-6.689
			C68.307,190.252,65.8,189.174,63.776,190.358z"/>
		<path clip-path="url(#SVGID_2_)" fill="none" stroke="#000000" stroke-width="6" stroke-miterlimit="10" d="M63.855,190.545
			c-1.941,1.135-2.685,4.008-1.659,6.416s3.43,3.439,5.372,2.305c1.941-1.136,2.684-4.009,1.658-6.418
			C68.201,190.44,65.797,189.407,63.855,190.545z"/>
		<path clip-path="url(#SVGID_2_)" fill="none" stroke="#000000" stroke-width="6" stroke-miterlimit="10" d="M63.936,190.729
			c-1.861,1.088-2.572,3.839-1.59,6.145c0.981,2.308,3.285,3.295,5.143,2.207c1.86-1.089,2.57-3.839,1.59-6.146
			C68.096,190.629,65.793,189.641,63.936,190.729z"/>
		<path clip-path="url(#SVGID_2_)" fill="none" stroke="#000000" stroke-width="6" stroke-miterlimit="10" d="M64.014,190.914
			c-1.777,1.039-2.457,3.669-1.52,5.873c0.938,2.203,3.14,3.147,4.916,2.108c1.777-1.038,2.457-3.668,1.519-5.871
			C67.99,190.819,65.791,189.875,64.014,190.914z"/>
		<path clip-path="url(#SVGID_2_)" fill="none" stroke="#000000" stroke-width="6" stroke-miterlimit="10" d="M64.092,191.1
			c-1.693,0.99-2.342,3.496-1.447,5.6c0.895,2.101,2.994,3.002,4.688,2.011s2.342-3.499,1.447-5.601
			C67.885,191.007,65.785,190.107,64.092,191.1z"/>
		<path clip-path="url(#SVGID_2_)" fill="none" stroke="#000000" stroke-width="6" stroke-miterlimit="10" d="M64.17,191.286
			c-1.611,0.942-2.229,3.326-1.377,5.327c0.852,1.998,2.848,2.854,4.459,1.912c1.613-0.944,2.229-3.327,1.378-5.326
			C67.778,191.197,65.783,190.343,64.17,191.286z"/>
		<path clip-path="url(#SVGID_2_)" fill="none" stroke="#000000" stroke-width="6" stroke-miterlimit="10" d="M64.249,191.469
			c-1.528,0.896-2.114,3.159-1.308,5.057c0.809,1.895,2.703,2.709,4.232,1.814s2.115-3.158,1.307-5.055
			C67.673,191.388,65.778,190.575,64.249,191.469z"/>
		<path clip-path="url(#SVGID_2_)" fill="none" stroke="#000000" stroke-width="6" stroke-miterlimit="10" d="M64.328,191.657
			c-1.447,0.845-2,2.984-1.236,4.779s2.557,2.563,4.004,1.718c1.445-0.847,2-2.987,1.236-4.782
			C67.566,191.576,65.775,190.809,64.328,191.657z"/>
		<path clip-path="url(#SVGID_2_)" fill="none" stroke="#000000" stroke-width="6" stroke-miterlimit="10" d="M64.407,191.838
			c-1.364,0.8-1.887,2.819-1.165,4.512c0.719,1.693,2.41,2.42,3.775,1.619c1.363-0.797,1.885-2.816,1.164-4.51
			C67.463,191.766,65.771,191.041,64.407,191.838z"/>
		<path clip-path="url(#SVGID_2_)" fill="none" stroke="#000000" stroke-width="6" stroke-miterlimit="10" d="M64.486,192.025
			c-1.283,0.748-1.773,2.646-1.096,4.236c0.676,1.591,2.265,2.271,3.547,1.521c1.281-0.748,1.771-2.646,1.096-4.237
			S65.768,191.274,64.486,192.025z"/>
		<path clip-path="url(#SVGID_2_)" fill="none" stroke="#000000" stroke-width="6" stroke-miterlimit="10" d="M64.564,192.211
			c-1.199,0.701-1.658,2.476-1.025,3.964c0.634,1.489,2.121,2.126,3.319,1.425c1.2-0.701,1.659-2.477,1.024-3.966
			C67.251,192.145,65.765,191.508,64.564,192.211z"/>
		<path clip-path="url(#SVGID_2_)" fill="none" stroke="#000000" stroke-width="6" stroke-miterlimit="10" d="M64.644,192.395
			c-1.118,0.652-1.546,2.308-0.956,3.694c0.592,1.385,1.975,1.979,3.092,1.327c1.119-0.656,1.546-2.309,0.956-3.695
			C67.146,192.337,65.76,191.74,64.644,192.395z"/>
		<path clip-path="url(#SVGID_2_)" fill="none" stroke="#000000" stroke-width="6" stroke-miterlimit="10" d="M64.722,192.581
			c-1.034,0.603-1.431,2.137-0.884,3.419c0.547,1.286,1.828,1.835,2.863,1.229c1.035-0.605,1.431-2.137,0.884-3.419
			C67.039,192.524,65.758,191.974,64.722,192.581z"/>
		<path clip-path="url(#SVGID_2_)" fill="none" stroke="#000000" stroke-width="6" stroke-miterlimit="10" d="M64.801,192.767
			c-0.953,0.557-1.316,1.965-0.814,3.146c0.504,1.183,1.684,1.688,2.636,1.13c0.952-0.557,1.317-1.965,0.815-3.147
			C66.934,192.715,65.754,192.209,64.801,192.767z"/>
		<path clip-path="url(#SVGID_2_)" fill="none" stroke="#000000" stroke-width="6" stroke-miterlimit="10" d="M64.879,192.949
			c-0.869,0.51-1.203,1.797-0.742,2.877c0.459,1.08,1.537,1.543,2.408,1.033c0.869-0.51,1.201-1.796,0.742-2.876
			S65.749,192.441,64.879,192.949z"/>
		<path clip-path="url(#SVGID_2_)" fill="none" stroke="#000000" stroke-width="6" stroke-miterlimit="10" d="M64.959,193.137
			c-0.788,0.461-1.09,1.627-0.674,2.603s1.393,1.396,2.18,0.936c0.787-0.462,1.089-1.627,0.673-2.605
			C66.723,193.094,65.746,192.674,64.959,193.137z"/>
		<path clip-path="url(#SVGID_2_)" fill="none" stroke="#000000" stroke-width="6" stroke-miterlimit="10" d="M65.037,193.32
			c-0.705,0.413-0.975,1.458-0.602,2.332c0.371,0.875,1.246,1.248,1.951,0.838c0.704-0.413,0.975-1.457,0.602-2.332
			C66.617,193.283,65.743,192.908,65.037,193.32z"/>
		<use xlink:href="#SVGID_1_"  overflow="visible" fill="none" stroke="#000000" stroke-width="6" stroke-miterlimit="10"/>
	</g>
	<path fill="none" stroke="#000000" stroke-width="6" stroke-miterlimit="10" d="M69.141,218.293L69.141,218.293
		c-0.906,0-1.818-0.025-2.672-0.051c-7.225-0.236-12.979-3.066-16.535-5.402c-3.854-2.53-6.033-5.045-6.055-5.07
		c-0.018-0.02-0.032-0.042-0.041-0.065l-0.029-0.067c-0.01-0.021-0.016-0.046-0.02-0.071c-0.016-0.141-1.557-14.205,6.43-27.388
		c2.014-3.323,3.781-6.094,6.641-8.986c3.135-3.167,7.376-6.236,13.354-9.656c0.064-0.039,0.139-0.046,0.207-0.023
		c0.069,0.023,0.125,0.075,0.155,0.142c0.065,0.147,6.723,14.949,16.895,20.325c0.052,0.028,0.093,0.073,0.116,0.126l0.029,0.068
		c0.018,0.046,0.025,0.099,0.014,0.148c-2.455,12.781,3.639,27.928,3.7,28.081c0.048,0.117,0.003,0.251-0.106,0.316
		C80.617,217.055,75.093,218.293,69.141,218.293z M44.296,207.469c0.261,0.295,2.368,2.613,5.933,4.953
		c3.5,2.293,9.158,5.077,16.258,5.307c0.848,0.027,1.756,0.053,2.654,0.053c5.83,0,11.248-1.213,21.633-7.392
		c-0.721-1.86-5.936-15.94-3.672-28.028c-9.51-5.113-15.937-18.237-16.877-20.244c-13.001,7.486-16.045,12.512-19.566,18.324
		C42.971,193.131,44.211,206.646,44.296,207.469z"/>
</g>
<path id="shadow_helmet_7_" fill="#303030" d="M141.15,72.885c0,0,4.922,33.727,6.721,41.904l-20.191,1.523"/>
<path id="body_31_" fill="#F2D5C7" d="M107.418,126.55c0,0-5.15,3.028-4.664,9.021c0,0-0.109,0.821,0.566,2.292
	c16.248,37.877,27.454,72.7-7.855,72.7c-45.895,0-26.564-27.978-14.119-71.548c0.628-2.195,0.842-3.444,0.842-3.444
	c-1.292-6.479-15.787-9.994-15.787-9.994l0,0c-21.362-7.399-36.42-25.234-36.42-46.062c0-27.458,26.172-49.716,58.457-49.716
	c10.443,0,20.246,2.329,28.732,6.408l0.74,0.391c20.52,11.241,21.43,47.777,21.43,47.777c3.709,21.981-13.363,33.251-13.363,33.251
	v0.001c-8.857,6.318-19.951,10.443-32.125,11.394"/>
<path id="legs_10_" fill="#353535" d="M118.706,187.858c0,0,5.813,30.193-2.125,61.47c0,0,6.255,5.414,6.614,7.098h-19.367
	c0,0,1.39-25.589-8.179-35.97c0,0-14.196,10.588-17.202,32.482l3.74,5.533h-19.74l3.489-6.616c0,0-0.574-49.264,0.675-61.924"/>
<path id="left_shoe_5_" fill="#C1C1C1" d="M88.175,228.486c-3.925,5.384-8.226,13.504-9.728,24.452l3.74,5.533h-19.74l3.489-6.616
	c0,0-0.136-11.538-0.132-24.878l0,0c7.354-1.345,22.238,1.693,22.238,1.693L88.175,228.486z"/>
<path id="right_shoe_5_" fill="#ADADAD" d="M120.353,225.311c-0.538,7.574-1.677,15.76-3.771,24.018c0,0,6.255,5.414,6.614,7.098
	h-19.367c0,0,1.088-16.527-3.691-28.429l-0.171-0.345C99.966,227.652,109.044,224.451,120.353,225.311L120.353,225.311z"/>
<g id="left_eyebrow_3_">
	<path fill="#877C7C" d="M78.546,79.308c7.794-3.341,17.303-3.538,17.397-3.541l-0.029-1.716c-0.402,0.005-9.941,0.205-18.045,3.679
		L78.546,79.308z"/>
</g>
<g id="right_eyebrow_3_">
	<path fill="#877C7C" d="M130.723,76.931l1.301-1.12c-1.105-1.29-5.958-1.661-7.993-1.76l-0.085,1.716
		C127.101,75.921,130.268,76.464,130.723,76.931z"/>
</g>
<g id="right_eye_6_">
	
		<linearGradient id="SVGID_3_" gradientUnits="userSpaceOnUse" x1="-230.3384" y1="93.0571" x2="-230.3384" y2="78.1724" gradientTransform="matrix(-1 0 0 1 -102.3232 0)">
		<stop  offset="0.1394" style="stop-color:#0081B9"/>
		<stop  offset="1" style="stop-color:#005073"/>
	</linearGradient>
	<path fill="url(#SVGID_3_)" d="M130.305,79.135c0,0-2.305-1.015-4.363-0.96c0,0-1.152,14.883,1.738,14.883
		C130.648,93.058,130.305,79.135,130.305,79.135z"/>
</g>
<g id="mouth_15_">
	<path fill="#F7B7B7" d="M118.865,103.593c0,0-8.562,2.471-21.236,0l1.398,6.06c0,0,9.158-0.526,10.969,0l0.967-1.86"/>
	<path fill="#F47171" d="M110.214,110.163l1.13-2.172l-0.763-0.397l-0.814,1.568c-2.161-0.366-8.759-0.046-10.401,0.041
		l-1.172-5.064c12.281,2.255,20.704-0.106,20.789-0.132l-0.237-0.825c-0.084,0.024-8.621,2.41-21.034-0.008l-0.65-0.128l1.631,7.057
		l0.361-0.021c2.526-0.146,9.396-0.432,10.824-0.018L110.214,110.163z"/>
</g>
<linearGradient id="left_eye_1_" gradientUnits="userSpaceOnUse" x1="-193.0015" y1="95.1201" x2="-193.0015" y2="78.1445" gradientTransform="matrix(-1 0 0 1 -102.3232 0)">
	<stop  offset="0.1394" style="stop-color:#0081B9"/>
	<stop  offset="1" style="stop-color:#005073"/>
</linearGradient>
<path id="left_eye_3_" fill="url(#left_eye_1_)" d="M87.068,79.494c3.609-1.665,7.22-1.319,7.22-1.319s1.149,16.096-3.61,16.916
	C85.92,95.911,87.068,79.494,87.068,79.494z"/>
<path id="light_eye_glow_3_" fill="#FFFFFF" d="M87.026,86.633c0,0,0.124,2.242,0.339,3.404l2.569-1.702L87.026,86.633z"/>
<path id="right_eye_glow_3_" fill="#FFFFFF" d="M125.756,86.633c0,0,0.025,1.31,0.168,2.373l1.756-1.188L125.756,86.633z"/>
<path id="neck_shadow_3_" fill="#D8BEB4" d="M72.494,127.4c0,0,8.594,3.622,9.693,8.17l-0.705,2.957c0,0,14.585,7.679,22.124,0
	c0,0-3.577-6.688,3.812-11.978c0,0-5.922,2.16-13.566,2.47C93.852,129.02,85.951,129.994,72.494,127.4"/>
<path id="right_arm_11_" fill="#303030" d="M103.92,139.265c0,0,22.359,13.845,25.32,51.209
	c1.287,16.252-13.795,10.551-12.914,1.031"/>
<path id="right_hand_8_" fill="#8E8E8E" d="M115.712,171.151c0,0,6.853-1.639,11.092,0c0,0,9.237,28.524-1.552,30.562
	c-8.553,1.615-10.547-8.961-10.547-8.961"/>
<polygon id="sword_hilt_6_" fill="#EFDA43" points="132.389,183.955 127.463,182.05 117.363,208.101 122.182,209.679 "/>
<polygon id="sword_top_6_" fill="#EFEFEF" points="124.359,197.065 156.807,236.139 171.735,238.044 166.494,222.479 
	126.205,193.025 124.359,194.587 "/>
<polygon id="sword_tip_3_" fill="#DDDDDD" points="166.494,222.479 171.735,238.044 156.807,236.139 154.029,221.716 "/>
<polygon id="sword_bottom_3_" fill="#C6C6C6" points="154.029,221.716 124.359,194.587 124.359,197.065 156.807,236.139 "/>
<path id="ear_4_" fill="#FFEEEE" d="M38.906,88.511c0,0-10.215,4.193-3.613,12.751c4.138,5.362,12.618,9.044,14.681,8.012"/>
<path id="hair_7_" fill="#877C7C" d="M103.92,27.918c-6.426,9.712-85.509,6.68-72.787,61.461c0,0,1.263,7.547,8.298,17.245
	c0,0,8.893,13.555,22.004,19.166c9.161,3.922,10.817,8.443,10.817,8.443l5.955-3.678c-0.512-0.367-1.668-1.043-1.668-1.043
	c-6.889-3.582-20.791-10.497-26.565-20.239c0,0-8.84-2.152-11.703-10.295c-2.864-8.143,0.636-10.468,0.636-10.468
	c8.712,10.545,21.033,15.082,21.033,15.082c-1.562-2.867-1.031-5.396-1.031-5.396c4.268,5.093,12.067,5.396,12.067,5.396
	c-4.945-7.005-6.512-21.737-6.512-21.737c2.868,2.386,8.688,0,8.688,0c-4.723-3.021-8.56-12.27-8.56-12.27l-5.685-15.11
	C92.821,66.43,124.33,64.814,124.33,64.814c-3.422-2.792-5.465-6.457-5.465-6.457c6.689,3.358,17.4,4.115,17.4,4.115"/>
<path id="bottom_armor_6_" fill="#9B9B9B" d="M66.521,191.286c-4.074,9.446-5.383,28.245-5.383,28.245
	c4.307,2.275,23.061,3.634,23.061,3.634s1.599-17.828,12.616-17.874c7.104-0.03,9.903,16.17,9.903,16.17
	c9.514,0.31,17.915-3.067,17.915-3.067c1.447-5.481-5.604-28.61-5.604-28.61L66.521,191.286z"/>
<g>
	<path fill="#494949" d="M113.188,215.979c4.051-0.259,11.164-2.962,11.465-3.078l-0.307-0.803
		c-0.072,0.029-7.293,2.774-11.213,3.026L113.188,215.979z"/>
</g>
<g>
	<path fill="#494949" d="M111.978,211.27c5.263-0.721,11.754-3.205,11.819-3.229l-0.309-0.802
		c-0.063,0.025-6.465,2.473-11.628,3.181L111.978,211.27z"/>
</g>
<g>
	<path fill="#494949" d="M109.591,206.493c4.322,0,12.788-3.01,13.149-3.139l-0.289-0.809c-0.088,0.031-8.687,3.088-12.858,3.088
		c-0.05,0-0.1,0-0.147-0.001l-0.017,0.858C109.481,206.491,109.536,206.493,109.591,206.493z"/>
</g>
<g>
	<path fill="#494949" d="M77.463,217.581l0.029-0.858c-8.714-0.302-15.59-3.14-15.658-3.17l-0.331,0.794
		C61.573,214.374,68.594,217.274,77.463,217.581z"/>
</g>
<g>
	<path fill="#494949" d="M78.744,212.929l0.067-0.856c-7.929-0.623-16.329-3.266-16.413-3.292l-0.26,0.82
		C62.224,209.626,70.716,212.297,78.744,212.929z"/>
</g>
<g>
	<path fill="#494949" d="M80.951,208.068l0.062-0.857c-4.173-0.306-17.781-3.117-17.918-3.146l-0.174,0.842
		C63.483,205.021,76.722,207.758,80.951,208.068z"/>
</g>
<path id="feather_6_" fill="#FF0000" d="M60.765,28.758c0,0,4.185-31.24-29.019-24.043c-33.201,7.198-16.027,36.8-16.027,36.8
	s6.869,19.301-6.706,10.469c0,0-4.089-4.907-3.925-9.323c0,0-3.6,10.141,2.289,15.865c5.888,5.725,19.953,4.906,16.684-11.776
	c-3.272-16.681,2.682-19.79,5.92-18.972s12.549,6.537,23.799,3.934"/>
<polyline id="helmet_top_6_" fill="#7C7C7C" points="66.696,30.246 63.084,27.777 51.863,32.521 51.863,37.63 "/>
<path id="helmet_18_" fill="#ADADAD" d="M103.908,26.022c0,0-52.045-6.915-71.545,34.577c-4.615,9.822-10.103,59.579-10.103,59.579
	s28.622-2.624,36.472,0c0,0-2.091-25.378,4.352-46.214"/>
<path id="helmet_14_" fill="#D3D3D3" d="M143.055,43.667c0,0-19.799-15.417-28.386-27.086c0,0-18.739,21.009-75.341,46.37
	l-10.689-3.607v11.447l-7.851,11.613l13.085,2.348l6.87,6.58l4.251-9.253c0,0,70.166-36.474,95.732-11.45
	c0,0,1.605,4.906-0.859,10.795c0,0,4.945-4.768,5.764-8.856C146.448,68.479,145.345,58.06,143.055,43.667z"/>
<path d="M117.496,31.405l1.195,20.354c0,0,0.31,4.001-1.455,3.883c-1.766-0.118-1.838-1.882-2.074-4
	c-0.235-2.117-1.26-20.237-1.26-20.237s-0.416-3.727,1.466-3.628C117.252,27.876,117.496,31.405,117.496,31.405z"/>
<path d="M127.449,39.266l1.367,14.516c0,0,0.309,4-1.456,3.885c-1.767-0.119-1.839-1.884-2.073-4.003
	c-0.236-2.116-1.432-14.397-1.432-14.397s-0.416-3.727,1.466-3.627C127.203,35.736,127.449,39.266,127.449,39.266z"/>
<path d="M137.074,46.964l1.195,10.051c0,0,0.31,3.999-1.457,3.882c-1.764-0.117-1.836-1.882-2.072-4
	c-0.235-2.117-1.26-9.933-1.26-9.933s-0.416-3.728,1.467-3.629C136.829,43.434,137.074,46.964,137.074,46.964z"/>
<path d="M106.92,37.244l1.023,14.516c0,0,0.31,4.001-1.456,3.883c-1.765-0.118-1.838-1.882-2.073-4
	c-0.235-2.117-1.087-14.398-1.087-14.398s-0.417-3.726,1.466-3.628C106.676,33.716,106.92,37.244,106.92,37.244z"/>
<path d="M96.622,42.91l0.853,10.051c0,0,0.308,4.002-1.457,3.884c-1.765-0.117-1.838-1.882-2.073-4.001
	c-0.235-2.117-0.915-9.934-0.915-9.934s-0.416-3.727,1.465-3.628C96.377,39.381,96.622,42.91,96.622,42.91z"/>
<path d="M87.148,49.024l0.508,6.788c0,0,0.309,4-1.456,3.883c-1.765-0.118-1.838-1.883-2.073-4.001s-0.572-6.67-0.572-6.67
	s-0.416-3.727,1.467-3.628C86.902,45.494,87.148,49.024,87.148,49.024z"/>
<path id="body_armor_10_" fill="#ADADAD" d="M66.521,191.286c31.441,4.021,52.509-1.503,52.509-1.503s0.019-15.339-0.81-20.613
	c-0.826-5.273-14.301-31.746-14.301-31.746s-6.277,2.895-8.242,2.999c-1.965,0.104-14.695-2.999-14.695-2.999l-3.645,3.001
	L66.521,191.286z"/>
<path id="detail_5_" fill="#C1C1C1" d="M79.578,171.737c0.054-0.013,5.543-1.274,12.596-2.33
	c14.376-2.149,26.023,0.372,26.137,0.396l-0.094-0.64l-0.132-0.634c-0.115-0.025-11.482-2.495-26.089-0.311
	c-7.103,1.062-12.635,2.335-12.689,2.346L79.578,171.737z"/>
<path id="right_shoulder_8_" fill="#C9C9C9" d="M106.383,139.093c0,0,1.895-0.071,3.026,0.3
	c5.804,1.895,13.555,10.966,13.481,15.318c-0.062,3.591-12.623,2.2-14.164-0.066C106.965,152.057,103.062,143.411,106.383,139.093z"
	/>
<path id="right_hair_7_" fill="#877C7C" d="M137.043,67.635c2.109,9.244,2.297,16.739,2.297,16.739
	c1.184,7.009,0.254,12.933-1.564,17.744h0.344c5.502,0.429,11.642-2.729,11.642-2.729c-6.911-4.269-9.034-14.637-9.034-14.637
	c5.242-0.503,11.568-8.382,11.568-8.382c-8.5,0.368-11.568-5.741-11.568-5.741"/>
<path id="left_arm_7_" fill="#494949" d="M80.982,139.265c0,0-25.869,18.666-23.135,47.584c2.241,23.714,13.328,15.544,14.205,8.01
	c0,0,0.748-2.061,2.05-1.571c1.3,0.486,5.852,1.23,2.276-5.429c-3.578-6.656-6.775-10.018,0.921-31.534"/>
<polygon id="patch_10_" fill="#ADADAD" points="82.66,139.265 80.982,138.214 74.926,143.322 79.365,148.266 "/>
<path id="left_hand_6_" fill="#D3D3D3" d="M74.064,171.755c0,0-12.055-1.758-16.42,0.726c0,0,0.012,0.515-0.186,1.375
	c-1.387,6.069-2.777,28.077,7.506,29.751c6.072,0.99,8.066-7.962,8.066-7.962s-0.104-1.138,1.033-0.932
	c1.137,0.207,7.586,0.525,3.206-7.182C72.89,179.825,73.031,176.203,74.064,171.755z"/>
<path id="left_shoulder_7_" fill="#D3D3D3" d="M75.926,139.265c0,0-19.813,2.382-19.854,19.047
	c-0.016,5.792,26.115,1.241,26.989-2.585C83.631,153.236,80.684,142.242,75.926,139.265z"/>
<path id="shield_back_4_" fill="#F9EA12" d="M45.579,206.716c0,0,8.61,10.017,22.601,10.47c6.479,0.209,11.504,0.125,23.072-6.521
	l1.564-1.523c0,0-6.074-14.856-3.553-27.98l-0.029-0.067c-10.461-5.528-16.893-20.06-16.893-20.06l-1.994,0.44
	c-11.51,6.852-14.592,11.508-18.348,17.708c-8.104,13.376-6.45,27.464-6.45,27.464L45.579,206.716z"/>
<g id="shield_9_">
	<g>
		<defs>
			<path id="SVGID_4_" d="M44.074,207.603c0,0,8.533,9.933,22.403,10.383c6.737,0.217,11.892,0.113,24.613-7.485
				c0,0-6.212-15.218-3.714-28.229l-0.027-0.067c-10.369-5.48-17.009-20.449-17.009-20.449
				c-12.831,7.35-15.999,12.111-19.901,18.554c-8.033,13.262-6.395,27.229-6.395,27.229L44.074,207.603z"/>
		</defs>
		<clipPath id="SVGID_5_">
			<use xlink:href="#SVGID_4_"  overflow="visible"/>
		</clipPath>
		<rect x="42.977" y="163.429" clip-path="url(#SVGID_5_)" fill="#3D3EA8" width="48" height="54"/>
		<path clip-path="url(#SVGID_5_)" fill="#3D3EA8" d="M54.793,169.257c-5.709,3.339-9.656,9.234-11.421,16.065
			c-1.767,6.829-1.351,14.594,1.664,21.678c1.507,3.541,3.675,6.575,6.025,9.032c1.178,1.229,2.915,2.312,3.915,3.241v-1.845h24
			v1.755c0-0.494,1.145-1.023,1.744-1.589c1.199-1.13,2.21-2.393,3.172-3.765c1.92-2.745,3.313-5.927,4.196-9.343
			c1.766-6.83,1.332-14.595-1.683-21.678C80.375,168.645,66.212,162.576,54.793,169.257z"/>
		<path clip-path="url(#SVGID_5_)" fill="#3D3FA9" d="M54.871,169.441c-5.666,3.316-9.586,9.169-11.34,15.951
			c-1.752,6.778-1.34,14.489,1.654,21.521c1.496,3.515,3.609,6.528,5.944,8.966c1.168,1.221,2.847,2.297,3.847,3.219v-1.669h24v1.58
			c0-0.491,1.088-1.018,1.682-1.579c1.193-1.12,2.173-2.375,3.127-3.735c1.907-2.726,3.277-5.884,4.153-9.276
			c1.753-6.779,1.317-14.491-1.678-21.521C80.276,168.833,66.209,162.81,54.871,169.441z"/>
		<path clip-path="url(#SVGID_5_)" fill="#3D41A9" d="M54.951,169.626c-5.627,3.292-9.518,9.102-11.258,15.834
			c-1.74,6.73-1.33,14.386,1.641,21.365c1.486,3.492,3.544,6.481,5.863,8.902c1.159,1.21,2.779,2.278,3.779,3.195v-1.494h24v1.405
			c0-0.487,1.031-1.011,1.623-1.568c1.182-1.111,2.132-2.357,3.078-3.709c1.894-2.704,3.241-5.841,4.11-9.206
			c1.742-6.731,1.302-14.386-1.669-21.368C80.176,169.023,66.205,163.044,54.951,169.626z"/>
		<path clip-path="url(#SVGID_5_)" fill="#3D42AA" d="M55.029,169.812c-5.585,3.267-9.446,9.035-11.175,15.716
			c-1.728,6.684-1.321,14.281,1.629,21.21c1.476,3.465,3.479,6.436,5.78,8.837c1.15,1.202,2.713,2.262,3.713,3.171v-1.317h24v1.231
			c0-0.484,0.975-1.005,1.562-1.558c1.174-1.103,2.091-2.341,3.032-3.682c1.879-2.687,3.204-5.8,4.068-9.14
			c1.727-6.685,1.285-14.281-1.664-21.209C80.076,169.213,66.201,163.277,55.029,169.812z"/>
		<path clip-path="url(#SVGID_5_)" fill="#3D43AB" d="M55.107,169.997c-5.544,3.243-9.377,8.967-11.092,15.6
			c-1.714,6.635-1.311,14.177,1.617,21.054c1.465,3.439,3.413,6.387,5.698,8.772c1.142,1.192,2.646,2.245,3.646,3.147v-1.142h24
			v1.055c0-0.481,0.918-0.995,1.5-1.546c1.166-1.095,2.054-2.32,2.986-3.655c1.865-2.665,3.169-5.754,4.026-9.07
			c1.715-6.634,1.271-14.175-1.657-21.054C79.975,169.401,66.197,163.509,55.107,169.997z"/>
		<path clip-path="url(#SVGID_5_)" fill="#3D45AB" d="M55.188,170.182c-5.504,3.22-9.308,8.901-11.01,15.485
			c-1.703,6.584-1.302,14.069,1.604,20.896c1.452,3.414,3.348,6.34,5.615,8.707c1.134,1.184,2.579,2.229,3.579,3.125v-0.966h23
			v1.565c0-0.221,0.291-0.448,0.608-0.686c0.633-0.479,1.058-0.988,1.636-1.532c1.158-1.089,2.111-2.308,3.036-3.632
			c1.853-2.644,3.184-5.711,4.033-9.003c1.703-6.583,1.28-14.07-1.626-20.894C79.85,169.591,66.193,163.743,55.188,170.182z"/>
		<path clip-path="url(#SVGID_5_)" fill="#3D46AC" d="M55.266,170.367c-5.462,3.195-9.237,8.835-10.927,15.37
			c-1.688,6.532-1.293,13.964,1.593,20.739c1.441,3.389,3.369,6.291,5.619,8.641c1.127,1.177,1.773,2.213,3.042,3.103
			c0.632,0.444,1.384,0.853,1.384,1.222v-2.013h20v2.014c12-6.39,15.194-22.556,9.425-36.109
			C79.633,169.781,66.19,163.976,55.266,170.367z"/>
		<path clip-path="url(#SVGID_5_)" fill="#3D47AD" d="M55.346,170.553c-5.422,3.17-9.17,8.769-10.846,15.254
			c-1.677,6.483-1.281,13.858,1.58,20.582c1.432,3.363,3.345,6.244,5.578,8.576c1.117,1.166,1.722,2.196,2.981,3.078
			c0.628,0.442,1.337,0.846,1.337,1.214v-1.828h20v1.828c12-6.343,15.04-22.388,9.314-35.836
			C79.566,169.971,66.188,164.209,55.346,170.553z"/>
		<path clip-path="url(#SVGID_5_)" fill="#3D48AE" d="M55.424,170.737c-5.38,3.147-9.099,8.701-10.762,15.139
			c-1.664,6.435-1.273,13.752,1.567,20.427c1.421,3.336,3.319,6.195,5.535,8.512c1.109,1.155,1.673,2.176,2.922,3.054
			c0.623,0.437,1.29,0.838,1.29,1.203v-1.643h20v1.644c12-6.295,14.888-22.217,9.206-35.564
			C79.5,170.16,66.184,164.442,55.424,170.737z"/>
		<path clip-path="url(#SVGID_5_)" fill="#3D4AAE" d="M55.503,170.922c-5.339,3.123-9.029,8.635-10.681,15.021
			c-1.651,6.386-1.263,13.647,1.557,20.271c1.41,3.312,3.294,6.15,5.493,8.446c1.1,1.147,2.124,2.162,3.362,3.032
			c0.618,0.434,0.742,0.833,1.742,1.194v-1.458h19v1.458c11-6.247,14.734-22.047,9.098-35.292
			C79.434,170.351,66.18,164.677,55.503,170.922z"/>
		<path clip-path="url(#SVGID_5_)" fill="#3D4BAF" d="M55.58,171.107c-5.297,3.1-8.959,8.568-10.597,14.905
			c-1.638,6.339-1.253,13.543,1.544,20.113c1.399,3.288,3.27,6.103,5.451,8.382c1.092,1.14,2.073,2.146,3.301,3.009
			c0.614,0.431,0.697,0.825,1.697,1.186v-1.273h18v1.273c12-6.198,15.081-21.876,9.487-35.02
			C78.867,170.539,66.176,164.91,55.58,171.107z"/>
		<path clip-path="url(#SVGID_5_)" fill="#3D4CB0" d="M55.66,171.293c-10.513,6.15-14.226,21.707-8.675,34.746
			c2.777,6.521,6.991,11.177,12.991,13.437v-2.047h15v1.088c12-6.15,14.928-21.706,9.377-34.747
			C78.801,170.729,66.173,165.145,55.66,171.293z"/>
		<path clip-path="url(#SVGID_5_)" fill="#3D4EB0" d="M55.738,171.479c-10.43,6.101-14.137,21.536-8.629,34.474
			c2.753,6.47,6.867,11.09,12.867,13.329v-1.853h12v1.909c1-0.288,2.194-0.624,2.846-1.006c10.431-6.102,14.852-21.538,9.343-34.475
			C78.656,170.918,66.17,165.377,55.738,171.479z"/>
		<path clip-path="url(#SVGID_5_)" fill="#3D4FB1" d="M55.817,171.663c-10.348,6.054-14.047,21.367-8.583,34.201
			c2.732,6.419,6.742,11.002,12.742,13.225v-1.66h12v1.719c1-0.29,2.15-0.622,2.799-1.001c10.347-6.053,14.722-21.366,9.257-34.202
			C78.568,171.107,66.164,165.608,55.817,171.663z"/>
		<path clip-path="url(#SVGID_5_)" fill="#3D50B2" d="M55.896,171.849c-10.266,6.004-13.959,21.196-8.539,33.929
			c2.711,6.367,6.619,10.914,12.619,13.12v-1.469h12v1.525c1-0.287,2.108-0.618,2.751-0.993
			c10.266-6.004,14.591-21.195,9.171-33.931C78.478,171.298,66.162,165.842,55.896,171.849z"/>
		<path clip-path="url(#SVGID_5_)" fill="#3D51B2" d="M55.976,172.031c-10.183,5.958-13.87,21.027-8.492,33.66
			c2.687,6.316,6.493,10.826,12.493,13.014v-1.276h11v2.056c1-0.396,2.92-0.964,4.193-1.709c10.183-5.955,14.219-21.025,8.84-33.656
			C78.633,171.486,66.157,166.075,55.976,172.031z"/>
		<path clip-path="url(#SVGID_5_)" fill="#3D53B3" d="M56.054,172.218c-10.1,5.909-13.78,20.857-8.447,33.386
			c2.667,6.265,7.37,10.738,12.37,12.907v-1.082h11v1.858c1-0.395,2.876-0.957,4.139-1.696c10.1-5.908,14.09-20.854,8.758-33.386
			C78.539,171.676,66.154,166.309,56.054,172.218z"/>
		<path clip-path="url(#SVGID_5_)" fill="#3D54B4" d="M56.133,172.402c-10.018,5.861-13.851,20.688-8.561,33.114
			c2.645,6.214,7.303,10.65,12.318,12.803c1.254,0.536,3.086,0.933,4.086,1.176v-2.066h7v1.659c1-0.391,2.831-0.95,4.082-1.683
			c10.02-5.86,13.968-20.686,8.677-33.112C78.445,171.866,66.15,166.542,56.133,172.402z"/>
		<path clip-path="url(#SVGID_5_)" fill="#3D55B4" d="M56.211,172.59c-9.936,5.812-13.736,20.514-8.49,32.84
			c2.625,6.161,7.236,10.562,12.21,12.696c1.243,0.534,3.046,0.926,4.046,1.168v-1.865h3v2.135c3-0.13,5.508-0.889,7.991-2.342
			c9.938-5.812,13.858-20.517,8.611-32.841C78.334,172.056,66.148,166.776,56.211,172.59z"/>
		<path clip-path="url(#SVGID_5_)" fill="#3D57B5" d="M56.29,172.773c-9.853,5.765-13.622,20.346-8.418,32.567
			c2.601,6.112,6.953,10.476,11.887,12.594c2.466,1.058,5.079,1.555,7.689,1.425c2.61-0.129,5.222-0.882,7.685-2.322
			c9.854-5.767,13.623-20.346,8.42-32.567C78.35,172.246,66.144,167.01,56.29,172.773z"/>
		<path clip-path="url(#SVGID_5_)" fill="#3D58B6" d="M56.369,172.959c-9.771,5.715-13.51,20.174-8.35,32.295
			c2.58,6.061,6.896,10.39,11.789,12.487c2.445,1.049,5.035,1.541,7.625,1.414c2.59-0.129,5.178-0.875,7.619-2.305
			c9.771-5.715,13.51-20.175,8.351-32.296C78.244,172.435,66.141,167.243,56.369,172.959z"/>
		<path clip-path="url(#SVGID_5_)" fill="#3D59B6" d="M56.449,173.145c-9.691,5.667-13.396,20.005-8.279,32.021
			c2.558,6.01,6.837,10.302,11.688,12.383c2.425,1.041,4.993,1.527,7.562,1.4c2.566-0.126,5.133-0.866,7.555-2.283
			c9.689-5.668,13.396-20.006,8.279-32.022C78.139,172.625,66.137,167.477,56.449,173.145z"/>
		<path clip-path="url(#SVGID_5_)" fill="#3D5AB7" d="M56.527,173.33c-9.605,5.618-13.281,19.834-8.209,31.749
			c2.537,5.957,6.779,10.213,11.59,12.277c4.809,2.063,10.186,1.933,14.988-0.875c9.605-5.62,13.28-19.837,8.209-31.752
			C78.031,172.814,66.133,167.709,56.527,173.33z"/>
		<path clip-path="url(#SVGID_5_)" fill="#3D5CB8" d="M56.606,173.514c-9.524,5.571-13.167,19.664-8.138,31.479
			c2.514,5.905,6.721,10.124,11.488,12.17c4.769,2.045,10.1,1.918,14.861-0.868c9.523-5.571,13.166-19.664,8.137-31.478
			C77.926,173.003,66.129,167.942,56.606,173.514z"/>
		<path clip-path="url(#SVGID_5_)" fill="#3D5DB8" d="M56.685,173.698c-9.441,5.523-13.054,19.494-8.067,31.206
			c2.492,5.856,6.663,10.037,11.389,12.066c4.729,2.028,10.013,1.901,14.732-0.859c9.441-5.524,13.054-19.495,8.068-31.206
			C77.82,173.193,66.125,168.176,56.685,173.698z"/>
		<path clip-path="url(#SVGID_5_)" fill="#3D5EB9" d="M56.764,173.885c-9.359,5.474-12.939,19.324-7.998,30.934
			c2.473,5.805,6.605,9.949,11.291,11.959c4.687,2.011,9.924,1.886,14.604-0.852c9.358-5.476,12.938-19.325,7.997-30.935
			C77.715,173.383,66.123,168.41,56.764,173.885z"/>
		<path clip-path="url(#SVGID_5_)" fill="#3E5FBA" d="M56.842,174.068c-9.276,5.426-12.824,19.154-7.926,30.662
			c2.449,5.754,6.546,9.864,11.19,11.854c4.646,1.992,9.837,1.869,14.475-0.845c9.276-5.426,12.825-19.153,7.926-30.66
			C77.609,173.571,66.118,168.643,56.842,174.068z"/>
		<path clip-path="url(#SVGID_5_)" fill="#3E60BA" d="M56.92,174.254c-9.193,5.38-12.711,18.983-7.855,30.39
			c2.428,5.702,6.489,9.774,11.093,11.75c4.603,1.973,9.749,1.851,14.346-0.838c9.193-5.38,12.71-18.983,7.855-30.39
			C77.504,173.759,66.114,168.876,56.92,174.254z"/>
		<path clip-path="url(#SVGID_5_)" fill="#3E62BB" d="M57,174.441c-9.112,5.328-12.598,18.812-7.785,30.114
			c2.405,5.649,6.43,9.687,10.992,11.644c4.562,1.959,9.661,1.836,14.217-0.828c9.111-5.333,12.597-18.814,7.786-30.118
			C77.396,173.951,66.111,169.109,57,174.441z"/>
		<path clip-path="url(#SVGID_5_)" fill="#3E63BB" d="M57.078,174.623c-9.028,5.283-12.482,18.645-7.715,29.846
			c2.383,5.601,6.372,9.599,10.893,11.538c4.521,1.94,9.575,1.819,14.09-0.821c9.028-5.283,12.482-18.645,7.715-29.846
			C77.292,174.14,66.107,169.343,57.078,174.623z"/>
		<path clip-path="url(#SVGID_5_)" fill="#3E64BC" d="M57.158,174.809c-8.947,5.236-12.371,18.475-7.646,29.573
			c2.362,5.548,6.314,9.511,10.793,11.434c4.479,1.922,9.487,1.802,13.961-0.814c8.946-5.235,12.369-18.474,7.646-29.572
			C77.187,174.331,66.104,169.575,57.158,174.809z"/>
		<path clip-path="url(#SVGID_5_)" fill="#3E65BD" d="M57.235,174.994c-8.863,5.186-12.255,18.304-7.573,29.299
			c2.34,5.498,6.256,9.427,10.693,11.328c4.438,1.904,9.4,1.785,13.832-0.807c8.865-5.186,12.255-18.304,7.574-29.299
			C77.08,174.52,66.1,169.809,57.235,174.994z"/>
		<path clip-path="url(#SVGID_5_)" fill="#3E67BD" d="M57.314,175.18c-8.781,5.138-12.141,18.133-7.504,29.026
			c2.319,5.448,6.199,9.338,10.596,11.222c4.396,1.889,9.312,1.771,13.702-0.797c8.781-5.139,12.142-18.135,7.503-29.026
			C76.975,174.709,66.097,170.043,57.314,175.18z"/>
		<path clip-path="url(#SVGID_5_)" fill="#3E68BE" d="M57.393,175.365c-8.698,5.088-12.026,17.962-7.433,28.753
			c4.595,10.794,15.37,15.416,24.069,10.326c8.7-5.088,12.027-17.963,7.434-28.753C76.869,174.898,66.093,170.275,57.393,175.365z"
			/>
		<path clip-path="url(#SVGID_5_)" fill="#3E69BF" d="M57.473,175.549c-8.617,5.043-11.914,17.793-7.363,28.483
			C54.66,214.722,65.334,219.3,73.95,214.26c8.617-5.041,11.915-17.793,7.364-28.481C76.764,175.088,66.088,170.51,57.473,175.549z"
			/>
		<path clip-path="url(#SVGID_5_)" fill="#3E6ABF" d="M57.551,175.734c-8.534,4.993-11.799,17.624-7.292,28.211
			s15.079,15.121,23.614,10.129s11.799-17.623,7.293-28.211C76.658,175.279,66.086,170.742,57.551,175.734z"/>
		<path clip-path="url(#SVGID_5_)" fill="#3E6BC0" d="M57.63,175.921c-8.452,4.945-11.687,17.451-7.223,27.937
			c4.464,10.483,14.934,14.977,23.386,10.032c8.453-4.945,11.687-17.453,7.223-27.938C76.553,175.468,66.082,170.978,57.63,175.921z
			"/>
		<path clip-path="url(#SVGID_5_)" fill="#3E6DC1" d="M57.709,176.106c-8.37,4.896-11.57,17.28-7.152,27.663
			c4.42,10.384,14.789,14.83,23.158,9.936c8.369-4.896,11.572-17.282,7.151-27.666C76.446,175.655,66.078,171.209,57.709,176.106z"
			/>
		<path clip-path="url(#SVGID_5_)" fill="#3E6EC1" d="M57.787,176.289c-8.286,4.851-11.457,17.114-7.082,27.394
			c4.377,10.28,14.643,14.684,22.93,9.838c8.288-4.851,11.459-17.113,7.082-27.395C76.341,175.846,66.074,171.443,57.787,176.289z"
			/>
		<path clip-path="url(#SVGID_5_)" fill="#3E6FC2" d="M57.865,176.475c-8.204,4.801-11.342,16.941-7.01,27.121
			c4.332,10.178,14.496,14.537,22.701,9.738c8.205-4.801,11.344-16.941,7.012-27.119C76.234,176.035,66.072,171.675,57.865,176.475z
			"/>
		<path clip-path="url(#SVGID_5_)" fill="#3E70C2" d="M57.945,176.661c-8.123,4.751-11.229,16.771-6.94,26.847
			c4.29,10.075,14.351,14.393,22.474,9.641c8.122-4.753,11.229-16.771,6.941-26.848C76.129,176.226,66.067,171.908,57.945,176.661z"
			/>
		<path clip-path="url(#SVGID_5_)" fill="#3E71C3" d="M58.023,176.847c-8.039,4.702-11.115,16.602-6.869,26.574
			c4.245,9.973,14.205,14.246,22.244,9.542c8.041-4.702,11.117-16.601,6.871-26.574S66.064,172.143,58.023,176.847z"/>
		<path clip-path="url(#SVGID_5_)" fill="#3E73C4" d="M58.104,177.031c-7.958,4.655-11.002,16.432-6.801,26.303
			c4.203,9.87,14.061,14.101,22.018,9.443c7.957-4.655,11.003-16.43,6.801-26.304C75.918,176.604,66.061,172.377,58.104,177.031z"/>
		<path clip-path="url(#SVGID_5_)" fill="#3E74C4" d="M58.182,177.216c-7.875,4.606-10.887,16.262-6.729,26.03
			c4.159,9.77,13.915,13.953,21.79,9.348c7.875-4.606,10.887-16.261,6.729-26.03C75.812,176.795,66.057,172.609,58.182,177.216z"/>
		<path clip-path="url(#SVGID_5_)" fill="#3E75C5" d="M58.261,177.401c-7.793,4.56-10.774,16.092-6.659,25.757
			c4.115,9.667,13.768,13.809,21.562,9.25c7.792-4.56,10.774-16.09,6.659-25.758C75.707,176.984,66.053,172.844,58.261,177.401z"/>
		<path clip-path="url(#SVGID_5_)" fill="#3E76C5" d="M58.34,177.587c-7.711,4.509-10.66,15.922-6.59,25.485
			c4.072,9.564,13.623,13.66,21.334,9.15s10.66-15.92,6.59-25.485C75.602,177.173,66.051,173.077,58.34,177.587z"/>
		<path clip-path="url(#SVGID_5_)" fill="#3E77C6" d="M58.418,177.772c-7.629,4.463-10.545,15.75-6.518,25.212
			c4.027,9.463,13.477,13.515,21.104,9.055c7.628-4.465,10.546-15.751,6.519-25.214C75.496,177.363,66.045,173.31,58.418,177.772z"
			/>
		<path clip-path="url(#SVGID_5_)" fill="#3E78C7" d="M58.497,177.956c-7.546,4.414-10.433,15.581-6.448,24.94
			c3.986,9.36,13.332,13.369,20.877,8.957c7.547-4.414,10.434-15.58,6.449-24.941C75.391,177.552,66.043,173.543,58.497,177.956z"/>
		<path clip-path="url(#SVGID_5_)" fill="#3E79C7" d="M58.576,178.142c-7.464,4.366-10.318,15.411-6.377,24.668
			c3.94,9.258,13.186,13.224,20.648,8.857S83.166,196.258,79.225,187C75.285,177.742,66.039,173.776,58.576,178.142z"/>
		<path clip-path="url(#SVGID_5_)" fill="#3E7BC8" d="M58.654,178.327c-7.38,4.317-10.204,15.24-6.307,24.396
			c3.897,9.156,13.041,13.078,20.422,8.759c7.38-4.318,10.204-15.238,6.307-24.396C75.179,177.93,66.035,174.01,58.654,178.327z"/>
		<path clip-path="url(#SVGID_5_)" fill="#3E7CC9" d="M58.733,178.512c-7.298,4.271-10.09,15.07-6.235,24.124
			c3.854,9.052,12.894,12.932,20.192,8.661c7.298-4.269,10.091-15.069,6.235-24.123C75.072,178.121,66.031,174.241,58.733,178.512z"
			/>
		<path clip-path="url(#SVGID_5_)" fill="#3E7DC9" d="M58.812,178.697c-7.217,4.22-9.977,14.9-6.166,23.851
			c3.811,8.951,12.749,12.786,19.965,8.565c7.216-4.222,9.977-14.9,6.166-23.852S66.027,174.475,58.812,178.697z"/>
		<path clip-path="url(#SVGID_5_)" fill="#3E7ECA" d="M58.891,178.882c-7.133,4.173-9.862,14.731-6.096,23.579
			c3.768,8.847,12.604,12.64,19.737,8.466c7.134-4.173,9.863-14.729,6.096-23.577C74.861,178.499,66.025,174.709,58.891,178.882z"/>
		<path clip-path="url(#SVGID_5_)" fill="#3E7FCA" d="M58.971,179.067c-7.053,4.126-9.749,14.559-6.025,23.307
			c3.723,8.746,12.457,12.494,19.509,8.367c7.052-4.125,9.749-14.558,6.024-23.304C74.756,178.689,66.02,174.941,58.971,179.067z"/>
		<path clip-path="url(#SVGID_5_)" fill="#3E80CB" d="M59.048,179.253c-6.968,4.076-9.634,14.39-5.954,23.034
			c3.681,8.644,12.313,12.347,19.281,8.27c6.969-4.076,9.635-14.389,5.955-23.033C74.65,178.877,66.018,175.176,59.048,179.253z"/>
		<path clip-path="url(#SVGID_5_)" fill="#3E81CB" d="M59.127,179.438c-6.887,4.028-9.52,14.218-5.883,22.761
			c3.635,8.541,12.166,12.201,19.051,8.173c6.887-4.027,9.522-14.221,5.885-22.763C74.544,179.069,66.014,175.409,59.127,179.438z"
			/>
		<path clip-path="url(#SVGID_5_)" fill="#3E82CC" d="M59.206,179.623c-6.804,3.98-9.406,14.048-5.813,22.488
			c3.593,8.439,12.021,12.056,18.824,8.075c6.805-3.979,9.408-14.048,5.814-22.489C74.438,179.259,66.009,175.643,59.206,179.623z"
			/>
		<path clip-path="url(#SVGID_5_)" fill="#3E84CD" d="M59.285,179.808c-6.722,3.934-9.293,13.879-5.744,22.218
			c3.549,8.336,11.875,11.908,18.598,7.976c6.721-3.93,9.293-13.878,5.744-22.215C74.332,179.448,66.006,175.876,59.285,179.808z"/>
		<path clip-path="url(#SVGID_5_)" fill="#3E85CD" d="M59.364,179.993c-6.64,3.884-9.179,13.707-5.674,21.943
			s11.729,11.763,18.37,7.88c6.638-3.885,9.179-13.709,5.672-21.943C74.227,179.638,66.003,176.109,59.364,179.993z"/>
		<path clip-path="url(#SVGID_5_)" fill="#3E86CE" d="M59.442,180.178c-6.557,3.836-9.065,13.538-5.602,21.671
			c3.461,8.135,11.583,11.618,18.141,7.782c6.556-3.834,9.064-13.537,5.603-21.671C74.121,179.825,66,176.343,59.442,180.178z"/>
		<path clip-path="url(#SVGID_5_)" fill="#3E87CE" d="M59.521,180.363c-6.475,3.787-8.951,13.369-5.533,21.398
			c3.419,8.033,11.439,11.473,17.914,7.685c6.474-3.787,8.951-13.369,5.532-21.399C74.016,180.016,65.995,176.575,59.521,180.363z"
			/>
		<path clip-path="url(#SVGID_5_)" fill="#3E88CF" d="M59.6,180.549c-6.393,3.739-8.836,13.197-5.461,21.126
			c3.374,7.929,11.293,11.325,17.685,7.586s8.838-13.198,5.462-21.126C73.91,180.206,65.992,176.809,59.6,180.549z"/>
		<path clip-path="url(#SVGID_5_)" fill="#3E89D0" d="M59.679,180.734c-6.31,3.69-8.724,13.026-5.391,20.853
			c3.331,7.828,11.146,11.181,17.455,7.488c6.311-3.69,8.724-13.028,5.392-20.854C73.804,180.394,65.988,177.044,59.679,180.734z"/>
		<path clip-path="url(#SVGID_5_)" fill="#3E8AD0" d="M59.758,180.919c-6.227,3.642-8.609,12.856-5.32,20.582
			c3.287,7.724,11.001,11.032,17.227,7.39c6.229-3.641,8.61-12.856,5.322-20.58C73.697,180.586,65.984,177.275,59.758,180.919z"/>
		<path clip-path="url(#SVGID_5_)" fill="#3E8BD1" d="M59.836,181.104c-6.144,3.594-8.494,12.687-5.249,20.309
			c3.243,7.622,10.856,10.888,17.001,7.293c6.143-3.594,8.494-12.689,5.249-20.311C73.592,180.773,65.981,177.509,59.836,181.104z"
			/>
		<path clip-path="url(#SVGID_5_)" fill="#3E8CD1" d="M59.916,181.289c-6.062,3.545-8.382,12.518-5.181,20.037
			s10.711,10.74,16.772,7.194c6.062-3.547,8.382-12.517,5.18-20.038C73.486,180.965,65.978,177.743,59.916,181.289z"/>
		<path clip-path="url(#SVGID_5_)" fill="#3E8DD2" d="M59.994,181.474c-5.98,3.497-8.268,12.347-5.109,19.766
			c3.157,7.417,10.564,10.595,16.545,7.097c5.979-3.498,8.267-12.347,5.109-19.766C73.381,181.153,65.974,177.976,59.994,181.474z"
			/>
		<path clip-path="url(#SVGID_5_)" fill="#3E8ED2" d="M60.074,181.659c-5.898,3.45-8.156,12.177-5.041,19.491
			c3.115,7.316,10.42,10.45,16.318,6.999c5.896-3.45,8.152-12.176,5.038-19.491C73.275,181.342,65.971,178.209,60.074,181.659z"/>
		<path clip-path="url(#SVGID_5_)" fill="#3E8FD3" d="M60.151,181.845c-5.815,3.4-8.038,12.005-4.968,19.22
			c3.07,7.213,10.273,10.302,16.088,6.9c5.814-3.4,8.039-12.005,4.97-19.219C73.169,181.532,65.967,178.442,60.151,181.845z"/>
		<path clip-path="url(#SVGID_5_)" fill="#3E90D3" d="M60.23,182.03c-5.732,3.353-7.926,11.836-4.897,18.946
			c3.026,7.11,10.127,10.158,15.859,6.804s7.927-11.837,4.898-18.947C73.063,181.723,65.963,178.675,60.23,182.03z"/>
		<path clip-path="url(#SVGID_5_)" fill="#3E92D4" d="M60.309,182.215c-5.648,3.305-7.811,11.665-4.827,18.674
			c2.983,7.01,9.983,10.012,15.632,6.706c5.65-3.305,7.812-11.667,4.828-18.673C72.957,181.91,65.959,178.909,60.309,182.215z"/>
		<path clip-path="url(#SVGID_5_)" fill="#3E93D5" d="M60.389,182.4c-5.568,3.257-7.699,11.495-4.758,18.401
			c2.939,6.906,9.838,9.865,15.404,6.609c5.568-3.258,7.697-11.498,4.758-18.404C72.853,182.101,65.955,179.144,60.389,182.4z"/>
		<path clip-path="url(#SVGID_5_)" fill="#3E94D5" d="M60.467,182.584c-5.485,3.208-7.584,11.325-4.688,18.131
			c2.896,6.805,9.691,9.719,15.178,6.51c5.484-3.208,7.584-11.325,4.686-18.129C72.747,182.291,65.952,179.377,60.467,182.584z"/>
		<path clip-path="url(#SVGID_5_)" fill="#3E95D6" d="M60.545,182.771c-5.402,3.16-7.469,11.154-4.615,17.855
			c2.853,6.704,9.545,9.575,14.947,6.415c5.404-3.161,7.47-11.158,4.617-17.86C72.641,182.481,65.947,179.609,60.545,182.771z"/>
		<path clip-path="url(#SVGID_5_)" fill="#3E96D6" d="M60.625,182.955c-5.321,3.11-7.356,10.983-4.547,17.586
			c2.811,6.6,9.4,9.426,14.721,6.314c5.32-3.113,7.355-10.986,4.547-17.587C72.535,182.67,65.945,179.843,60.625,182.955z"/>
		<path clip-path="url(#SVGID_5_)" fill="#3E97D7" d="M60.703,183.141c-5.238,3.062-7.242,10.813-4.476,17.312
			c2.767,6.497,9.255,9.281,14.492,6.216c5.239-3.063,7.242-10.813,4.477-17.312C72.43,182.859,65.941,180.074,60.703,183.141z"/>
		<path clip-path="url(#SVGID_5_)" fill="#3E98D7" d="M60.782,183.324c-5.155,3.019-7.129,10.645-4.407,17.042
			c2.725,6.396,9.111,9.135,14.266,6.118c5.156-3.016,7.129-10.645,4.406-17.042C72.324,183.05,65.938,180.309,60.782,183.324z"/>
		<path clip-path="url(#SVGID_5_)" fill="#3E99D8" d="M60.86,183.511c-5.073,2.967-7.013,10.474-4.335,16.768
			c2.68,6.293,8.965,8.99,14.037,6.021c5.072-2.968,7.016-10.476,4.335-16.769C72.217,183.239,65.934,180.541,60.86,183.511z"/>
		<path clip-path="url(#SVGID_5_)" fill="#3E9AD8" d="M60.939,183.695c-4.99,2.919-6.899,10.305-4.265,16.496
			c2.636,6.191,8.818,8.844,13.808,5.924c4.991-2.92,6.902-10.305,4.266-16.497C72.113,183.427,65.93,180.774,60.939,183.695z"/>
		<path clip-path="url(#SVGID_5_)" fill="#3E9BD9" d="M61.019,183.879c-4.909,2.873-6.785,10.136-4.194,16.225
			c2.592,6.088,8.672,8.697,13.58,5.826c4.908-2.872,6.787-10.136,4.195-16.225C72.008,183.617,65.926,181.009,61.019,183.879z"/>
		<path clip-path="url(#SVGID_5_)" fill="#3E9CD9" d="M61.097,184.066c-4.825,2.823-6.671,9.963-4.124,15.949
			c2.549,5.987,8.527,8.552,13.354,5.729c4.825-2.822,6.671-9.965,4.122-15.95C71.902,183.807,65.924,181.243,61.097,184.066z"/>
		<path clip-path="url(#SVGID_5_)" fill="#3E9DDA" d="M61.177,184.251c-4.745,2.774-6.559,9.793-4.054,15.677
			c2.505,5.887,8.381,8.406,13.125,5.632c4.742-2.775,6.558-9.795,4.053-15.678C71.796,183.996,65.92,181.476,61.177,184.251z"/>
		<path clip-path="url(#SVGID_5_)" fill="#3E9EDA" d="M61.256,184.435c-4.661,2.729-6.444,9.624-3.983,15.406
			c2.462,5.783,8.234,8.26,12.896,5.533c4.662-2.727,6.445-9.624,3.982-15.407C71.689,184.186,65.916,181.708,61.256,184.435z"/>
		<path clip-path="url(#SVGID_5_)" fill="#3E9FDB" d="M61.333,184.62c-4.579,2.678-6.33,9.455-3.911,15.135
			c2.418,5.68,8.089,8.112,12.668,5.435c4.578-2.679,6.33-9.455,3.912-15.135C71.584,184.376,65.912,181.942,61.333,184.62z"/>
		<path clip-path="url(#SVGID_5_)" fill="#3EA0DB" d="M61.412,184.805c-4.495,2.63-6.216,9.285-3.842,14.862
			c2.374,5.579,7.944,7.968,12.44,5.337c4.495-2.63,6.218-9.282,3.842-14.861C71.479,184.565,65.908,182.175,61.412,184.805z"/>
		<path clip-path="url(#SVGID_5_)" fill="#3FA0DC" d="M61.492,184.99c-4.415,2.582-6.103,9.114-3.773,14.589
			c2.332,5.478,7.8,7.821,12.214,5.24c4.413-2.583,6.102-9.113,3.771-14.59C71.373,184.754,65.906,182.409,61.492,184.99z"/>
		<path clip-path="url(#SVGID_5_)" fill="#3FA1DC" d="M61.57,185.175c-4.332,2.536-5.988,8.946-3.701,14.317
			c2.288,5.374,7.652,7.677,11.984,5.142c4.331-2.536,5.988-8.943,3.701-14.317C71.266,184.943,65.901,182.642,61.57,185.175z"/>
		<path clip-path="url(#SVGID_5_)" fill="#3FA2DD" d="M61.648,185.361c-4.248,2.486-5.875,8.773-3.631,14.044
			c2.244,5.272,7.508,7.529,11.758,5.044c4.248-2.486,5.875-8.773,3.63-14.045C71.161,185.133,65.898,182.877,61.648,185.361z"/>
		<path clip-path="url(#SVGID_5_)" fill="#3FA3DD" d="M61.729,185.546c-4.168,2.438-5.761,8.604-3.561,13.771
			c2.199,5.169,7.361,7.384,11.527,4.945c4.168-2.437,5.762-8.601,3.561-13.771C71.056,185.323,65.895,183.109,61.729,185.546z"/>
		<path clip-path="url(#SVGID_5_)" fill="#3FA4DE" d="M61.807,185.73c-4.084,2.39-5.646,8.435-3.49,13.5
			c2.156,5.067,7.216,7.237,11.301,4.849c4.084-2.391,5.646-8.435,3.49-13.501C70.95,185.514,65.892,183.344,61.807,185.73z"/>
		<path clip-path="url(#SVGID_5_)" fill="#3FA5DE" d="M61.885,185.915c-4.001,2.343-5.531,8.265-3.419,13.229
			c2.114,4.964,7.07,7.09,11.071,4.749c4.003-2.342,5.533-8.262,3.42-13.225C70.845,185.702,65.887,183.575,61.885,185.915z"/>
		<path clip-path="url(#SVGID_5_)" fill="#3FA6DF" d="M61.964,186.102c-3.919,2.292-5.418,8.095-3.349,12.955
			c2.068,4.862,6.925,6.944,10.844,4.651c3.92-2.293,5.42-8.092,3.35-12.956C70.738,185.891,65.884,183.808,61.964,186.102z"/>
		<path clip-path="url(#SVGID_5_)" fill="#3FA7DF" d="M62.043,186.286c-3.836,2.243-5.305,7.924-3.279,12.684
			c2.026,4.759,6.779,6.797,10.616,4.554c3.837-2.246,5.306-7.922,3.279-12.684C70.633,186.08,65.88,184.042,62.043,186.286z"/>
		<path clip-path="url(#SVGID_5_)" fill="#3FA8E0" d="M62.121,186.472c-3.754,2.195-5.19,7.753-3.207,12.409
			c1.982,4.658,6.634,6.654,10.388,4.457c3.754-2.196,5.19-7.753,3.208-12.41S65.876,184.274,62.121,186.472z"/>
		<path clip-path="url(#SVGID_5_)" fill="#3FA9E0" d="M62.201,186.655c-3.674,2.151-5.078,7.584-3.138,12.14
			c1.938,4.554,6.487,6.506,10.159,4.358s5.077-7.582,3.137-12.139C70.422,186.46,65.873,184.509,62.201,186.655z"/>
		<path clip-path="url(#SVGID_5_)" fill="#3FAAE1" d="M62.28,186.841c-3.591,2.101-4.964,7.413-3.068,11.866s6.343,6.36,9.933,4.26
			c3.59-2.099,4.963-7.411,3.067-11.864C70.315,186.649,65.869,184.742,62.28,186.841z"/>
		<path clip-path="url(#SVGID_5_)" fill="#3FAAE1" d="M62.357,187.026c-3.508,2.054-4.848,7.243-2.996,11.593
			c1.852,4.351,6.197,6.214,9.704,4.163c3.508-2.05,4.85-7.241,2.996-11.593C70.211,186.839,65.865,184.975,62.357,187.026z"/>
		<path clip-path="url(#SVGID_5_)" fill="#3FABE2" d="M62.437,187.212c-3.424,2.004-4.734,7.073-2.927,11.32
			c1.81,4.249,6.053,6.067,9.477,4.065s4.735-7.07,2.927-11.319C70.105,187.027,65.862,185.209,62.437,187.212z"/>
		<path clip-path="url(#SVGID_5_)" fill="#3FACE2" d="M62.516,187.396c-3.344,1.956-4.621,6.902-2.855,11.048
			c1.765,4.146,5.905,5.923,9.247,3.968c3.343-1.955,4.622-6.901,2.856-11.048C69.999,187.219,65.857,185.441,62.516,187.396z"/>
		<path clip-path="url(#SVGID_5_)" fill="#3FADE2" d="M62.594,187.583c-3.26,1.906-4.506,6.73-2.784,10.774
			c1.72,4.045,5.759,5.777,9.021,3.87c3.258-1.908,4.506-6.732,2.785-10.774C69.893,187.407,65.854,185.676,62.594,187.583z"/>
		<path clip-path="url(#SVGID_5_)" fill="#3FAEE3" d="M62.673,187.767c-3.177,1.859-4.394,6.562-2.716,10.503
			c1.68,3.943,5.615,5.633,8.794,3.771c3.177-1.858,4.392-6.561,2.714-10.501C69.787,187.598,65.852,185.908,62.673,187.767z"/>
		<path clip-path="url(#SVGID_5_)" fill="#3FAFE3" d="M62.752,187.953c-3.096,1.81-4.279,6.391-2.645,10.232
			c1.635,3.838,5.469,5.482,8.564,3.672c3.094-1.812,4.279-6.391,2.644-10.231C69.682,187.786,65.848,186.143,62.752,187.953z"/>
		<path clip-path="url(#SVGID_5_)" fill="#3FB0E4" d="M62.831,188.137c-3.013,1.764-4.165,6.223-2.575,9.96
			c1.592,3.736,5.324,5.339,8.336,3.575c3.014-1.763,4.166-6.222,2.574-9.959C69.576,187.977,65.842,186.374,62.831,188.137z"/>
		<path clip-path="url(#SVGID_5_)" fill="#3FB0E4" d="M62.909,188.322c-2.931,1.715-4.052,6.052-2.503,9.688
			c1.547,3.635,5.176,5.191,8.107,3.478s4.051-6.052,2.504-9.688C69.471,188.166,65.84,186.608,62.909,188.322z"/>
		<path clip-path="url(#SVGID_5_)" fill="#3FB1E5" d="M62.988,188.508c-2.848,1.666-3.938,5.882-2.433,9.414
			c1.503,3.532,5.032,5.045,7.88,3.379s3.937-5.88,2.432-9.412C69.365,188.354,65.836,186.841,62.988,188.508z"/>
		<path clip-path="url(#SVGID_5_)" fill="#3FB2E5" d="M63.067,188.693c-2.766,1.617-3.823,5.709-2.362,9.141
			c1.46,3.432,4.885,4.9,7.651,3.282c2.766-1.616,3.823-5.711,2.362-9.143C69.258,188.544,65.833,187.074,63.067,188.693z"/>
		<path clip-path="url(#SVGID_5_)" fill="#3FB3E5" d="M63.146,188.878c-2.684,1.57-3.711,5.54-2.293,8.868
			c1.417,3.328,4.74,4.755,7.424,3.186c2.682-1.57,3.709-5.542,2.293-8.868C69.152,188.733,65.828,187.309,63.146,188.878z"/>
		<path clip-path="url(#SVGID_5_)" fill="#3FB4E6" d="M63.225,189.062c-2.602,1.521-3.596,5.37-2.223,8.596
			c1.374,3.228,4.596,4.609,7.197,3.089c2.6-1.522,3.594-5.371,2.223-8.597C69.047,188.923,65.826,187.541,63.225,189.062z"/>
		<path clip-path="url(#SVGID_5_)" fill="#3FB4E6" d="M63.305,189.246c-2.52,1.476-3.482,5.201-2.152,8.325
			c1.329,3.124,4.449,4.463,6.969,2.99c2.518-1.475,3.479-5.201,2.15-8.323C68.941,189.113,65.822,187.775,63.305,189.246z"/>
		<path clip-path="url(#SVGID_5_)" fill="#3FB5E7" d="M63.383,189.434c-2.436,1.424-3.368,5.029-2.082,8.05
			c1.287,3.022,4.305,4.318,6.74,2.893s3.367-5.029,2.082-8.053C68.836,189.303,65.818,188.009,63.383,189.434z"/>
		<path clip-path="url(#SVGID_5_)" fill="#3FB6E7" d="M63.461,189.618c-2.354,1.377-3.253,4.86-2.01,7.78
			c1.241,2.918,4.156,4.169,6.512,2.793c2.353-1.377,3.252-4.86,2.01-7.78C68.73,189.493,65.814,188.242,63.461,189.618z"/>
		<path clip-path="url(#SVGID_5_)" fill="#3FB7E7" d="M63.539,189.805c-2.27,1.327-3.139,4.688-1.939,7.506s4.012,4.025,6.283,2.696
			s3.141-4.69,1.941-7.508S65.811,188.476,63.539,189.805z"/>
		<path clip-path="url(#SVGID_5_)" fill="#3FB7E8" d="M63.619,189.987c-2.189,1.281-3.026,4.521-1.871,7.235
			c1.156,2.716,3.867,3.879,6.056,2.598c2.19-1.279,3.026-4.52,1.87-7.234C68.519,189.87,65.809,188.709,63.619,189.987z"/>
		<path clip-path="url(#SVGID_5_)" fill="#3FB8E8" d="M63.699,190.174c-2.107,1.234-2.914,4.349-1.801,6.962
			c1.111,2.613,3.721,3.732,5.827,2.499c2.106-1.23,2.913-4.349,1.8-6.961C68.412,190.061,65.805,188.941,63.699,190.174z"/>
		<path clip-path="url(#SVGID_5_)" fill="#3FB9E9" d="M63.776,190.358c-2.023,1.185-2.798,4.179-1.729,6.689s3.576,3.587,5.6,2.402
			c2.023-1.183,2.799-4.18,1.73-6.689C68.307,190.252,65.8,189.174,63.776,190.358z"/>
		<path clip-path="url(#SVGID_5_)" fill="#3FB9E9" d="M63.855,190.545c-1.941,1.135-2.685,4.008-1.659,6.416s3.43,3.439,5.372,2.305
			c1.941-1.136,2.684-4.009,1.658-6.418C68.201,190.44,65.797,189.407,63.855,190.545z"/>
		<path clip-path="url(#SVGID_5_)" fill="#3FBAE9" d="M63.936,190.729c-1.861,1.088-2.572,3.839-1.59,6.145
			c0.981,2.308,3.285,3.295,5.143,2.207c1.86-1.089,2.57-3.839,1.59-6.146C68.096,190.629,65.793,189.641,63.936,190.729z"/>
		<path clip-path="url(#SVGID_5_)" fill="#3FBBEA" d="M64.014,190.914c-1.777,1.039-2.457,3.669-1.52,5.873
			c0.938,2.203,3.14,3.147,4.916,2.108c1.777-1.038,2.457-3.668,1.519-5.871C67.99,190.819,65.791,189.875,64.014,190.914z"/>
		<path clip-path="url(#SVGID_5_)" fill="#3FBBEA" d="M64.092,191.1c-1.693,0.99-2.342,3.496-1.447,5.6
			c0.895,2.101,2.994,3.002,4.688,2.011s2.342-3.499,1.447-5.601C67.885,191.007,65.785,190.107,64.092,191.1z"/>
		<path clip-path="url(#SVGID_5_)" fill="#3FBCEA" d="M64.17,191.286c-1.611,0.942-2.229,3.326-1.377,5.327
			c0.852,1.998,2.848,2.854,4.459,1.912c1.613-0.944,2.229-3.327,1.378-5.326C67.778,191.197,65.783,190.343,64.17,191.286z"/>
		<path clip-path="url(#SVGID_5_)" fill="#3FBCEB" d="M64.249,191.469c-1.528,0.896-2.114,3.159-1.308,5.057
			c0.809,1.895,2.703,2.709,4.232,1.814s2.115-3.158,1.307-5.055C67.673,191.388,65.778,190.575,64.249,191.469z"/>
		<path clip-path="url(#SVGID_5_)" fill="#3FBDEB" d="M64.328,191.657c-1.447,0.845-2,2.984-1.236,4.779s2.557,2.563,4.004,1.718
			c1.445-0.847,2-2.987,1.236-4.782C67.566,191.576,65.775,190.809,64.328,191.657z"/>
		<path clip-path="url(#SVGID_5_)" fill="#3FBEEB" d="M64.407,191.838c-1.364,0.8-1.887,2.819-1.165,4.512
			c0.719,1.693,2.41,2.42,3.775,1.619c1.363-0.797,1.885-2.816,1.164-4.51C67.463,191.766,65.771,191.041,64.407,191.838z"/>
		<path clip-path="url(#SVGID_5_)" fill="#3FBEEC" d="M64.486,192.025c-1.283,0.748-1.773,2.646-1.096,4.236
			c0.676,1.591,2.265,2.271,3.547,1.521c1.281-0.748,1.771-2.646,1.096-4.237S65.768,191.274,64.486,192.025z"/>
		<path clip-path="url(#SVGID_5_)" fill="#3FBFEC" d="M64.564,192.211c-1.199,0.701-1.658,2.476-1.025,3.964
			c0.634,1.489,2.121,2.126,3.319,1.425c1.2-0.701,1.659-2.477,1.024-3.966C67.251,192.145,65.765,191.508,64.564,192.211z"/>
		<path clip-path="url(#SVGID_5_)" fill="#3FBFEC" d="M64.644,192.395c-1.118,0.652-1.546,2.308-0.956,3.694
			c0.592,1.385,1.975,1.979,3.092,1.327c1.119-0.656,1.546-2.309,0.956-3.695C67.146,192.337,65.76,191.74,64.644,192.395z"/>
		<path clip-path="url(#SVGID_5_)" fill="#3FC0EC" d="M64.722,192.581c-1.034,0.603-1.431,2.137-0.884,3.419
			c0.547,1.286,1.828,1.835,2.863,1.229c1.035-0.605,1.431-2.137,0.884-3.419C67.039,192.524,65.758,191.974,64.722,192.581z"/>
		<path clip-path="url(#SVGID_5_)" fill="#3FC0ED" d="M64.801,192.767c-0.953,0.557-1.316,1.965-0.814,3.146
			c0.504,1.183,1.684,1.688,2.636,1.13c0.952-0.557,1.317-1.965,0.815-3.147C66.934,192.715,65.754,192.209,64.801,192.767z"/>
		<path clip-path="url(#SVGID_5_)" fill="#3FC0ED" d="M64.879,192.949c-0.869,0.51-1.203,1.797-0.742,2.877
			c0.459,1.08,1.537,1.543,2.408,1.033c0.869-0.51,1.201-1.796,0.742-2.876S65.749,192.441,64.879,192.949z"/>
		<path clip-path="url(#SVGID_5_)" fill="#3FC1ED" d="M64.959,193.137c-0.788,0.461-1.09,1.627-0.674,2.603s1.393,1.396,2.18,0.936
			c0.787-0.462,1.089-1.627,0.673-2.605C66.723,193.094,65.746,192.674,64.959,193.137z"/>
		<path clip-path="url(#SVGID_5_)" fill="#3FC1ED" d="M65.037,193.32c-0.705,0.413-0.975,1.458-0.602,2.332
			c0.371,0.875,1.246,1.248,1.951,0.838c0.704-0.413,0.975-1.457,0.602-2.332C66.617,193.283,65.743,192.908,65.037,193.32z"/>
	</g>
	<path fill="#5E51AD" d="M69.141,218.293L69.141,218.293c-0.906,0-1.818-0.025-2.672-0.051c-7.225-0.236-12.979-3.066-16.535-5.402
		c-3.854-2.53-6.033-5.045-6.055-5.07c-0.018-0.02-0.032-0.042-0.041-0.065l-0.029-0.067c-0.01-0.021-0.016-0.046-0.02-0.071
		c-0.016-0.141-1.557-14.205,6.43-27.388c2.014-3.323,3.781-6.094,6.641-8.986c3.135-3.167,7.376-6.236,13.354-9.656
		c0.064-0.039,0.139-0.046,0.207-0.023c0.069,0.023,0.125,0.075,0.155,0.142c0.065,0.147,6.723,14.949,16.895,20.325
		c0.052,0.028,0.093,0.073,0.116,0.126l0.029,0.068c0.018,0.046,0.025,0.099,0.014,0.148c-2.455,12.781,3.639,27.928,3.7,28.081
		c0.048,0.117,0.003,0.251-0.106,0.316C80.617,217.055,75.093,218.293,69.141,218.293z M44.296,207.469
		c0.261,0.295,2.368,2.613,5.933,4.953c3.5,2.293,9.158,5.077,16.258,5.307c0.848,0.027,1.756,0.053,2.654,0.053
		c5.83,0,11.248-1.213,21.633-7.392c-0.721-1.86-5.936-15.94-3.672-28.028c-9.51-5.113-15.937-18.237-16.877-20.244
		c-13.001,7.486-16.045,12.512-19.566,18.324C42.971,193.131,44.211,206.646,44.296,207.469z"/>
</g>
<g id="lightning_4_">
	<path fill="#F9EA12" d="M75.639,178.212c-5.191-3.161-11.768-3.826-16.369-3.826c-2.648,0-4.445,0.229-4.465,0.232l-0.064-0.334
		c2.373-0.64,5.01-0.965,7.836-0.965c4.59,0,8.133,0.869,8.168,0.878l0.014,0.002l0.012,0.006c0.033,0.016,0.15,0.056,0.23,0.056
		c0.002,0,0.005,0,0.008,0c-0.008-0.052-0.049-0.199-0.276-0.533c-1.334-1.961-4.837-4.925-4.872-4.955l-0.381-0.323l0.499,0.021
		c4.644,0.195,9.856,2.712,9.907,2.736l0.039,0.02l0.928,1.297l-0.479-0.145c-3.189-0.959-4.75-1.08-5.34-1.126
		c-0.109-0.007-0.182-0.013-0.231-0.023c-0.052-0.009-0.14-0.017-0.233-0.017c-0.224,0-0.326,0.05-0.34,0.084
		c-0.003,0.006-0.058,0.164,0.451,0.658c1.742,1.689,5.148,5.963,5.182,6.005l0.6,0.754L75.639,178.212z"/>
	<path fill="#5E51AD" d="M65.97,168.642c4.662,0.198,9.841,2.722,9.841,2.722l0.611,0.853c-3.785-1.139-5.316-1.104-5.592-1.152
		c-0.057-0.012-0.154-0.023-0.262-0.023c-0.4,0-0.92,0.15-0.007,1.038c1.754,1.703,5.166,5.99,5.166,5.99
		c-5.312-3.237-12.075-3.854-16.458-3.854c-2.692,0-4.484,0.234-4.484,0.234c2.675-0.721,5.385-0.957,7.791-0.957
		c4.621,0,8.127,0.871,8.127,0.871s0.162,0.07,0.297,0.07c0.19,0,0.325-0.139-0.127-0.803C69.51,171.63,65.97,168.642,65.97,168.642
		 M64.985,168.259l0.764,0.644c0.035,0.029,3.521,2.981,4.843,4.919c0.049,0.075,0.09,0.14,0.121,0.193
		c-0.525-0.123-3.887-0.865-8.137-0.865c-2.842,0-5.493,0.326-7.881,0.968l0.132,0.67c0.019-0.002,1.806-0.23,4.442-0.23
		c4.58,0,11.123,0.66,16.28,3.802l1.646,1.001l-1.201-1.507c-0.139-0.175-3.445-4.322-5.195-6.021
		c-0.229-0.222-0.327-0.362-0.371-0.44c0.035-0.005,0.08-0.009,0.141-0.009c0.082,0,0.16,0.009,0.203,0.017
		c0.058,0.01,0.13,0.017,0.251,0.025c0.581,0.045,2.13,0.164,5.301,1.12l0.958,0.287l-0.582-0.814l-0.61-0.854l-0.05-0.071
		l-0.078-0.037c-0.213-0.105-5.298-2.556-9.978-2.754L64.985,168.259L64.985,168.259z"/>
</g>
<g id="patch_7_">
	<polygon fill="#5E51AD" points="54.37,174.802 54.348,174.495 55.023,174.424 55.046,174.731 	"/>
</g>
<path id="D_highlight_4_" fill="#24B6E7" d="M75.162,191.748c0,0,5.389,11.788-4.65,17.753c-10.037,5.962-14.788-6.207-14.788-6.207
	l-5.321-13.31l1.09-0.646l0.855,2.14c0.314,0.786,1.131,0.418,1.131,0.418s15.104-8.972,15.883-9.434s0.466-1.328,0.466-1.328
	l-0.868-2.17l0.881-0.524L75.162,191.748z M71.088,187.743l-14.533,8.633c0,0-1.791,1.143-0.771,3.691l0.49,1.227
	c0,0,3.828,7.693,12.074,2.795c8.249-4.898,5.146-13.703,5.146-13.703l-0.586-1.464C72.907,188.922,72.255,187.051,71.088,187.743z"
	/>
<path id="D_4_" fill="#3F3F9E" d="M74.674,191.875c0,0,5.389,11.791-4.648,17.753c-10.038,5.962-14.79-6.207-14.79-6.207
	l-5.321-13.31l1.09-0.646l0.855,2.139c0.315,0.786,1.131,0.418,1.131,0.418s15.104-8.971,15.883-9.434
	c0.778-0.462,0.465-1.327,0.465-1.327l-0.869-2.169l0.884-0.525L74.674,191.875z M70.6,187.871l-14.533,8.632
	c0,0-1.791,1.141-0.773,3.69l0.49,1.229c0,0,3.83,7.692,12.078,2.793c8.246-4.898,5.144-13.703,5.144-13.703l-0.585-1.464
	C72.42,189.048,71.768,187.177,70.6,187.871z"/>
</svg>
